<svg xmlns="http://www.w3.org/2000/svg" xmlns:xlink="http://www.w3.org/1999/xlink" width="315" height="194" viewBox="0 0 315 194">
  <defs>
    <filter id="ログインパネル" x="0" y="0" width="315" height="194" filterUnits="userSpaceOnUse">
      <feOffset dy="1" input="SourceAlpha"/>
      <feGaussianBlur stdDeviation="2.5" result="blur"/>
      <feFlood flood-opacity="0.2"/>
      <feComposite operator="in" in2="blur"/>
      <feComposite in="SourceGraphic"/>
    </filter>
  </defs>
  <g id="コンポーネント_5_2" data-name="コンポーネント 5 – 2" transform="translate(7.5 6.5)">
    <g id="グループ_2501" data-name="グループ 2501" transform="translate(0 -0.012)">
      <g id="グループ_2499" data-name="グループ 2499">
        <g transform="matrix(1, 0, 0, 1, -7.5, -6.49)" filter="url(#ログインパネル)">
          <rect id="ログインパネル-2" data-name="ログインパネル" width="300" height="179" rx="10" transform="translate(7.5 6.5)" fill="#fff"/>
        </g>
        <path id="パス_1180" data-name="パス 1180" d="M8.033-19.72a12.832,12.832,0,0,1,.145-2.436H5.8a16.091,16.091,0,0,1,.116,2.407V-6.38c0,1.218.029,1.8.058,2.262A3.851,3.851,0,0,0,7.163-1.334c1.015.841,2.929,1.189,6.351,1.189,2,0,5.829-.2,7.685-.406L22.591-.7l.377-.029c.435-.058.522-.058.957-.087l-.174-2.32a13.971,13.971,0,0,1-2.871.58,57.37,57.37,0,0,1-6.641.464,30.242,30.242,0,0,1-3.422-.174,3.481,3.481,0,0,1-2.2-.754C8.12-3.509,8-4.176,8-6.206v-.319L8.033-6.7v-4.234a45.018,45.018,0,0,0,13.833-4.9c.667-.348.812-.406,1.247-.609l-1.479-1.972c-1.943,1.914-9.019,4.785-13.6,5.568Zm13.079-3.161A21.477,21.477,0,0,1,24.1-18.27l1.45-.87a22.016,22.016,0,0,0-2.987-4.495Zm3.306-1.566a21.724,21.724,0,0,1,2.958,4.553l1.479-.812a25.077,25.077,0,0,0-3.016-4.524Zm10.846,4A31.3,31.3,0,0,1,42.4-16.588l1.189-1.943A45.174,45.174,0,0,0,36.4-22.185Zm-2.291,6.96a32.016,32.016,0,0,1,7.4,3.973L41.5-11.484a46.4,46.4,0,0,0-7.366-3.77ZM33.959.377A8.879,8.879,0,0,1,35.09.087C45.53-1.885,51.5-6.438,55.158-15.225a8.925,8.925,0,0,1-1.8-1.566A20.729,20.729,0,0,1,41.18-3.8,26.331,26.331,0,0,1,33.553-2h-.174ZM50.141-22.765A23.448,23.448,0,0,1,53.1-18.154l1.45-.87a23.116,23.116,0,0,0-2.958-4.495ZM53.418-24.3A22.323,22.323,0,0,1,56.4-19.749l1.45-.841a22.164,22.164,0,0,0-3.016-4.5ZM73.4,1.508a15.056,15.056,0,0,1-.116-2.523V-8.207a6.756,6.756,0,0,0-.116-1.479,8.108,8.108,0,0,0,.841.435,60.187,60.187,0,0,1,9.57,5.075L84.767-6.09a63.217,63.217,0,0,0-10.614-5.046,32,32,0,0,0,6.728-6,4.964,4.964,0,0,1,.783-.783L80.591-19.2a3.088,3.088,0,0,1-1.276.2h-6.09v-2.668a9.01,9.01,0,0,1,.145-1.914H71.05a11.719,11.719,0,0,1,.116,1.972v2.61H65.772a14.712,14.712,0,0,1-2.813-.2v2.175a24.241,24.241,0,0,1,2.813-.116L76.85-17.2c.435,0,.9-.029,1.653-.087a32.488,32.488,0,0,1-9.744,7.163,39.4,39.4,0,0,1-8.381,2.987A6.091,6.091,0,0,1,61.451-5.22a38.383,38.383,0,0,0,9.8-4.234,1.19,1.19,0,0,0-.029.319V-.957a14.628,14.628,0,0,1-.174,2.465Zm39.73-3.074a72.121,72.121,0,0,0-9.657-8.7,35.069,35.069,0,0,0,4.785-8.12,5.413,5.413,0,0,1,.812-1.421l-1.218-1.247a5.407,5.407,0,0,1-1.856.232l-10.353.116h-.754a13.629,13.629,0,0,1-2.291-.145l.058,2.349a19.513,19.513,0,0,1,2.987-.232l9.686-.145a4.926,4.926,0,0,0,.7-.029.614.614,0,0,1-.087.2c-.058.145-.087.174-.145.348A31.432,31.432,0,0,1,95.439-5.278a23.344,23.344,0,0,1-5.887,3.335A6.454,6.454,0,0,1,90.973-.029a37.344,37.344,0,0,0,5.684-3.48A31.48,31.48,0,0,0,102.2-8.7a53.938,53.938,0,0,1,9.28,8.961Zm15.66-9.454h-6.061a19.964,19.964,0,0,1-2.494-.116,25.661,25.661,0,0,1,.145,2.581v7.8a23.483,23.483,0,0,1-.174,2.871h2.088V.174h16.182V2.117h2.117a21.815,21.815,0,0,1-.174-2.871v-7.8a18.469,18.469,0,0,1,.145-2.581,20.471,20.471,0,0,1-2.523.116h-7.308v-6.119h8.613a20.9,20.9,0,0,1,2.929.174v-2.088a19.942,19.942,0,0,1-2.958.174h-8.584v-2.436a15.617,15.617,0,0,1,.2-2.784h-2.349a15.617,15.617,0,0,1,.2,2.784Zm-6.5,1.74H138.5V-1.6H122.293Zm26.651-11.281a15.691,15.691,0,0,1,.087,1.711c.145,7.134.551,10.846,1.566,13.6.986,2.784,2.494,4.408,4.118,4.408,2.059,0,3.393-1.943,4.814-7.018a9.27,9.27,0,0,1-1.711-1.653,20.864,20.864,0,0,1-1.508,4.959c-.435.957-.928,1.45-1.45,1.45-1.1,0-2.291-2-2.929-4.959a49.662,49.662,0,0,1-.754-9.019,21.021,21.021,0,0,1,.2-3.451ZM163.618-18.1A25.612,25.612,0,0,1,169.65-3.8l2.059-.841a27.767,27.767,0,0,0-2.175-7.743,25.172,25.172,0,0,0-4.147-6.612Z" transform="translate(60.867 111.725)" fill="#1d1d1f"/>
        <path id="パス_1181" data-name="パス 1181" d="M-83.9,0H-96.624V-28.069h13.635q5.161.076,7.313,2.99a7.113,7.113,0,0,1,1.295,4.285,6.265,6.265,0,0,1-1.295,4.132,6.684,6.684,0,0,1-2.133,1.6,6.258,6.258,0,0,1,3.247,2.476,7.419,7.419,0,0,1,1.095,4.113A8.174,8.174,0,0,1-74.725-4a7.756,7.756,0,0,1-2,2.209,7.8,7.8,0,0,1-3.19,1.409A19.663,19.663,0,0,1-83.9,0Zm-.133-12.359h-6.989v7.484h6.894a6.767,6.767,0,0,0,2.875-.5,3.525,3.525,0,0,0,1.866-3.5A3.01,3.01,0,0,0-81.2-11.883,7.248,7.248,0,0,0-84.037-12.359Zm2.914-5.351a2.626,2.626,0,0,0,1.143-2.457,2.511,2.511,0,0,0-1.523-2.59,10.782,10.782,0,0,0-3.352-.438h-6.17v6.189h6.894A5.737,5.737,0,0,0-81.123-17.71Zm29.174,6.894V-28.069h5.96v17.253a14.451,14.451,0,0,1-1.39,6.97q-2.59,4.57-9.883,4.57t-9.9-4.57a14.451,14.451,0,0,1-1.39-6.97V-28.069h5.96v17.253a9.743,9.743,0,0,0,.686,4.228q1.066,2.361,4.646,2.361,3.561,0,4.627-2.361A9.743,9.743,0,0,0-51.949-10.816ZM-30.2-4.056a10.329,10.329,0,0,0,3.371-.457A3.257,3.257,0,0,0-24.375-7.77a2.4,2.4,0,0,0-1.219-2.152,13.106,13.106,0,0,0-3.828-1.314l-2.971-.667a18.772,18.772,0,0,1-6.056-2.152Q-41.285-16-41.285-20.128a8.112,8.112,0,0,1,2.742-6.265q2.742-2.495,8.055-2.495a12.247,12.247,0,0,1,7.57,2.352,8.4,8.4,0,0,1,3.285,6.827H-25.27a4.027,4.027,0,0,0-2.209-3.6,7.408,7.408,0,0,0-3.409-.7,6.364,6.364,0,0,0-3.618.914,2.911,2.911,0,0,0-1.352,2.552A2.415,2.415,0,0,0-34.525-18.3a16.317,16.317,0,0,0,3.656,1.162l4.837,1.162a12.505,12.505,0,0,1,4.8,2.038,6.863,6.863,0,0,1,2.514,5.732,8.089,8.089,0,0,1-2.942,6.389Q-24.6.724-29.974.724q-5.484,0-8.626-2.5a8.321,8.321,0,0,1-3.142-6.884h5.6A5.764,5.764,0,0,0-35.1-5.789Q-33.668-4.056-30.2-4.056Zm15.368-24.013h5.827V0h-5.827ZM19.157,0H13.292L1.828-19.938V0H-3.637V-28.069H2.514l11.178,19.6v-19.6h5.465Zm25-12.264H30.526v7.217H46.065V0H24.794V-28.069H45.379v4.97H30.526v5.96H44.161ZM60.823-4.056a10.329,10.329,0,0,0,3.371-.457A3.257,3.257,0,0,0,66.65-7.77a2.4,2.4,0,0,0-1.219-2.152A13.106,13.106,0,0,0,61.6-11.235L58.633-11.9a18.772,18.772,0,0,1-6.056-2.152Q49.74-16,49.74-20.128a8.112,8.112,0,0,1,2.742-6.265q2.742-2.495,8.055-2.495a12.247,12.247,0,0,1,7.57,2.352,8.4,8.4,0,0,1,3.285,6.827H65.755a4.027,4.027,0,0,0-2.209-3.6,7.408,7.408,0,0,0-3.409-.7,6.364,6.364,0,0,0-3.618.914,2.911,2.911,0,0,0-1.352,2.552A2.415,2.415,0,0,0,56.5-18.3a16.317,16.317,0,0,0,3.656,1.162l4.837,1.162a12.505,12.505,0,0,1,4.8,2.038,6.863,6.863,0,0,1,2.514,5.732,8.089,8.089,0,0,1-2.942,6.389Q66.422.724,61.052.724q-5.484,0-8.626-2.5a8.321,8.321,0,0,1-3.142-6.884h5.6a5.764,5.764,0,0,0,1.047,2.875Q57.357-4.056,60.823-4.056Zm26.013,0a10.329,10.329,0,0,0,3.371-.457A3.257,3.257,0,0,0,92.663-7.77a2.4,2.4,0,0,0-1.219-2.152,13.106,13.106,0,0,0-3.828-1.314L84.646-11.9a18.772,18.772,0,0,1-6.056-2.152Q75.753-16,75.753-20.128A8.112,8.112,0,0,1,78.5-26.394q2.742-2.495,8.055-2.495a12.247,12.247,0,0,1,7.57,2.352A8.4,8.4,0,0,1,97.4-19.709H91.768a4.027,4.027,0,0,0-2.209-3.6,7.408,7.408,0,0,0-3.409-.7,6.364,6.364,0,0,0-3.618.914,2.911,2.911,0,0,0-1.352,2.552A2.415,2.415,0,0,0,82.513-18.3a16.317,16.317,0,0,0,3.656,1.162l4.837,1.162a12.505,12.505,0,0,1,4.8,2.038,6.863,6.863,0,0,1,2.514,5.732,8.089,8.089,0,0,1-2.942,6.389Q92.435.724,87.064.724q-5.484,0-8.626-2.5A8.321,8.321,0,0,1,75.3-8.665h5.6a5.764,5.764,0,0,0,1.047,2.875Q83.37-4.056,86.836-4.056Z" transform="translate(150.49 171.565)" fill="none" stroke="#707070" stroke-width="1" opacity="0.4"/>
        <g id="グループ_2205" data-name="グループ 2205" transform="translate(132.708 24.51)">
          <path id="パス_1092" data-name="パス 1092" d="M795.688,433.055V420.63a.847.847,0,0,0,0-.909v-6.745a3.333,3.333,0,0,0-3.329-3.33h-5.311v-2.46a8.692,8.692,0,0,0-17.383,0v2.46h-5.311a3.334,3.334,0,0,0-3.33,3.33v20.079a3.334,3.334,0,0,0,3.33,3.329h28.005A3.333,3.333,0,0,0,795.688,433.055Zm-23.963-25.869a6.632,6.632,0,0,1,13.263,0v2.46H771.725Zm22.061,25.869a1.428,1.428,0,0,1-1.427,1.427H764.354a1.428,1.428,0,0,1-1.427-1.427V421.126H774.3v2.022a3.333,3.333,0,0,0,3.329,3.329h.99a3.333,3.333,0,0,0,3.33-3.329v-2.022h11.836ZM776.2,423.148v-4.36a1.427,1.427,0,0,1,1.426-1.426h.99a1.427,1.427,0,0,1,1.427,1.426v4.36a1.428,1.428,0,0,1-1.427,1.426h-.99A1.428,1.428,0,0,1,776.2,423.148Zm17.583-3.924H781.95v-.436a3.333,3.333,0,0,0-3.33-3.329h-.99a3.333,3.333,0,0,0-3.329,3.329v.436H762.927v-6.248a1.428,1.428,0,0,1,1.427-1.427h28.005a1.428,1.428,0,0,1,1.427,1.427Z" transform="translate(-761.024 -398.494)"/>
        </g>
      </g>
    </g>
  </g>
</svg>
