<svg xmlns="http://www.w3.org/2000/svg" xmlns:xlink="http://www.w3.org/1999/xlink" width="315" height="194.412" viewBox="0 0 315 194.412">
  <defs>
    <filter id="ログインパネル" x="0" y="0" width="315" height="194.412" filterUnits="userSpaceOnUse">
      <feOffset dy="1" input="SourceAlpha"/>
      <feGaussianBlur stdDeviation="2.5" result="blur"/>
      <feFlood flood-opacity="0.2"/>
      <feComposite operator="in" in2="blur"/>
      <feComposite in="SourceGraphic"/>
    </filter>
  </defs>
  <g id="コンポーネント_4_2" data-name="コンポーネント 4 – 2" transform="translate(7.5 6.5)">
    <g id="グループ_2502" data-name="グループ 2502" transform="translate(0)">
      <g id="グループ_2497" data-name="グループ 2497">
        <g transform="matrix(1, 0, 0, 1, -7.5, -6.5)" filter="url(#ログインパネル)">
          <rect id="ログインパネル-2" data-name="ログインパネル" width="300" height="179.412" rx="10" transform="translate(7.5 6.5)" fill="#fff"/>
        </g>
        <path id="パス_1178" data-name="パス 1178" d="M29.708,6.193V4.134a10.289,10.289,0,0,1,.174-2.378h-2.2a14.492,14.492,0,0,1,.174,2.378V6.193H21.443a20.568,20.568,0,0,1-3.19-.2V8.078a27.491,27.491,0,0,1,3.19-.174h6.409v5.22H19.79a20.819,20.819,0,0,1-3.19-.2v2.088a27.858,27.858,0,0,1,3.19-.174h7.279a30.338,30.338,0,0,1-11.31,9.889,7.468,7.468,0,0,1,1.3,1.653,31.469,31.469,0,0,0,6.7-5.1,24.837,24.837,0,0,0,4.2-5.365c-.087,1.74-.116,2.233-.116,3.132V25.3a16.013,16.013,0,0,1-.2,2.871h2.262a16.228,16.228,0,0,1-.2-2.871V18.982c0-.725-.029-1.45-.116-3.132a24.564,24.564,0,0,0,4.669,5.887,30.808,30.808,0,0,0,6.728,4.814,7.76,7.76,0,0,1,1.276-1.8,28.477,28.477,0,0,1-11.774-9.918h7.888a24.515,24.515,0,0,1,3.248.174V12.921a18.333,18.333,0,0,1-3.248.2H29.708V7.9h6.931a23.737,23.737,0,0,1,3.219.174V5.99a17.7,17.7,0,0,1-3.248.2Zm26.941,8.236v-7.6H64.1a22.8,22.8,0,0,1,3.161.174V4.975a16.338,16.338,0,0,1-3.219.2H56.649V4.221a10.874,10.874,0,0,1,.174-2.407H54.677a14.865,14.865,0,0,1,.174,2.407v.957H47.978a20.674,20.674,0,0,1-3.161-.2v2.03a26.327,26.327,0,0,1,3.1-.174h6.931v7.6h-8.41a19.929,19.929,0,0,1-3.161-.2v2.059a29.394,29.394,0,0,1,3.19-.174h7.569A25.942,25.942,0,0,1,51.081,19.5a30.171,30.171,0,0,1-8.062,5.655,7.282,7.282,0,0,1,1.305,1.682A33.439,33.439,0,0,0,49.515,23.3a23.5,23.5,0,0,0,5.452-6.235c-.087,1.74-.116,2.233-.116,3.1v5.191a15.747,15.747,0,0,1-.2,2.813h2.2a15.534,15.534,0,0,1-.2-2.813V20.171c0-.754-.029-1.537-.116-3.132a26.269,26.269,0,0,0,4.089,4.872,31.612,31.612,0,0,0,7.308,4.93,8.237,8.237,0,0,1,1.247-1.8,26.863,26.863,0,0,1-7.83-4.9,29.556,29.556,0,0,1-3.828-4.031h8.062a24.515,24.515,0,0,1,3.248.174V14.226a15.611,15.611,0,0,1-3.19.2H61.347a43.05,43.05,0,0,0,3.219-5.916l-1.8-.725a28.421,28.421,0,0,1-3.451,6.641ZM47.2,8.513a27.562,27.562,0,0,1,2.813,5.452l1.624-.841a35.385,35.385,0,0,0-2.871-5.365ZM91.681,3.206a19.53,19.53,0,0,1-2.146.087H76.253a17.32,17.32,0,0,1-3.045-.174V5.091A19.359,19.359,0,0,1,76.2,4.946H89.622a28.274,28.274,0,0,1-6.177,4.118c-1.392-.87-2.378-1.421-4.93-2.755L77.326,7.585a43.253,43.253,0,0,1,8,4.93H73.73a21.762,21.762,0,0,1-3.219-.174v2.088a21.8,21.8,0,0,1,2.987-.174h8.99V25.217c0,.638-.29.841-1.276.841a24.45,24.45,0,0,1-4.06-.348,7.263,7.263,0,0,1,.464,2c.986.087,2.523.145,3.422.145,2.7,0,3.393-.493,3.393-2.349V14.255h8.816a19.694,19.694,0,0,1-4.64,4.2,7.152,7.152,0,0,1,1.508,1.189,23.383,23.383,0,0,0,5.075-5.075,10.774,10.774,0,0,1,.783-.957L94.842,12.37a17.3,17.3,0,0,1-3.074.145H86.519l.754-.754c-1.1-.841-1.45-1.073-2.262-1.653A36.67,36.67,0,0,0,92.87,4.569Zm6.148.377a18.773,18.773,0,0,1,4.234,3.857l1.276-1.334a21.039,21.039,0,0,0-4.263-3.77Zm-1.073,7.192a20.583,20.583,0,0,1,4.611,3.712l1.16-1.508a27.054,27.054,0,0,0-4.64-3.509Zm4.524,6.96a33.188,33.188,0,0,1-2.755,6.641,8.049,8.049,0,0,1-1.45,2.059l1.653,1.45c.174-.348.29-.58.667-1.247a41.176,41.176,0,0,0,3.393-7.772Zm9.077,3.074c.928,0,1.682.029,2.581.087-.058-.667-.087-1.6-.087-2.813V5.758a25.932,25.932,0,0,1,.116-2.9c-.841.058-1.421.087-2.349.087h-3.944a22.931,22.931,0,0,1-2.32-.087c.058.7.087,1.6.087,2.61V17.88a25.572,25.572,0,0,1-.087,3.016c.609-.058,1.392-.087,2.407-.087Zm-4.234-16.3h5.046v3.8h-5.046Zm0,5.307h5.046v3.857h-5.046Zm0,5.365h5.046v4.06h-5.046Zm3.277,7.395a22.463,22.463,0,0,0,3.828,5.191,6.039,6.039,0,0,1,1.392-1.276,14.323,14.323,0,0,1-3.77-4.727Zm8.091-1.421a19.129,19.129,0,0,1-.145-2.987V6.744a16.224,16.224,0,0,1,.174-2.987H115.4a19.673,19.673,0,0,1,.174,2.958V18.17a19.315,19.315,0,0,1-.174,2.987Zm-11.339.551a11.472,11.472,0,0,1-3.828,5.046,6.932,6.932,0,0,1,1.363,1.276,16.053,16.053,0,0,0,4-5.539ZM122.16,5.787a24.17,24.17,0,0,1,.174-3.422h-2.146a28.484,28.484,0,0,1,.174,3.422V25.13c0,.667-.174.754-1.479.754a23.121,23.121,0,0,1-2.9-.232,7.485,7.485,0,0,1,.493,1.856c.667.058,2.03.087,2.581.087,2.494,0,3.1-.435,3.1-2.2Zm28.188,22.562a18.337,18.337,0,0,1-4.408-6,17.585,17.585,0,0,1-1.566-7.366,17.585,17.585,0,0,1,1.566-7.366,18.337,18.337,0,0,1,4.408-6h-2.581a19.52,19.52,0,0,0-4.031,6.235,18.187,18.187,0,0,0-1.392,7.134,18.187,18.187,0,0,0,1.392,7.134,19.52,19.52,0,0,0,4.031,6.235ZM157.453,6.28a12.833,12.833,0,0,1,.145-2.436H155.22a16.092,16.092,0,0,1,.116,2.407V19.62c0,1.218.029,1.8.058,2.262a3.851,3.851,0,0,0,1.189,2.784c1.015.841,2.929,1.189,6.351,1.189,2,0,5.829-.2,7.685-.406l1.392-.145.377-.029c.435-.058.522-.058.957-.087l-.174-2.32a13.971,13.971,0,0,1-2.871.58,57.37,57.37,0,0,1-6.641.464,30.242,30.242,0,0,1-3.422-.174,3.481,3.481,0,0,1-2.2-.754c-.493-.493-.609-1.16-.609-3.19v-.319l.029-.174V15.067a45.018,45.018,0,0,0,13.833-4.9c.667-.348.812-.406,1.247-.609l-1.479-1.972c-1.943,1.914-9.019,4.785-13.6,5.568Zm13.079-3.161a21.477,21.477,0,0,1,2.987,4.611l1.45-.87a22.015,22.015,0,0,0-2.987-4.495Zm3.306-1.566A21.725,21.725,0,0,1,176.8,6.106l1.479-.812A25.077,25.077,0,0,0,175.259.77Zm8.816,4a31.3,31.3,0,0,1,7.134,3.857l1.189-1.943a45.175,45.175,0,0,0-7.192-3.654Zm-2.291,6.96a32.016,32.016,0,0,1,7.395,3.973l1.131-1.972a46.393,46.393,0,0,0-7.366-3.77Zm.986,13.862a8.878,8.878,0,0,1,1.131-.29c10.44-1.972,16.414-6.525,20.068-15.312a8.925,8.925,0,0,1-1.8-1.566A20.729,20.729,0,0,1,188.57,22.2a26.331,26.331,0,0,1-7.627,1.8h-.174ZM197.531,3.235a23.449,23.449,0,0,1,2.958,4.611l1.45-.87a23.116,23.116,0,0,0-2.958-4.495ZM200.808,1.7A22.323,22.323,0,0,1,203.8,6.251l1.45-.841a22.164,22.164,0,0,0-3.016-4.5Zm21.576,24.418v1.45h2a9.146,9.146,0,0,1-.116-1.8V12.66c0-1.015,0-1.479.029-2.233-.522.029-1.044.058-1.972.058H211.538a14.432,14.432,0,0,1-2.523-.174v2a13.119,13.119,0,0,1,2.523-.116h10.846v5.046H212.205a14.432,14.432,0,0,1-2.523-.174V19.04a12.767,12.767,0,0,1,2.494-.116h10.208v5.452H211.248a14.9,14.9,0,0,1-2.523-.174v2.03a12.949,12.949,0,0,1,2.523-.116Zm11.6-19.053a32.023,32.023,0,0,1,6.9,5.684l1.508-1.8A37.779,37.779,0,0,0,235.405,5.5Zm.2,18.85a15.236,15.236,0,0,1,1.74-.464c4.843-1.1,7.83-2.291,10.817-4.321,3.828-2.639,6.525-6.032,8.845-11.078a5.809,5.809,0,0,1-1.769-1.711c-2.349,6.148-6.235,10.411-11.832,12.905a25.242,25.242,0,0,1-8.439,2.233Zm25.926,2.436a19.52,19.52,0,0,0,4.031-6.235,18.187,18.187,0,0,0,1.392-7.134,18.187,18.187,0,0,0-1.392-7.134,19.52,19.52,0,0,0-4.031-6.235h-2.581a18.046,18.046,0,0,1,4.408,6,17.585,17.585,0,0,1,1.566,7.366,17.585,17.585,0,0,1-1.566,7.366,18.046,18.046,0,0,1-4.408,6Z" transform="translate(0.001 84.571)" fill="#1d1d1f"/>
        <path id="パス_1179" data-name="パス 1179" d="M-56.205-23.1H-70.278v6.456h12.321v4.875H-70.278V0h-5.827V-28.031h19.9Zm20.528,12.283V-28.069h5.96v17.253a14.451,14.451,0,0,1-1.39,6.97Q-33.7.724-40.99.724t-9.9-4.57a14.451,14.451,0,0,1-1.39-6.97V-28.069h5.96v17.253a9.743,9.743,0,0,0,.686,4.228q1.066,2.361,4.646,2.361,3.561,0,4.627-2.361A9.743,9.743,0,0,0-35.677-10.816ZM-3.723-28.069v4.97h-8.4V0h-5.9V-23.1H-26.46v-4.97ZM16.31-10.816V-28.069h5.96v17.253a14.451,14.451,0,0,1-1.39,6.97Q18.291.724,11,.724t-9.9-4.57A14.451,14.451,0,0,1-.3-10.816V-28.069h5.96v17.253a9.743,9.743,0,0,0,.686,4.228Q7.417-4.228,11-4.228q3.561,0,4.627-2.361A9.743,9.743,0,0,0,16.31-10.816Zm23.48-.19H33.735V0H28V-28.069H41.771a12.827,12.827,0,0,1,4.542.724,7.1,7.1,0,0,1,2.695,1.961,8.691,8.691,0,0,1,1.447,2.361,7.7,7.7,0,0,1,.533,2.952,8.41,8.41,0,0,1-1.009,3.932,5.641,5.641,0,0,1-3.333,2.733A5.241,5.241,0,0,1,49.4-11.188,9.235,9.235,0,0,1,50.207-6.8v1.885A14.42,14.42,0,0,0,50.359-2.3,2.343,2.343,0,0,0,51.426-.7V0H44.97q-.267-.933-.381-1.5a13.822,13.822,0,0,1-.248-2.418L44.3-6.532q-.038-2.685-.981-3.58T39.79-11.007Zm3.561-5.1A3.127,3.127,0,0,0,45.1-19.271q0-2.552-1.695-3.428a6.405,6.405,0,0,0-2.856-.5H33.735v7.541h6.646A7.407,7.407,0,0,0,43.351-16.11Zm32.221,3.847H61.937v7.217H77.476V0H56.205V-28.069H76.791v4.97H61.937v5.96H75.572Z" transform="translate(150.078 170.411)" fill="none" stroke="#119e8e" stroke-width="1" opacity="0.4"/>
        <g id="グループ_2204" data-name="グループ 2204" transform="translate(128.431 24.51)">
          <path id="パス_1090" data-name="パス 1090" d="M725.908,404.519v12.092h24.775l7.359-5.544-7.3-6.548Zm24.014,9.818h-21.74v-7.545h21.687l4.6,4.122Z" transform="translate(-715.434 -404.519)" fill="#119e8e"/>
          <path id="パス_1091" data-name="パス 1091" d="M735.138,427.851v10.467h2.274l0-10.468h12.071V415.759H724.709l-7.36,5.544,7.3,6.548Zm-9.668-9.818h21.74v7.545H725.524l-4.6-4.122Z" transform="translate(-717.349 -402.004)" fill="#119e8e"/>
        </g>
      </g>
    </g>
  </g>
</svg>
