<svg xmlns="http://www.w3.org/2000/svg" xmlns:xlink="http://www.w3.org/1999/xlink" width="985" height="99" viewBox="0 0 985 99">
  <defs>
    <filter id="ログインパネル" x="0" y="0" width="985" height="99" filterUnits="userSpaceOnUse">
      <feOffset input="SourceAlpha"/>
      <feGaussianBlur stdDeviation="2.5" result="blur"/>
      <feFlood flood-opacity="0.161"/>
      <feComposite operator="in" in2="blur"/>
      <feComposite in="SourceGraphic"/>
    </filter>
  </defs>
  <g id="ホロスコープ_pc" data-name="ホロスコープ pc" transform="translate(7.5 7.5)">
    <g transform="matrix(1, 0, 0, 1, -7.5, -7.5)" filter="url(#ログインパネル)">
      <rect id="ログインパネル-2" data-name="ログインパネル" width="970" height="84" rx="10" transform="translate(7.5 7.5)" fill="#244691"/>
    </g>
    <path id="パス_1199" data-name="パス 1199" d="M18.368-25.344H14.592a13.946,13.946,0,0,1,.256,2.5v2.976H6.272a21.063,21.063,0,0,1-2.88-.192v3.36c.9-.064,1.92-.1,2.912-.1h8.544v.128c0,1.536,0,12.1-.032,13.6,0,.864-.352,1.184-1.184,1.184A21.845,21.845,0,0,1,9.984-2.24L10.272.928a47.86,47.86,0,0,0,4.832.256c2.08,0,3.008-.992,3.008-2.752V-16.8h8.064c.8,0,1.888,0,2.816.064v-3.3a28.315,28.315,0,0,1-2.848.16H18.112v-2.944A17.191,17.191,0,0,1,18.368-25.344ZM11.1-12.032,8.256-13.408A33.978,33.978,0,0,1,2.208-5.056L4.96-3.2A49.4,49.4,0,0,0,11.1-12.032ZM24.64-13.44l-2.752,1.5A57.981,57.981,0,0,1,27.2-3.392l2.944-1.632A66.739,66.739,0,0,0,24.64-13.44Zm11.744-8.832c.064.832.064,1.952.064,2.784V-3.776c0,1.28-.064,3.84-.1,4.128H39.84c-.032-.16-.032-.928-.032-1.792H56.384c-.032.9-.032,1.632-.064,1.792h3.488c0-.256-.064-3.008-.064-4.128V-19.488c0-.9,0-1.888.064-2.752-1.056.032-2.208.032-2.944.032H39.488C38.688-22.208,37.664-22.208,36.384-22.272Zm3.392,3.264H56.384V-4.64H39.776Zm50.3-2.528L88-23.072a9.706,9.706,0,0,1-2.784.32H73.344a34.237,34.237,0,0,1-3.488-.224v3.616c.512-.032,2.24-.192,3.488-.192H85.088A26.327,26.327,0,0,1,80-11.1,35.956,35.956,0,0,1,66.848-1.728L69.44.992A42.008,42.008,0,0,0,81.76-8.224,71.815,71.815,0,0,1,90.24,1.12l2.816-2.5A85.056,85.056,0,0,0,83.9-10.752a43.8,43.8,0,0,0,5.248-9.12A11.046,11.046,0,0,1,90.08-21.536Zm11.2-.736v3.552c.832-.064,2.464-.128,3.712-.128h14.944V-4.576H104.608c-1.376,0-2.784-.1-3.712-.16V-1.12c.928-.064,2.528-.128,3.84-.128H119.9c0,.672-.032,1.28-.032,1.728h3.648c-.064-.7-.128-2.272-.128-3.392V-19.456c0-.832.032-1.984.064-2.688-.576.032-1.7.064-2.56.064h-15.9C103.936-22.08,102.4-22.176,101.28-22.272Zm29.824,8V-10.3c1.088-.1,3.008-.16,4.768-.16H153.28c1.408,0,2.88.128,3.584.16v-3.968c-.8.064-2.048.192-3.584.192H135.872C134.144-14.08,132.16-14.208,131.1-14.272ZM183.84-23.2a2.022,2.022,0,0,1,1.984-2.016A2.049,2.049,0,0,1,187.84-23.2a2.022,2.022,0,0,1-2.016,1.984A1.994,1.994,0,0,1,183.84-23.2Zm-1.7,0a3.971,3.971,0,0,0,.1.864,10.864,10.864,0,0,1-1.376.064h-15.52c-1.056,0-2.56-.128-3.456-.224v3.584c.832-.064,2.112-.128,3.456-.128h15.744a23.187,23.187,0,0,1-4,9.824c-2.656,3.328-6.272,6.08-12.512,7.616l2.752,3.008a24.889,24.889,0,0,0,12.7-8.672c2.592-3.424,4.064-8.48,4.8-11.744.032-.192.1-.416.128-.608a3.972,3.972,0,0,0,.864.1,3.687,3.687,0,0,0,3.712-3.68,3.708,3.708,0,0,0-3.712-3.68A3.681,3.681,0,0,0,182.144-23.2Z" transform="translate(281.707 56)" fill="#fff"/>
    <path id="パス_1183" data-name="パス 1183" d="M828.69,400.345A18.706,18.706,0,1,0,847.4,419.051,18.728,18.728,0,0,0,828.69,400.345Zm0,23.328a4.622,4.622,0,1,1,4.622-4.622A4.628,4.628,0,0,1,828.69,423.673Zm4.262-10.224a7.016,7.016,0,0,0-3.05-1.336v-9.245a16.153,16.153,0,0,1,9.566,4.063Zm-5.477-1.335a7.006,7.006,0,0,0-3.054,1.34l-6.517-6.517a16.158,16.158,0,0,1,9.571-4.069Zm-4.7,3.121a7,7,0,0,0-1.079,3h-9.2a16.164,16.164,0,0,1,3.72-9.562Zm-.938,5.425a7.016,7.016,0,0,0,1.272,2.676l-6.516,6.516a16.16,16.16,0,0,1-4.062-9.191Zm3.059,4.32a6.99,6.99,0,0,0,2.612,1.012v9.244a16.152,16.152,0,0,1-9.178-3.689Zm5.039,1a7.016,7.016,0,0,0,2.6-1.029l6.56,6.559a16.163,16.163,0,0,1-9.16,3.718ZM834.3,423.3a6.992,6.992,0,0,0,1.25-2.664h9.3a16.16,16.16,0,0,1-4.033,9.183Zm1.38-5.091a7.006,7.006,0,0,0-1.079-2.978l6.563-6.563a16.166,16.166,0,0,1,3.724,9.541Z" transform="translate(-575.275 -375.346)" fill="#fff"/>
    <path id="HOROSCOPE" d="M3.242,1.008C-.484,1.008-3.4.123-5.424-1.623A11.445,11.445,0,0,1-9.071-9.258l-.06-.507,6.592-.641.081.454A6.419,6.419,0,0,0-.564-6.083,5.778,5.778,0,0,0,3.3-4.875,6,6,0,0,0,7.189-5.941,3.015,3.015,0,0,0,8.426-8.32a2.1,2.1,0,0,0-.479-1.408,4.328,4.328,0,0,0-1.864-1.09c-.656-.227-2.2-.643-4.582-1.236-3.209-.8-5.412-1.759-6.736-2.945a7.963,7.963,0,0,1-2.8-6.134A7.885,7.885,0,0,1-6.718-25.5a8.29,8.29,0,0,1,3.8-3.087A14.882,14.882,0,0,1,2.91-29.621c3.7,0,6.541.836,8.443,2.486a8.858,8.858,0,0,1,3.033,6.669l.017.5-6.718.3-.073-.436A4.462,4.462,0,0,0,6.2-22.977a5.392,5.392,0,0,0-3.352-.859A6.161,6.161,0,0,0-.8-22.9a1.58,1.58,0,0,0-.712,1.373,1.708,1.708,0,0,0,.681,1.356c.457.384,1.714,1.009,5.106,1.81a28.627,28.627,0,0,1,6.358,2.1,8.572,8.572,0,0,1,3.356,3.089A9.038,9.038,0,0,1,15.207-8.34a8.963,8.963,0,0,1-1.445,4.878,8.721,8.721,0,0,1-4.1,3.386A16.78,16.78,0,0,1,3.242,1.008ZM-8.01-8.869A10.236,10.236,0,0,0-4.771-2.381C-2.933-.8-.237.008,3.242.008A15.806,15.806,0,0,0,9.28-1a7.74,7.74,0,0,0,3.638-3A7.978,7.978,0,0,0,14.207-8.34a8.063,8.063,0,0,0-1.068-4.3,7.586,7.586,0,0,0-2.972-2.731,27.724,27.724,0,0,0-6.122-2.016C1.129-18.073-.677-18.733-1.474-19.4a2.688,2.688,0,0,1-1.038-2.121,2.571,2.571,0,0,1,1.125-2.182,7.113,7.113,0,0,1,4.238-1.13,6.323,6.323,0,0,1,3.973,1.075,5.13,5.13,0,0,1,1.691,3.047l4.844-.213A7.67,7.67,0,0,0,10.7-26.38c-1.714-1.487-4.335-2.241-7.788-2.241a13.9,13.9,0,0,0-5.438.956A7.309,7.309,0,0,0-5.88-24.952a6.9,6.9,0,0,0-1.159,3.819,6.913,6.913,0,0,0,2.47,5.389c1.183,1.059,3.306,1.974,6.31,2.719,2.446.608,3.974,1.021,4.672,1.263a5.182,5.182,0,0,1,2.3,1.392A3.1,3.1,0,0,1,9.426-8.32a4.008,4.008,0,0,1-1.6,3.148A6.938,6.938,0,0,1,3.3-3.875,6.738,6.738,0,0,1-1.214-5.323a7.073,7.073,0,0,1-2.138-4ZM61.211.988C56.832.988,53.294-.374,50.7-3.061s-3.91-6.41-3.91-11.08a18.783,18.783,0,0,1,1.351-7.545A14.04,14.04,0,0,1,50.9-25.759a11.694,11.694,0,0,1,3.867-2.691,16.284,16.284,0,0,1,6.364-1.171,13.982,13.982,0,0,1,10.486,4.078c2.614,2.7,3.939,6.492,3.939,11.266,0,4.735-1.315,8.5-3.909,11.2A13.878,13.878,0,0,1,61.211.988Zm-.078-29.609a15.3,15.3,0,0,0-5.977,1.093,10.7,10.7,0,0,0-3.538,2.466,13.04,13.04,0,0,0-2.568,3.781,17.806,17.806,0,0,0-1.265,7.14c0,4.4,1.221,7.9,3.629,10.385s5.7,3.744,9.8,3.744a12.917,12.917,0,0,0,9.718-3.763c2.409-2.5,3.63-6.036,3.63-10.5,0-4.505-1.231-8.062-3.658-10.57A13.021,13.021,0,0,0,61.133-28.621ZM31.6.988a12.851,12.851,0,0,1-9.739-4.054c-2.527-2.681-3.808-6.381-3.808-11,0-4.874,1.287-8.725,3.826-11.445a13.193,13.193,0,0,1,10.073-4.114,12.444,12.444,0,0,1,8.879,3.242,11.83,11.83,0,0,1,3.067,5.5l.143.5L37.32-18.771l-.112-.493A5.609,5.609,0,0,0,35.264-22.5a5.611,5.611,0,0,0-3.6-1.18,5.986,5.986,0,0,0-4.788,2.113c-1.234,1.423-1.86,3.8-1.86,7.075,0,3.481.617,5.975,1.835,7.411a5.816,5.816,0,0,0,4.7,2.128,5.261,5.261,0,0,0,3.634-1.34A8.074,8.074,0,0,0,37.4-10.639l.121-.529,6.581,2.087-.128.464a13.112,13.112,0,0,1-4.467,7.229A12.768,12.768,0,0,1,31.6.988Zm.352-29.609a12.231,12.231,0,0,0-9.341,3.8c-2.36,2.529-3.557,6.15-3.557,10.762,0,4.352,1.19,7.822,3.536,10.311A11.887,11.887,0,0,0,31.6-.012a11.8,11.8,0,0,0,7.305-2.174,11.867,11.867,0,0,0,3.974-6.235L38.248-9.89a8.611,8.611,0,0,1-2.409,4.347,6.3,6.3,0,0,1-4.3,1.59,6.849,6.849,0,0,1-5.46-2.481c-1.375-1.622-2.072-4.333-2.072-8.058,0-3.519.708-6.12,2.1-7.73A7.023,7.023,0,0,1,31.66-24.68a6.586,6.586,0,0,1,4.228,1.4,6.461,6.461,0,0,1,2.167,3.306l4.731-1.13a10.467,10.467,0,0,0-2.641-4.546A11.479,11.479,0,0,0,31.953-28.621ZM-25.469.988c-4.379,0-7.917-1.362-10.516-4.049s-3.91-6.41-3.91-11.08a18.783,18.783,0,0,1,1.351-7.545,14.04,14.04,0,0,1,2.765-4.073,11.694,11.694,0,0,1,3.867-2.691,16.284,16.284,0,0,1,6.365-1.171,13.982,13.982,0,0,1,10.486,4.078c2.614,2.7,3.939,6.492,3.939,11.266,0,4.735-1.315,8.5-3.909,11.2A13.878,13.878,0,0,1-25.469.988Zm-.078-29.609a15.3,15.3,0,0,0-5.977,1.093,10.7,10.7,0,0,0-3.538,2.466,13.04,13.04,0,0,0-2.568,3.781,17.806,17.806,0,0,0-1.265,7.14c0,4.4,1.221,7.9,3.629,10.385s5.7,3.744,9.8,3.744a12.917,12.917,0,0,0,9.718-3.763c2.409-2.5,3.63-6.036,3.63-10.5,0-4.505-1.231-8.062-3.658-10.57A13.021,13.021,0,0,0-25.547-28.621ZM-85.469.988c-4.379,0-7.916-1.362-10.516-4.049s-3.91-6.41-3.91-11.08a18.783,18.783,0,0,1,1.351-7.545,14.04,14.04,0,0,1,2.765-4.073,11.694,11.694,0,0,1,3.867-2.691,16.284,16.284,0,0,1,6.365-1.171,13.982,13.982,0,0,1,10.486,4.078c2.614,2.7,3.939,6.492,3.939,11.266,0,4.735-1.315,8.5-3.909,11.2A13.878,13.878,0,0,1-85.469.988Zm-.078-29.609a15.3,15.3,0,0,0-5.977,1.093,10.7,10.7,0,0,0-3.538,2.466,13.04,13.04,0,0,0-2.568,3.781,17.806,17.806,0,0,0-1.265,7.14c0,4.4,1.221,7.9,3.629,10.385s5.7,3.744,9.8,3.744a12.917,12.917,0,0,0,9.718-3.763c2.409-2.5,3.63-6.036,3.63-10.5,0-4.505-1.231-8.062-3.658-10.57A13.021,13.021,0,0,0-85.547-28.621ZM128.527.5H105.75V-29.133h22.23v5.844H112.531v5.348h14.375v5.824H112.531v6.793h16ZM106.75-.5h20.777V-4.324h-16v-8.793h14.375v-3.824H111.531v-7.348H126.98v-3.844H106.75Zm-20.9,1H79.07V-29.133h9.777a33.541,33.541,0,0,1,7,.447,8.027,8.027,0,0,1,4.388,2.981A9.412,9.412,0,0,1,102-19.824a9.873,9.873,0,0,1-1.016,4.669,8.381,8.381,0,0,1-2.587,3,8.914,8.914,0,0,1-3.177,1.435l-.009,0a33.621,33.621,0,0,1-6.093.42h-3.27ZM80.07-.5h4.781V-11.3h4.27a32.749,32.749,0,0,0,5.894-.4,7.926,7.926,0,0,0,2.815-1.278,7.393,7.393,0,0,0,2.276-2.647,8.9,8.9,0,0,0,.9-4.2A8.444,8.444,0,0,0,99.447-25.1,7.052,7.052,0,0,0,95.6-27.719a33.556,33.556,0,0,0-6.748-.413H80.07ZM-40.445.5h-8.083l-4.328-6.452a40.445,40.445,0,0,0-3-4.144,3.966,3.966,0,0,0-1.54-1.063,9.149,9.149,0,0,0-2.745-.294h-.672V.5H-67.59V-29.133h12.668a21.052,21.052,0,0,1,6.844.8A7.1,7.1,0,0,1-44.5-25.385a8.777,8.777,0,0,1,1.328,4.779A8.161,8.161,0,0,1-45.2-14.948a8.891,8.891,0,0,1-4.7,2.568,12.926,12.926,0,0,1,2.124,1.805,32.729,32.729,0,0,1,3.35,4.726ZM-48-.5h5.745l-3.017-4.821A32.393,32.393,0,0,0-48.5-9.893,13.054,13.054,0,0,0-51.482-12.2l-1.236-.721,1.417-.205a8.662,8.662,0,0,0,5.365-2.487,7.193,7.193,0,0,0,1.766-4.987,7.794,7.794,0,0,0-1.172-4.244,6.12,6.12,0,0,0-3.082-2.543,20.5,20.5,0,0,0-6.5-.74H-66.59V-.5h4.781V-12.453h1.672a9.87,9.87,0,0,1,3.076.35,4.948,4.948,0,0,1,1.936,1.32,40.2,40.2,0,0,1,3.1,4.275Zm-55.7,1h-6.781V-12.02h-10.328V.5h-6.781V-29.133h6.781v11.27h10.328v-11.27h6.781Zm-5.781-1h4.781V-28.133h-4.781v11.27h-12.328v-11.27h-4.781V-.5h4.781V-13.02h12.328ZM61.191-3.953a7.831,7.831,0,0,1-6.076-2.676c-1.575-1.76-2.374-4.353-2.374-7.706,0-3.405.779-6,2.314-7.726a7.863,7.863,0,0,1,6.135-2.618A7.814,7.814,0,0,1,67.3-22.09c1.516,1.7,2.285,4.284,2.285,7.676,0,3.431-.788,6.056-2.343,7.8A7.767,7.767,0,0,1,61.191-3.953Zm0-19.727A6.815,6.815,0,0,0,55.8-21.4c-1.367,1.532-2.061,3.907-2.061,7.06,0,3.1.713,5.469,2.119,7.04a6.782,6.782,0,0,0,5.331,2.343,6.719,6.719,0,0,0,5.3-2.323c1.387-1.558,2.09-3.96,2.09-7.138,0-3.14-.684-5.5-2.031-7.011A6.767,6.767,0,0,0,61.191-23.68ZM-25.488-3.953a7.831,7.831,0,0,1-6.076-2.676c-1.575-1.76-2.374-4.353-2.374-7.706,0-3.405.779-6,2.314-7.726a7.863,7.863,0,0,1,6.135-2.618,7.814,7.814,0,0,1,6.106,2.589c1.516,1.7,2.285,4.284,2.285,7.676,0,3.431-.788,6.056-2.343,7.8A7.767,7.767,0,0,1-25.488-3.953Zm0-19.727A6.815,6.815,0,0,0-30.877-21.4c-1.367,1.532-2.061,3.907-2.061,7.06,0,3.1.713,5.469,2.119,7.04a6.782,6.782,0,0,0,5.331,2.343,6.719,6.719,0,0,0,5.3-2.323c1.387-1.558,2.09-3.96,2.09-7.138,0-3.14-.684-5.5-2.031-7.011A6.767,6.767,0,0,0-25.488-23.68Zm-60,19.727a7.831,7.831,0,0,1-6.076-2.676c-1.575-1.76-2.373-4.353-2.373-7.706,0-3.405.779-6,2.314-7.726a7.863,7.863,0,0,1,6.135-2.618,7.814,7.814,0,0,1,6.106,2.589c1.516,1.7,2.285,4.284,2.285,7.676,0,3.431-.788,6.056-2.343,7.8A7.767,7.767,0,0,1-85.488-3.953Zm0-19.727A6.815,6.815,0,0,0-90.877-21.4c-1.367,1.532-2.061,3.907-2.061,7.06,0,3.1.713,5.469,2.119,7.04a6.782,6.782,0,0,0,5.331,2.343,6.719,6.719,0,0,0,5.3-2.323c1.387-1.558,2.09-3.96,2.09-7.138,0-3.14-.684-5.5-2.031-7.011A6.767,6.767,0,0,0-85.488-23.68Zm174,8.516H84.852v-9.125h3.293a27.8,27.8,0,0,1,4.253.2A4.5,4.5,0,0,1,95-22.659a4.2,4.2,0,0,1,1.047,2.913,4.357,4.357,0,0,1-.742,2.509,4.3,4.3,0,0,1-2.038,1.59A15.132,15.132,0,0,1,88.516-15.164Zm-2.664-1h2.664a13.907,13.907,0,0,0,4.389-.415A3.278,3.278,0,0,0,94.48-17.8a3.331,3.331,0,0,0,.567-1.944,3.189,3.189,0,0,0-.789-2.243A3.48,3.48,0,0,0,92.216-23.1a27.609,27.609,0,0,0-4.071-.187H85.852Zm-142.883.141h-4.777v-8.266H-56.8c2.389,0,3.792.034,4.288.1l.013,0A4.041,4.041,0,0,1-50.023-22.9a3.931,3.931,0,0,1,.894,2.662A4.232,4.232,0,0,1-49.8-17.8a3.617,3.617,0,0,1-1.873,1.4A21.967,21.967,0,0,1-57.031-16.023Zm-3.777-1h3.777A20.535,20.535,0,0,0-52-17.348a2.6,2.6,0,0,0,1.369-1.019,3.259,3.259,0,0,0,.5-1.867,2.928,2.928,0,0,0-.649-2.006,3.029,3.029,0,0,0-1.875-.956c-.312-.042-1.285-.092-4.144-.092h-4.012Z" transform="translate(618.293 56)" fill="#fff" opacity="0.22"/>
  </g>
</svg>
