<svg xmlns="http://www.w3.org/2000/svg" xmlns:xlink="http://www.w3.org/1999/xlink" width="315" height="194" viewBox="0 0 315 194">
  <defs>
    <filter id="ログインパネル" x="0" y="0" width="315" height="194" filterUnits="userSpaceOnUse">
      <feOffset dy="1" input="SourceAlpha"/>
      <feGaussianBlur stdDeviation="2.5" result="blur"/>
      <feFlood flood-opacity="0.2"/>
      <feComposite operator="in" in2="blur"/>
      <feComposite in="SourceGraphic"/>
    </filter>
  </defs>
  <g id="コンポーネント_6_2" data-name="コンポーネント 6 – 2" transform="translate(7.5 6.5)">
    <g transform="matrix(1, 0, 0, 1, -7.5, -6.5)" filter="url(#ログインパネル)">
      <rect id="ログインパネル-2" data-name="ログインパネル" width="300" height="179" rx="10" transform="translate(7.5 6.5)" fill="#244691"/>
    </g>
    <path id="パス_1185" data-name="パス 1185" d="M85.523,14.609H95.664v2.125H85.523V36.313H83.086V16.734H73.07V14.609H83.086v-5.2h2.438Zm-6.312,6.766a39.3,39.3,0,0,1-4.641,12.5L72.43,32.7a32.518,32.518,0,0,0,4.453-12.047Zm9.953.219,2.234-.828a56.605,56.605,0,0,0,4.547,11.7l-2.328,1.25A85.531,85.531,0,0,1,89.164,21.594ZM100.43,34.813V11.922h16.7V34.813Zm14.234-2.156V14.078h-11.8V32.656Zm19.844-6.812a28.787,28.787,0,0,1-11.422,10.109l-1.406-1.844a28.094,28.094,0,0,0,10.453-8.984,32.368,32.368,0,0,0,4.688-11.531H123.383V11.453h16.594a42.937,42.937,0,0,1-4.219,12.25,71.876,71.876,0,0,1,7.453,10.75l-2.359,1.5A57.431,57.431,0,0,0,134.508,25.844Zm29.219,8.766H147.789V32.469h13.438V14.234H147.789V12.094h15.938Zm4.75-12.734h17.406V24.25H168.477Zm38.5-8q-.375,8.734-3.125,13.547-3.375,6.016-11.687,8.922l-1.344-1.922Q198.1,31.859,201.227,27q3.109-4.828,3.125-13.125H189.414V11.734h15.328a3.27,3.27,0,0,1-.219-1.25A3.436,3.436,0,0,1,205.7,7.828a3.5,3.5,0,0,1,2.406-.922,3.436,3.436,0,0,1,2.656,1.172,3.618,3.618,0,0,1-.25,5.078,3.5,3.5,0,0,1-2.406.922A3.123,3.123,0,0,1,206.977,13.875ZM208.1,8.281A2.147,2.147,0,0,0,206.445,9a2.18,2.18,0,0,0-.547,1.484,2.146,2.146,0,0,0,.719,1.656,2.109,2.109,0,0,0,1.484.563,2.147,2.147,0,0,0,1.656-.719,2.2,2.2,0,0,0,.547-1.5,2.181,2.181,0,0,0-2.2-2.2Z" transform="translate(8 78.34)" fill="#fff"/>
    <path id="パス_1184" data-name="パス 1184" d="M-123.913,0V-27.917h5.637v10.988h11.045V-27.917h5.637V0h-5.637V-12.207h-11.045V0Zm27-13.787a17.755,17.755,0,0,1,1.276-7.16,13.139,13.139,0,0,1,2.6-3.828,10.869,10.869,0,0,1,3.609-2.514,15.326,15.326,0,0,1,6.018-1.1,13.107,13.107,0,0,1,9.874,3.828q3.7,3.828,3.7,10.645,0,6.76-3.675,10.578A13.006,13.006,0,0,1-83.332.476q-6.227,0-9.9-3.8T-96.91-13.787Zm5.808-.19q0,4.742,2.19,7.189a7.135,7.135,0,0,0,5.561,2.447A7.074,7.074,0,0,0-77.819-6.77q2.161-2.428,2.161-7.284,0-4.8-2.1-7.16a7.12,7.12,0,0,0-5.589-2.361,7.167,7.167,0,0,0-5.618,2.39Q-91.1-18.8-91.1-13.978ZM-65.413,0V-27.917h11.864a20.306,20.306,0,0,1,6.5.752A6.415,6.415,0,0,1-43.8-24.489a8.042,8.042,0,0,1,1.219,4.4A7.452,7.452,0,0,1-44.427-14.9a8.871,8.871,0,0,1-5.522,2.58,13.151,13.151,0,0,1,3.018,2.342,31.817,31.817,0,0,1,3.209,4.532L-40.314,0h-6.741L-51.13-6.075a39.4,39.4,0,0,0-2.971-4.1A4.326,4.326,0,0,0-55.8-11.34a9.291,9.291,0,0,0-2.837-.314h-1.143V0Zm5.637-16.11h4.17a21.536,21.536,0,0,0,5.065-.343,3.036,3.036,0,0,0,1.581-1.181,3.635,3.635,0,0,0,.571-2.095A3.347,3.347,0,0,0-49.14-22,3.452,3.452,0,0,0-51.264-23.1q-.686-.1-4.113-.1h-4.4Zm21.366,2.323a17.755,17.755,0,0,1,1.276-7.16,13.139,13.139,0,0,1,2.6-3.828,10.869,10.869,0,0,1,3.609-2.514,15.326,15.326,0,0,1,6.018-1.1,13.107,13.107,0,0,1,9.874,3.828q3.7,3.828,3.7,10.645,0,6.76-3.675,10.578A13.006,13.006,0,0,1-24.832.476q-6.227,0-9.9-3.8T-38.41-13.787Zm5.808-.19q0,4.742,2.19,7.189a7.135,7.135,0,0,0,5.561,2.447A7.074,7.074,0,0,0-19.319-6.77q2.161-2.428,2.161-7.284,0-4.8-2.1-7.16a7.12,7.12,0,0,0-5.589-2.361,7.167,7.167,0,0,0-5.618,2.39Q-32.6-18.8-32.6-13.978ZM-8.36-9.083l5.484-.533A6.691,6.691,0,0,0-.866-5.561,6.074,6.074,0,0,0,3.218-4.266a6.278,6.278,0,0,0,4.1-1.152A3.428,3.428,0,0,0,8.7-8.112,2.541,2.541,0,0,0,8.122-9.8a4.642,4.642,0,0,0-2.028-1.209q-.99-.343-4.513-1.219-4.532-1.124-6.36-2.761A7.264,7.264,0,0,1-7.351-20.6a7.176,7.176,0,0,1,1.209-3.99,7.571,7.571,0,0,1,3.485-2.828,13.967,13.967,0,0,1,5.494-.971q5.256,0,7.912,2.3a8.133,8.133,0,0,1,2.79,6.151L7.9-19.69a4.787,4.787,0,0,0-1.552-3.094,5.682,5.682,0,0,0-3.571-.943,6.441,6.441,0,0,0-3.847,1.009,2.034,2.034,0,0,0-.9,1.733,2.144,2.144,0,0,0,.838,1.695q1.066.9,5.18,1.866a27.334,27.334,0,0,1,6.084,2.009,7.841,7.841,0,0,1,3.085,2.837,8.3,8.3,0,0,1,1.114,4.447,8.221,8.221,0,0,1-1.333,4.494A7.989,7.989,0,0,1,9.236-.524,15.812,15.812,0,0,1,3.161.5Q-2.133.5-4.97-1.952A10.644,10.644,0,0,1-8.36-9.083Zm45.3-1.181,5.465,1.733a12.258,12.258,0,0,1-4.18,6.789A11.923,11.923,0,0,1,30.812.476a12.008,12.008,0,0,1-9.141-3.8q-3.58-3.8-3.58-10.388,0-6.97,3.6-10.826a12.341,12.341,0,0,1,9.464-3.856,11.612,11.612,0,0,1,8.322,3.028,11.012,11.012,0,0,1,2.856,5.142l-5.58,1.333a5.918,5.918,0,0,0-2.066-3.428,5.92,5.92,0,0,0-3.818-1.257,6.352,6.352,0,0,0-5.037,2.228Q23.9-19.119,23.9-14.13q0,5.294,1.9,7.541a6.184,6.184,0,0,0,4.951,2.247A5.646,5.646,0,0,0,34.62-5.77,8.3,8.3,0,0,0,36.943-10.264Zm9.16-3.523a17.755,17.755,0,0,1,1.276-7.16,13.139,13.139,0,0,1,2.6-3.828,10.869,10.869,0,0,1,3.609-2.514,15.326,15.326,0,0,1,6.018-1.1,13.107,13.107,0,0,1,9.874,3.828q3.7,3.828,3.7,10.645,0,6.76-3.675,10.578A13.006,13.006,0,0,1,59.681.476q-6.227,0-9.9-3.8T46.1-13.787Zm5.808-.19q0,4.742,2.19,7.189a7.135,7.135,0,0,0,5.561,2.447A7.074,7.074,0,0,0,65.194-6.77q2.161-2.428,2.161-7.284,0-4.8-2.1-7.16a7.12,7.12,0,0,0-5.589-2.361,7.167,7.167,0,0,0-5.618,2.39Q51.911-18.8,51.911-13.978ZM77.581,0V-27.917h9.045a32.8,32.8,0,0,1,6.7.419,7.32,7.32,0,0,1,4.018,2.733,8.666,8.666,0,0,1,1.619,5.437,9.108,9.108,0,0,1-.933,4.323,7.655,7.655,0,0,1-2.371,2.752,8.17,8.17,0,0,1-2.923,1.323,32.176,32.176,0,0,1-5.846.4H83.218V0Zm5.637-23.194v7.922H86.3a14.576,14.576,0,0,0,4.456-.438,3.7,3.7,0,0,0,1.761-1.371,3.753,3.753,0,0,0,.638-2.171,3.606,3.606,0,0,0-.9-2.514A3.9,3.9,0,0,0,90-23a27.093,27.093,0,0,0-4.056-.19ZM103.594,0V-27.917h20.7v4.723H109.23v6.189h14.016v4.7H109.23v7.6h15.6V0Z" transform="translate(149.5 171.18)" fill="none" stroke="#fff" stroke-width="1" opacity="0.18"/>
    <path id="パス_1182" data-name="パス 1182" d="M828.023,400.345a18.04,18.04,0,1,0,18.039,18.039A18.06,18.06,0,0,0,828.023,400.345Zm0,22.5a4.458,4.458,0,1,1,4.458-4.458A4.463,4.463,0,0,1,828.023,422.842Zm4.11-9.86a6.766,6.766,0,0,0-2.941-1.289v-8.915a15.577,15.577,0,0,1,9.226,3.918Zm-5.282-1.287a6.756,6.756,0,0,0-2.946,1.292l-6.285-6.285a15.582,15.582,0,0,1,9.23-3.924Zm-4.537,3.01a6.755,6.755,0,0,0-1.04,2.891H812.4a15.588,15.588,0,0,1,3.587-9.221Zm-.9,5.231a6.765,6.765,0,0,0,1.226,2.581l-6.283,6.283a15.584,15.584,0,0,1-3.917-8.864Zm2.95,4.166a6.742,6.742,0,0,0,2.519.976v8.914a15.577,15.577,0,0,1-8.851-3.558Zm4.859.969a6.767,6.767,0,0,0,2.507-.992l6.327,6.326a15.587,15.587,0,0,1-8.834,3.586Zm4.218-2.592a6.744,6.744,0,0,0,1.206-2.569h8.969a15.584,15.584,0,0,1-3.889,8.856Zm1.331-4.909a6.756,6.756,0,0,0-1.041-2.872l6.329-6.329a15.591,15.591,0,0,1,3.592,9.2Z" transform="translate(-678.131 -376.219)" fill="#fff"/>
  </g>
</svg>
