<svg xmlns="http://www.w3.org/2000/svg" xmlns:xlink="http://www.w3.org/1999/xlink" width="315" height="194" viewBox="0 0 315 194">
  <defs>
    <filter id="ログインパネル" x="0" y="0" width="315" height="194" filterUnits="userSpaceOnUse">
      <feOffset dy="1" input="SourceAlpha"/>
      <feGaussianBlur stdDeviation="2.5" result="blur"/>
      <feFlood flood-opacity="0.2"/>
      <feComposite operator="in" in2="blur"/>
      <feComposite in="SourceGraphic"/>
    </filter>
  </defs>
  <g id="コンポーネント_1_2" data-name="コンポーネント 1 – 2" transform="translate(7.5 6.5)">
    <g id="グループ_2505" data-name="グループ 2505" transform="translate(0 -0.228)">
      <g id="グループ_2491" data-name="グループ 2491">
        <g transform="matrix(1, 0, 0, 1, -7.5, -6.27)" filter="url(#ログインパネル)">
          <path id="ログインパネル-2" data-name="ログインパネル" d="M10,0H290a10,10,0,0,1,10,10V169a10,10,0,0,1-10,10H10A10,10,0,0,1,0,169V10A10,10,0,0,1,10,0Z" transform="translate(7.5 6.5)" fill="#fff"/>
        </g>
        <path id="パス_1172" data-name="パス 1172" d="M17.023-19.111a29.308,29.308,0,0,1-5.916,1.247v-2.784a16.585,16.585,0,0,1,.145-2.7H9.106a19.264,19.264,0,0,1,.145,2.755v2.871c-.87.058-2,.087-2.784.087a16.425,16.425,0,0,1-2.958-.2v1.914H4.7c.319.029,1.1.029,1.537.029.841,0,1.334,0,1.856-.029.9-.058.9-.058,1.16-.087v5.481A15.513,15.513,0,0,0,5.162-8.149C3.6-6.815,2.871-5.568,2.871-4.292A3.5,3.5,0,0,0,4.2-1.566,7.659,7.659,0,0,0,8.99.29c1.421,0,2.117-.754,2.117-2.32V-9.28a19.567,19.567,0,0,1,6.148-1.131c3.8,0,6.206,1.769,6.206,4.611a3.85,3.85,0,0,1-3.886,4.089c-2.117,0-2.987-1.247-2.987-4.263a8.613,8.613,0,0,1,.058-1.131,6.285,6.285,0,0,1-1.914.754,10.582,10.582,0,0,0,.348,3.277A4.277,4.277,0,0,0,19.546.2a5.869,5.869,0,0,0,5.916-6,5.836,5.836,0,0,0-2.987-5.133,9.818,9.818,0,0,0-5.133-1.218,20.545,20.545,0,0,0-6.235,1.044v-5.017a50.9,50.9,0,0,0,5.133-.87c.406-.087.522-.116.87-.174ZM9.251-3.1c0,1.247-.087,1.421-.667,1.421A5.416,5.416,0,0,1,6-2.523c-.841-.551-1.247-1.131-1.247-1.74,0-1.392,1.624-2.958,4.5-4.35ZM26.68-15.37a24.369,24.369,0,0,0-5.858-5.51l-1.508,1.131a23.752,23.752,0,0,1,5.858,5.684Zm12.557-1.508c.667,0,1.247.029,1.885.087v-1.8a11.617,11.617,0,0,1-1.914.116H37.091v-2.813a19.129,19.129,0,0,1,.145-2.987H35.119a17.34,17.34,0,0,1,.145,3.016v2.784H32.915a12.844,12.844,0,0,1-2.088-.116v1.827a13.544,13.544,0,0,1,2.088-.116H35A25.819,25.819,0,0,1,30.015-6.554a5.359,5.359,0,0,1,1.131,1.682,25.911,25.911,0,0,0,4.292-9.193c-.145,2.871-.174,3.509-.174,4.727v8.207a24.36,24.36,0,0,1-.174,3.364h2.175a23.509,23.509,0,0,1-.174-3.364V-9.947c0-.957-.029-2.03-.116-4.7a20.828,20.828,0,0,0,3.364,6.09,6.694,6.694,0,0,1,1.044-1.624,18.489,18.489,0,0,1-4.147-6.7ZM44.109,2.088V0H53.3V1.972h1.943a33.38,33.38,0,0,1-.116-3.451V-19.894c0-1.6.029-2.262.087-2.9a13.617,13.617,0,0,1-2.2.087H44.428a21.953,21.953,0,0,1-2.262-.058c.087,1.421.116,2.117.116,3.132V-1.45c0,1.508-.058,2.552-.145,3.538Zm0-23.113H53.3v5.191H44.109Zm0,6.844H53.3v5.162H44.109Zm0,6.815H53.3v5.713H44.109Zm27.579-8.12H64.38a21.432,21.432,0,0,1-3.074-.174v2.03A23.813,23.813,0,0,1,64.38-13.8h7.308v4.553H62.756a20.711,20.711,0,0,1-3.045-.174v2.059a21.833,21.833,0,0,1,3.045-.174h8.932v6.38c0,.638-.29.841-1.218.841a31.289,31.289,0,0,1-4.93-.493,6.821,6.821,0,0,1,.522,2,42.19,42.19,0,0,0,4.35.261c2.465,0,3.161-.493,3.161-2.291v-6.7h8.294a22.124,22.124,0,0,1,3.045.174V-9.425a21.263,21.263,0,0,1-3.045.174H73.573V-13.8h7.018a22,22,0,0,1,3.074.174v-2.03a21.432,21.432,0,0,1-3.074.174H73.573v-4.872a51.334,51.334,0,0,0,8.845-1.972l-1.6-1.711a28.184,28.184,0,0,1-7.395,1.972,76.057,76.057,0,0,1-12.006.928,5.3,5.3,0,0,1,.754,1.8,83.867,83.867,0,0,0,9.512-.754Zm40.049-4.553a18.55,18.55,0,0,1-3.451,4.031,26.074,26.074,0,0,1-2.465-2.2,38.161,38.161,0,0,0,3.538-3.77l-1.508-1.073a17.813,17.813,0,0,1-3.016,3.77,8.944,8.944,0,0,1-2.349-4.031A18.1,18.1,0,0,1,99.9-23.2H94.424a9.974,9.974,0,0,1-2.088-.145v1.827a18.229,18.229,0,0,1,1.885-.145H99.5a19.78,19.78,0,0,1-3.6,4.321,39.5,39.5,0,0,0-4.234-3.6l-1.276,1.16a31.462,31.462,0,0,1,4.234,3.538,25.45,25.45,0,0,1-6.641,4,4.826,4.826,0,0,1,1.1,1.537A27.94,27.94,0,0,0,96.86-15.95a23.213,23.213,0,0,0,4.553-5.539A19.611,19.611,0,0,0,105.5-16.24a26.178,26.178,0,0,0,8.323,5.423A5.817,5.817,0,0,1,114.9-12.47a20.6,20.6,0,0,1-5.365-2.668,31.342,31.342,0,0,0,2.407-2.349c.9-1.015.9-1.015,1.3-1.45ZM91.553-.406A15.083,15.083,0,0,1,88.74-.58v2a19.464,19.464,0,0,1,2.871-.174h19.865a19.62,19.62,0,0,1,2.9.174v-2a18.506,18.506,0,0,1-2.842.174H105.85a27.6,27.6,0,0,0,1.827-3.161l-1.711-.783a19.971,19.971,0,0,1-1.943,3.944H99.006A28.79,28.79,0,0,0,97.15-4.2L95.439-3.6A19.022,19.022,0,0,1,97.15-.406Zm4.9-12.992a12.547,12.547,0,0,1,2.349-.145h5.452a12.239,12.239,0,0,1,2.291.145v-1.827a11.357,11.357,0,0,1-2.262.145H98.745a11.868,11.868,0,0,1-2.291-.145ZM107.59-4.64c.986,0,1.6.029,2.291.087a9.993,9.993,0,0,1-.116-1.943V-9.6a12.955,12.955,0,0,1,.116-1.943,17.611,17.611,0,0,1-2.32.116H95.439a18.185,18.185,0,0,1-2.32-.116A14.274,14.274,0,0,1,93.235-9.6v3.1a14.559,14.559,0,0,1-.116,1.943c.667-.058,1.276-.087,2.233-.087ZM95.033-9.831h12.934v3.625H95.033ZM134.705-.29c0,.58-.232.725-1.218.725a17.08,17.08,0,0,1-2.726-.261A6.79,6.79,0,0,1,131.138,2c1.218.087,2.088.116,2.7.116,1.943,0,2.552-.522,2.552-2.175V-4.437c0-1.624-.058-2.726-.174-5.365a17.821,17.821,0,0,0,2.175,5.133A17.358,17.358,0,0,0,143.2.493a5.866,5.866,0,0,1,1.247-1.6A16.156,16.156,0,0,1,139.2-6.235a32.362,32.362,0,0,0,3.973-4.553L141.665-11.8A18.14,18.14,0,0,1,138.417-7.6a19.161,19.161,0,0,1-2-5.481v-.087h4.7a17.026,17.026,0,0,1,2.7.145v-1.856a17.637,17.637,0,0,1-2.726.174h-.638c.2-2.494.29-3.828.377-5.336a20.584,20.584,0,0,1,.261-3.016,24.888,24.888,0,0,1-2.813.116h-6.264a17.612,17.612,0,0,1-2.755-.145v1.827a17.612,17.612,0,0,1,2.755-.145H139.2c-.058,1.392-.087,1.682-.116,2.552h-6.525a13.928,13.928,0,0,1-2.494-.145v1.769a14.95,14.95,0,0,1,2.494-.145h6.409c-.087,1.218-.087,1.276-.232,2.668h-8.149a16.687,16.687,0,0,1-2.639-.174v1.856a15.8,15.8,0,0,1,2.639-.145h4.118v6.641a34.714,34.714,0,0,1-6.9,4.379l-.058-1.334c-1.6.638-2.175.841-3.451,1.247V-10.7h1.218a15.5,15.5,0,0,1,2.552.145v-1.827a15.714,15.714,0,0,1-2.552.145h-1.218v-3.016h.986a12.709,12.709,0,0,1,1.943.116v-1.711a12.233,12.233,0,0,1-1.943.116h-3.567a11.617,11.617,0,0,1-1.914-.116,18.619,18.619,0,0,0,3.828-5.51,17.059,17.059,0,0,0,4.089,5.423,7.766,7.766,0,0,1,1.044-1.508,13.052,13.052,0,0,1-4.2-5.336H122.5a14.912,14.912,0,0,1-5.22,6.9,3.781,3.781,0,0,1,1.044,1.421c.7-.609.957-.841,1.45-1.334v1.653a13.432,13.432,0,0,1,1.885-.116h.986v3.016h-1.972a17.43,17.43,0,0,1-2.726-.145v1.827a17.94,17.94,0,0,1,2.7-.145h2v8.932a23.57,23.57,0,0,1-4.872.957l.377,1.943a16.816,16.816,0,0,1,1.74-.493,59.7,59.7,0,0,0,7.946-2.523l.754,1.45c.377-.232.377-.232.87-.551,2.349-1.508,2.349-1.508,2.871-1.885.812-.58,1.392-1.015,2.378-1.8ZM121.278-3.277a36.779,36.779,0,0,0-1.363-5.887l-1.421.464a29.6,29.6,0,0,1,1.276,5.945Zm5.336-.7a32.748,32.748,0,0,0,1.392-4.959l-1.45-.551a18.65,18.65,0,0,1-1.247,5.046Zm2.552-7.134A20.49,20.49,0,0,1,131.6-6.351l1.421-.9a28.823,28.823,0,0,0-2.465-4.524Z" transform="translate(75.833 107.823)" fill="#1d1d1f"/>
        <path id="パス_1173" data-name="パス 1173" d="M-71.344-4.056a10.329,10.329,0,0,0,3.371-.457A3.257,3.257,0,0,0-65.517-7.77a2.4,2.4,0,0,0-1.219-2.152,13.106,13.106,0,0,0-3.828-1.314l-2.971-.667a18.772,18.772,0,0,1-6.056-2.152Q-82.427-16-82.427-20.128a8.112,8.112,0,0,1,2.742-6.265q2.742-2.495,8.055-2.495a12.247,12.247,0,0,1,7.57,2.352,8.4,8.4,0,0,1,3.285,6.827h-5.637a4.027,4.027,0,0,0-2.209-3.6,7.408,7.408,0,0,0-3.409-.7,6.364,6.364,0,0,0-3.618.914A2.911,2.911,0,0,0-77-20.547,2.415,2.415,0,0,0-75.667-18.3a16.317,16.317,0,0,0,3.656,1.162l4.837,1.162a12.505,12.505,0,0,1,4.8,2.038,6.863,6.863,0,0,1,2.514,5.732A8.089,8.089,0,0,1-62.8-1.819Q-65.746.724-71.116.724q-5.484,0-8.626-2.5a8.321,8.321,0,0,1-3.142-6.884h5.6a5.764,5.764,0,0,0,1.047,2.875Q-74.81-4.056-71.344-4.056Zm35.363-8.208H-49.616v7.217h15.539V0H-55.348V-28.069h20.585v4.97H-49.616v5.96h13.635Zm26.87-15.806v4.97h-8.4V0h-5.9V-23.1h-8.436v-4.97Zm23.823,0v4.97h-8.4V0H.409V-23.1H-8.027v-4.97Zm2.971,0h5.827V0H17.681ZM51.673,0H45.808L34.344-19.938V0H28.879V-28.069H35.03l11.178,19.6v-19.6h5.465Zm22.68-.686A10.716,10.716,0,0,1,68.64.743,11.87,11.87,0,0,1,59.5-3.123q-3.713-3.885-3.713-10.626,0-6.817,3.751-10.931a12.785,12.785,0,0,1,9.921-4.113,12.969,12.969,0,0,1,8.6,2.714,10.09,10.09,0,0,1,3.723,6.77H76.01a5.5,5.5,0,0,0-3.256-4.018,8,8,0,0,0-3.218-.628,6.989,6.989,0,0,0-5.57,2.561q-2.18,2.561-2.18,7.7,0,5.18,2.361,7.332a7.754,7.754,0,0,0,5.37,2.152,6.937,6.937,0,0,0,4.837-1.7,7.368,7.368,0,0,0,2.323-4.466H70.183v-4.685H81.875V0H77.99L77.4-3.5A13.449,13.449,0,0,1,74.353-.686Z" transform="translate(150.196 170.196)" fill="none" stroke="#0379ae" stroke-width="1" opacity="0.4"/>
        <g id="グループ_2490" data-name="グループ 2490" transform="translate(132.708 24.51)">
          <path id="パス_1083" data-name="パス 1083" d="M575.3,409.1l2.158-2.055h-19.1a1.819,1.819,0,0,0-1.817,1.817v27.658a1.819,1.819,0,0,0,1.817,1.817h25.287a1.819,1.819,0,0,0,1.817-1.817V419.174l-2.053,1.954v15.16H558.59V409.1Z" transform="translate(-556.537 -403.505)" fill="#0379ae"/>
          <path id="パス_1084" data-name="パス 1084" d="M581.953,405.068l-15.4,16.166c-.991,1.04-2.113,5.8-2.549,7.792a1.026,1.026,0,0,0,1,1.247.808.808,0,0,0,.13-.009c2.791-.356,7.624-1.111,8.625-2.162l15.4-16.166a3.4,3.4,0,0,0-.117-4.8l-2.288-2.18a3.407,3.407,0,0,0-4.8.116Zm2.463,1a1.331,1.331,0,0,1,.926.368l2.288,2.18a1.349,1.349,0,0,1,.046,1.9l-15.364,16.135c-.5.379-3.247.957-5.963,1.367a25.291,25.291,0,0,1,1.7-5.37l15.4-16.166a1.334,1.334,0,0,1,.941-.414Z" transform="translate(-555.28 -404.017)" fill="#0379ae"/>
        </g>
      </g>
    </g>
  </g>
</svg>
