<svg xmlns="http://www.w3.org/2000/svg" xmlns:xlink="http://www.w3.org/1999/xlink" width="315" height="195" viewBox="0 0 315 195">
  <defs>
    <filter id="ログインパネル" x="0" y="0" width="315" height="195" filterUnits="userSpaceOnUse">
      <feOffset dy="1" input="SourceAlpha"/>
      <feGaussianBlur stdDeviation="2.5" result="blur"/>
      <feFlood flood-opacity="0.2"/>
      <feComposite operator="in" in2="blur"/>
      <feComposite in="SourceGraphic"/>
    </filter>
  </defs>
  <g id="コンポーネント_3_2" data-name="コンポーネント 3 – 2" transform="translate(7.5 6.5)">
    <g id="グループ_2503" data-name="グループ 2503" transform="translate(0 0.459)">
      <g id="グループ_2495" data-name="グループ 2495" transform="translate(0 0)">
        <g transform="matrix(1, 0, 0, 1, -7.5, -6.96)" filter="url(#ログインパネル)">
          <rect id="ログインパネル-2" data-name="ログインパネル" width="300" height="180" rx="10" transform="translate(7.5 6.5)" fill="#fff"/>
        </g>
        <path id="パス_1177" data-name="パス 1177" d="M32.608,7.5V4.54a11.384,11.384,0,0,1,.145-1.827H30.317a9.1,9.1,0,0,1,.145,1.856V7.5H24.314a24.772,24.772,0,0,1-2.668-.116,18.968,18.968,0,0,1,.116,2.349v3.915c0,.754-.058,1.682-.116,2.175h2.378a20.654,20.654,0,0,1-.087-2.146V9.325H39.771C39.22,15.212,37.1,19.185,33.043,22a19.149,19.149,0,0,1-6.409,2.813,5.939,5.939,0,0,1,1.334,1.972,22.735,22.735,0,0,0,8.5-4.814,18.07,18.07,0,0,0,5.249-10.585c.377-2.465.377-2.465.638-2.929L41.163,7.324a6.458,6.458,0,0,1-2.436.174Zm32.045.638a9.446,9.446,0,0,1-1.624,1.885,31.888,31.888,0,0,1-8.294,6.032A28.618,28.618,0,0,1,48.007,18.6a5.354,5.354,0,0,1,1.015,1.74,33.791,33.791,0,0,0,8.9-4v8.613a16.654,16.654,0,0,1-.116,2.523h2.262a15.5,15.5,0,0,1-.145-2.552v-9.8a48.468,48.468,0,0,0,5.829-5.1,3.7,3.7,0,0,1,.7-.667Zm7.83,7.917a31.68,31.68,0,0,1,3.6-.116H92.9a33.174,33.174,0,0,1,3.538.116V13.7a22.873,22.873,0,0,1-3.509.145H76.079a20.514,20.514,0,0,1-3.6-.174ZM108.675,2.365A13.151,13.151,0,0,1,106.848,6.6a21.485,21.485,0,0,1-7.279,7.946,4.312,4.312,0,0,1,1.624,1.508,27.957,27.957,0,0,0,6.931-7.54l9.773-.174a26.646,26.646,0,0,1-4.988,9.715,24.668,24.668,0,0,1-10.237,7.337,4.372,4.372,0,0,1,1.45,1.711,28.4,28.4,0,0,0,10.092-7.25,30.681,30.681,0,0,0,5.8-10.9c.319-1.044.319-1.073.58-1.421l-1.247-1.218a2.849,2.849,0,0,1-1.508.2c-8.381.145-8.381.145-8.758.232a27.74,27.74,0,0,0,1.334-2.581,5.54,5.54,0,0,1,.638-1.189Zm20.88,1.247a17.057,17.057,0,0,1,.116,2.436v7.743a17.584,17.584,0,0,1-.116,2.436h2.407a15.357,15.357,0,0,1-.116-2.407v-7.8a15.843,15.843,0,0,1,.116-2.407Zm12.818,0a16.125,16.125,0,0,1,.116,2.552V9.441a36.058,36.058,0,0,1-.406,7.395,8.651,8.651,0,0,1-4.64,6.119,16.885,16.885,0,0,1-5.51,1.972,5.546,5.546,0,0,1,1.218,2,22.831,22.831,0,0,0,5.278-2.088,11.02,11.02,0,0,0,5.51-6.438c.522-1.682.725-4.234.725-8.845V6.135a12.944,12.944,0,0,1,.145-2.523Zm9.28,12.441a31.68,31.68,0,0,1,3.6-.116h16.82a33.175,33.175,0,0,1,3.538.116V13.7a22.873,22.873,0,0,1-3.509.145H155.249a20.515,20.515,0,0,1-3.6-.174Zm31.9-9.773a12.833,12.833,0,0,1,.145-2.436H181.32a16.092,16.092,0,0,1,.116,2.407V19.62c0,1.218.029,1.8.058,2.262a3.851,3.851,0,0,0,1.189,2.784c1.015.841,2.929,1.189,6.351,1.189,2,0,5.829-.2,7.685-.406l1.392-.145.377-.029c.435-.058.522-.058.957-.087l-.174-2.32a13.971,13.971,0,0,1-2.871.58,57.37,57.37,0,0,1-6.641.464,30.242,30.242,0,0,1-3.422-.174,3.481,3.481,0,0,1-2.2-.754c-.493-.493-.609-1.16-.609-3.19v-.319l.029-.174V15.067a45.018,45.018,0,0,0,13.833-4.9c.667-.348.812-.406,1.247-.609l-1.479-1.972c-1.943,1.914-9.019,4.785-13.6,5.568Zm13.079-3.161a21.477,21.477,0,0,1,2.987,4.611l1.45-.87a22.015,22.015,0,0,0-2.987-4.495Zm3.306-1.566A21.725,21.725,0,0,1,202.9,6.106l1.479-.812A25.077,25.077,0,0,0,201.359.77Zm8.236,4a31.3,31.3,0,0,1,7.134,3.857L216.5,7.469A45.175,45.175,0,0,0,209.3,3.815Zm-2.291,6.96a32.016,32.016,0,0,1,7.395,3.973l1.131-1.972a46.394,46.394,0,0,0-7.366-3.77Zm.986,13.862a8.878,8.878,0,0,1,1.131-.29c10.44-1.972,16.414-6.525,20.068-15.312a8.925,8.925,0,0,1-1.8-1.566A20.729,20.729,0,0,1,214.09,22.2a26.331,26.331,0,0,1-7.627,1.8h-.174ZM223.051,3.235a23.449,23.449,0,0,1,2.958,4.611l1.45-.87A23.116,23.116,0,0,0,224.5,2.481ZM226.328,1.7a22.323,22.323,0,0,1,2.987,4.553l1.45-.841a22.164,22.164,0,0,0-3.016-4.5Zm21,24.418v1.45h2a9.146,9.146,0,0,1-.116-1.8V12.66c0-1.015,0-1.479.029-2.233-.522.029-1.044.058-1.972.058H236.478a14.432,14.432,0,0,1-2.523-.174v2a13.119,13.119,0,0,1,2.523-.116h10.846v5.046H237.145a14.432,14.432,0,0,1-2.523-.174V19.04a12.767,12.767,0,0,1,2.494-.116h10.208v5.452H236.188a14.9,14.9,0,0,1-2.523-.174v2.03a12.949,12.949,0,0,1,2.523-.116Zm11.02-19.053a32.023,32.023,0,0,1,6.9,5.684l1.508-1.8A37.779,37.779,0,0,0,259.765,5.5Zm.2,18.85a15.237,15.237,0,0,1,1.74-.464c4.843-1.1,7.83-2.291,10.817-4.321,3.828-2.639,6.525-6.032,8.845-11.078a5.809,5.809,0,0,1-1.769-1.711c-2.349,6.148-6.235,10.411-11.832,12.905a25.242,25.242,0,0,1-8.439,2.233Z" transform="translate(0.001 81.821)" fill="#1d1d1f"/>
        <path id="パス_1176" data-name="パス 1176" d="M-51.349-28.069h5.96L-53.292,0h-5.6l-3.39-16.415-.99-5.427-.99,5.427L-67.65,0H-73.1l-7.96-28.069h6.227L-71.116-12l.8,4.475.819-4.38,3.161-16.167h6.189L-56.815-12l.857,4.475.857-4.3Zm29.041,15.806H-35.944v7.217H-20.4V0H-41.676V-28.069H-21.09v4.97H-35.944v5.96h13.635Zm26.013,0H-9.931v7.217H5.608V0H-15.663V-28.069H4.923v4.97H-9.931v5.96H3.7ZM35.049,0H27.508L18.843-12.264l-2.8,2.875V0h-5.77V-28.069h5.77V-16.51L26.879-28.069h7.579L22.956-16.51Zm3.294-28.069h5.865V-5.046h13.9V0H38.343Zm42.9,0L71.859-10.55V0H65.993V-10.55l-9.712-17.52h6.913l5.827,12.226L74.6-28.069Z" transform="translate(149.176 170.196)" fill="none" stroke="#d61111" stroke-width="1" opacity="0.4"/>
        <g id="グループ_2206" data-name="グループ 2206" transform="translate(130.713 23.529)">
          <path id="パス_1087" data-name="パス 1087" d="M688.083,423.673c-.372-.12-.811-.26-1.133-.4l.133-.165a6.034,6.034,0,0,0,1.6-3.149c.162-1.952.363-4.38-1.052-5.917a5.2,5.2,0,0,0-6.776-.031c-1.36,1.464-1.2,3.728-1.052,5.727l.017.231a6.719,6.719,0,0,0,1.635,3.256l.108.14c-.355.154-.832.323-1.205.456-1.621.578-3.641,1.3-4.721,2.771-1.738,2.376-1.3,5.94-1.283,6.091l.105.808h19.558l.219-.618a7.035,7.035,0,0,0-1.125-6.139C691.769,424.854,689.639,424.171,688.083,423.673Zm-4.5.422c.367-.663-.059-1.221-.648-1.993a5.758,5.758,0,0,1-1.26-2.263l-.016-.233c-.119-1.619-.252-3.455.559-4.326a3.443,3.443,0,0,1,4.049.023c.864.938.7,2.932.564,4.534a4.707,4.707,0,0,1-1.188,2.106c-.57.7-1.108,1.368-.647,2.109.452.725,1.365,1.018,2.523,1.39,1.38.442,3.1.993,4.082,2.375a5.327,5.327,0,0,1,1.016,3.823H676.15a6.78,6.78,0,0,1,.986-3.946c.742-1.014,2.461-1.626,3.845-2.119C682.269,425.116,683.2,424.785,683.581,424.095Z" transform="translate(-668.445 -398.02)" fill="#d61111"/>
          <path id="パス_1088" data-name="パス 1088" d="M704.82,426.738c-1.343-1.885-3.472-2.568-5.028-3.066-.372-.119-.811-.26-1.132-.4l.132-.166a6.009,6.009,0,0,0,1.6-3.148c.163-1.95.365-4.379-1.05-5.918a5.2,5.2,0,0,0-6.776-.029c-1.361,1.464-1.2,3.728-1.052,5.727l.017.231a6.715,6.715,0,0,0,1.637,3.258l.105.139c-.355.154-.831.323-1.205.456-.5.179-1.083.389-1.656.631l-.548.232.526.278a7.35,7.35,0,0,1,1.256.839l.127.106.154-.058c.261-.1.52-.191.767-.279,1.287-.458,2.216-.788,2.6-1.479.368-.663-.059-1.221-.648-1.993a5.741,5.741,0,0,1-1.258-2.263l-.017-.233c-.119-1.619-.252-3.455.559-4.326a3.444,3.444,0,0,1,4.049.023c.864.938.7,2.932.565,4.534a4.707,4.707,0,0,1-1.189,2.106c-.57.7-1.108,1.368-.647,2.109s1.366,1.018,2.526,1.39c1.378.443,3.095.994,4.078,2.375a5.328,5.328,0,0,1,1.016,3.823H693.987l-.033.244a4.9,4.9,0,0,1-.195.9l-.252.712h12.219l.218-.62A7.018,7.018,0,0,0,704.82,426.738Z" transform="translate(-666.41 -398.02)" fill="#d61111"/>
          <path id="パス_1089" data-name="パス 1089" d="M699.693,404.349h-.7v-1.608a3.144,3.144,0,0,0-6.283,0v1.608H679.667v-1.424a3.144,3.144,0,0,0-6.283,0v1.424h-.994a3.273,3.273,0,0,0-3.269,3.269v24.225a3.272,3.272,0,0,0,3.269,3.268h.867V433.2l-.867-.008a1.347,1.347,0,0,1-1.345-1.346V407.618a1.347,1.347,0,0,1,1.345-1.346h.994v1.178a3.144,3.144,0,0,0,6.283,0v-1.178h13.039v.994a3.144,3.144,0,0,0,6.283,0v-.994h.7a1.348,1.348,0,0,1,1.347,1.346v5.8h1.922v-5.8A3.273,3.273,0,0,0,699.693,404.349Zm-21.89,3.1a1.283,1.283,0,0,1-2.553,0v-4.525a1.284,1.284,0,0,1,2.553,0Zm19.323-.184a1.284,1.284,0,0,1-2.554,0v-4.525a1.284,1.284,0,0,1,2.554,0Z" transform="translate(-669.121 -399.726)" fill="#d61111"/>
        </g>
      </g>
    </g>
  </g>
</svg>
