<svg id="非会員_pc" data-name="非会員 pc" xmlns="http://www.w3.org/2000/svg" xmlns:xlink="http://www.w3.org/1999/xlink" width="1680" height="484" viewBox="0 0 1680 484">
  <defs>
    <filter id="ログインパネル" x="682.5" y="257.5" width="315" height="194.412" filterUnits="userSpaceOnUse">
      <feOffset dy="1" input="SourceAlpha"/>
      <feGaussianBlur stdDeviation="2.5" result="blur"/>
      <feFlood flood-opacity="0.2"/>
      <feComposite operator="in" in2="blur"/>
      <feComposite in="SourceGraphic"/>
    </filter>
    <filter id="ログインパネル-2" x="1027.5" y="33.5" width="315" height="195" filterUnits="userSpaceOnUse">
      <feOffset dy="1" input="SourceAlpha"/>
      <feGaussianBlur stdDeviation="2.5" result="blur-2"/>
      <feFlood flood-opacity="0.2"/>
      <feComposite operator="in" in2="blur-2"/>
      <feComposite in="SourceGraphic"/>
    </filter>
    <filter id="ログインパネル-3" x="682.5" y="33.5" width="315" height="194" filterUnits="userSpaceOnUse">
      <feOffset dy="1" input="SourceAlpha"/>
      <feGaussianBlur stdDeviation="2.5" result="blur-3"/>
      <feFlood flood-opacity="0.2"/>
      <feComposite operator="in" in2="blur-3"/>
      <feComposite in="SourceGraphic"/>
    </filter>
    <filter id="ログインパネル-4" x="337.5" y="33.5" width="315" height="194" filterUnits="userSpaceOnUse">
      <feOffset dy="1" input="SourceAlpha"/>
      <feGaussianBlur stdDeviation="2.5" result="blur-4"/>
      <feFlood flood-opacity="0.2"/>
      <feComposite operator="in" in2="blur-4"/>
      <feComposite in="SourceGraphic"/>
    </filter>
  </defs>
  <g id="グループ_2557" data-name="グループ 2557" transform="translate(24078 22753)">
    <g id="未来" transform="translate(-23388 -22489)">
      <g id="グループ_2502" data-name="グループ 2502" transform="translate(0)">
        <g id="グループ_2497" data-name="グループ 2497">
          <g transform="matrix(1, 0, 0, 1, -690, -264)" filter="url(#ログインパネル)">
            <rect id="ログインパネル-5" data-name="ログインパネル" width="300" height="179.412" rx="10" transform="translate(690 264)" fill="#fff"/>
          </g>
          <text id="未来予測_ビジョン_" data-name="未来予測（ビジョン）" transform="translate(0.001 84.571)" fill="#1d1d1f" font-size="29" font-family="YuGothicUI-Regular, Yu Gothic UI" letter-spacing="-0.07em"><tspan x="30.95" y="31">未来予測（ビジョン）</tspan></text>
          <text id="FUTURE" transform="translate(150.078 170.411)" fill="none" stroke="#119e8e" stroke-width="1" font-size="39" font-family="Arial-BoldMT, Arial" font-weight="700" opacity="0.4"><tspan x="-79.076" y="0">FUTURE</tspan></text>
          <g id="グループ_2204" data-name="グループ 2204" transform="translate(128.431 24.51)">
            <path id="パス_1090" data-name="パス 1090" d="M725.908,404.519v12.092h24.775l7.359-5.544-7.3-6.548Zm24.014,9.818h-21.74v-7.545h21.687l4.6,4.122Z" transform="translate(-715.434 -404.519)" fill="#119e8e"/>
            <path id="パス_1091" data-name="パス 1091" d="M735.138,427.851v10.467h2.274l0-10.468h12.071V415.759H724.709l-7.36,5.544,7.3,6.548Zm-9.668-9.818h21.74v7.545H725.524l-4.6-4.122Z" transform="translate(-717.349 -402.004)" fill="#119e8e"/>
          </g>
        </g>
      </g>
    </g>
    <g id="週間" transform="translate(-23043 -22713)">
      <g id="グループ_2503" data-name="グループ 2503" transform="translate(0 0.459)">
        <g id="グループ_2495" data-name="グループ 2495" transform="translate(0 0)">
          <g transform="matrix(1, 0, 0, 1, -1035, -40.46)" filter="url(#ログインパネル-2)">
            <rect id="ログインパネル-6" data-name="ログインパネル" width="300" height="180" rx="10" transform="translate(1035 40)" fill="#fff"/>
          </g>
          <text id="ウィークリービジョン" transform="translate(0.001 81.821)" fill="#1d1d1f" font-size="29" font-family="YuGothicUI-Regular, Yu Gothic UI" letter-spacing="-0.09em"><tspan x="61.555" y="31">ウィークリービジョン</tspan></text>
          <text id="WEEKLY" transform="translate(149.176 170.196)" fill="none" stroke="#d61111" stroke-width="1" font-size="39" font-family="Arial-BoldMT, Arial" font-weight="700" opacity="0.4"><tspan x="-81.628" y="0">WEEKLY</tspan></text>
          <g id="グループ_2206" data-name="グループ 2206" transform="translate(130.713 23.529)">
            <path id="パス_1087" data-name="パス 1087" d="M688.083,423.673c-.372-.12-.811-.26-1.133-.4l.133-.165a6.034,6.034,0,0,0,1.6-3.149c.162-1.952.363-4.38-1.052-5.917a5.2,5.2,0,0,0-6.776-.031c-1.36,1.464-1.2,3.728-1.052,5.727l.017.231a6.719,6.719,0,0,0,1.635,3.256l.108.14c-.355.154-.832.323-1.205.456-1.621.578-3.641,1.3-4.721,2.771-1.738,2.376-1.3,5.94-1.283,6.091l.105.808h19.558l.219-.618a7.035,7.035,0,0,0-1.125-6.139C691.769,424.854,689.639,424.171,688.083,423.673Zm-4.5.422c.367-.663-.059-1.221-.648-1.993a5.758,5.758,0,0,1-1.26-2.263l-.016-.233c-.119-1.619-.252-3.455.559-4.326a3.443,3.443,0,0,1,4.049.023c.864.938.7,2.932.564,4.534a4.707,4.707,0,0,1-1.188,2.106c-.57.7-1.108,1.368-.647,2.109.452.725,1.365,1.018,2.523,1.39,1.38.442,3.1.993,4.082,2.375a5.327,5.327,0,0,1,1.016,3.823H676.15a6.78,6.78,0,0,1,.986-3.946c.742-1.014,2.461-1.626,3.845-2.119C682.269,425.116,683.2,424.785,683.581,424.095Z" transform="translate(-668.445 -398.02)" fill="#d61111"/>
            <path id="パス_1088" data-name="パス 1088" d="M704.82,426.738c-1.343-1.885-3.472-2.568-5.028-3.066-.372-.119-.811-.26-1.132-.4l.132-.166a6.009,6.009,0,0,0,1.6-3.148c.163-1.95.365-4.379-1.05-5.918a5.2,5.2,0,0,0-6.776-.029c-1.361,1.464-1.2,3.728-1.052,5.727l.017.231a6.715,6.715,0,0,0,1.637,3.258l.105.139c-.355.154-.831.323-1.205.456-.5.179-1.083.389-1.656.631l-.548.232.526.278a7.35,7.35,0,0,1,1.256.839l.127.106.154-.058c.261-.1.52-.191.767-.279,1.287-.458,2.216-.788,2.6-1.479.368-.663-.059-1.221-.648-1.993a5.741,5.741,0,0,1-1.258-2.263l-.017-.233c-.119-1.619-.252-3.455.559-4.326a3.444,3.444,0,0,1,4.049.023c.864.938.7,2.932.565,4.534a4.707,4.707,0,0,1-1.189,2.106c-.57.7-1.108,1.368-.647,2.109s1.366,1.018,2.526,1.39c1.378.443,3.095.994,4.078,2.375a5.328,5.328,0,0,1,1.016,3.823H693.987l-.033.244a4.9,4.9,0,0,1-.195.9l-.252.712h12.219l.218-.62A7.018,7.018,0,0,0,704.82,426.738Z" transform="translate(-666.41 -398.02)" fill="#d61111"/>
            <path id="パス_1089" data-name="パス 1089" d="M699.693,404.349h-.7v-1.608a3.144,3.144,0,0,0-6.283,0v1.608H679.667v-1.424a3.144,3.144,0,0,0-6.283,0v1.424h-.994a3.273,3.273,0,0,0-3.269,3.269v24.225a3.272,3.272,0,0,0,3.269,3.268h.867V433.2l-.867-.008a1.347,1.347,0,0,1-1.345-1.346V407.618a1.347,1.347,0,0,1,1.345-1.346h.994v1.178a3.144,3.144,0,0,0,6.283,0v-1.178h13.039v.994a3.144,3.144,0,0,0,6.283,0v-.994h.7a1.348,1.348,0,0,1,1.347,1.346v5.8h1.922v-5.8A3.273,3.273,0,0,0,699.693,404.349Zm-21.89,3.1a1.283,1.283,0,0,1-2.553,0v-4.525a1.284,1.284,0,0,1,2.553,0Zm19.323-.184a1.284,1.284,0,0,1-2.554,0v-4.525a1.284,1.284,0,0,1,2.554,0Z" transform="translate(-669.121 -399.726)" fill="#d61111"/>
          </g>
        </g>
      </g>
    </g>
    <g id="相性" transform="translate(-23388 -22713)">
      <g id="グループ_2504" data-name="グループ 2504" transform="translate(0.001 -0.286)">
        <g id="グループ_2493" data-name="グループ 2493" transform="translate(0 0)">
          <g transform="matrix(1, 0, 0, 1, -690, -39.71)" filter="url(#ログインパネル-3)">
            <rect id="ログインパネル-7" data-name="ログインパネル" width="300" height="179" rx="10" transform="translate(690 40)" fill="#fff"/>
          </g>
          <text id="相性_ラポール_" data-name="相性（ラポール）" transform="translate(-0.001 75.287)" fill="#1d1d1f" font-size="29" font-family="YuGothicUI-Regular, Yu Gothic UI"><tspan x="48.458" y="31">相性（ラポール）</tspan></text>
          <text id="CHEMISTRY" transform="translate(149.804 170.196)" fill="none" stroke="#f57412" stroke-width="1" font-size="39" font-family="Arial-BoldMT, Arial" font-weight="700" opacity="0.4"><tspan x="-114.115" y="0">CHEMISTRY</tspan></text>
          <g id="グループ_2203" data-name="グループ 2203" transform="translate(125.724 26.471)">
            <path id="パス_1085" data-name="パス 1085" d="M614.472,426.627c-2.493,3.409-1.859,8.546-1.831,8.763l.109.838h28.443l.227-.641a10.031,10.031,0,0,0-1.622-8.752c-1.918-2.691-5.011-3.683-7.269-4.406a12.964,12.964,0,0,1-2.2-.841c.147-.2.353-.455.519-.661a8.649,8.649,0,0,0,2.287-4.455c.234-2.823.525-6.338-1.455-8.488a7.334,7.334,0,0,0-9.467-.043c-1.9,2.043-1.663,5.317-1.454,8.206l.025.344c.122,1.7,1.409,3.389,2.35,4.621.148.194.326.427.466.624a19.658,19.658,0,0,1-2.293.916C618.941,423.49,616,424.536,614.472,426.627Zm11.116-4.175c.413-.746-.093-1.409-.93-2.508-.749-.981-1.879-2.465-1.96-3.592l-.025-.346c-.182-2.5-.387-5.327.943-6.757a5.509,5.509,0,0,1,6.645.036c1.409,1.53,1.157,4.577.95,7.067a7.244,7.244,0,0,1-1.862,3.365c-.816,1.009-1.46,1.806-.932,2.653.591.948,1.886,1.363,3.524,1.888,2.114.678,4.744,1.522,6.291,3.693a8.329,8.329,0,0,1,1.53,6.353H614.486c-.06-1.451.026-4.473,1.539-6.541,1.18-1.615,3.809-2.55,5.921-3.3C623.776,423.81,625.1,423.341,625.588,422.452Z" transform="translate(-612.549 -406.229)" fill="#f57412"/>
            <path id="パス_1086" data-name="パス 1086" d="M655.763,426.834c-1.917-2.69-5.01-3.681-7.268-4.406a12.882,12.882,0,0,1-2.2-.84c.147-.2.353-.455.518-.661a8.641,8.641,0,0,0,2.288-4.456c.234-2.822.525-6.336-1.455-8.487a7.334,7.334,0,0,0-9.467-.043c-1.9,2.043-1.663,5.317-1.454,8.206l.025.343c.122,1.7,1.409,3.39,2.35,4.622.148.194.325.427.466.624a19.661,19.661,0,0,1-2.293.916c-.777.276-1.615.58-2.445.931a11.345,11.345,0,0,1,1.944,1.3c.39-.145.777-.285,1.145-.416,1.829-.651,3.15-1.121,3.642-2.009.413-.746-.093-1.409-.931-2.508-.749-.981-1.879-2.465-1.96-3.592l-.025-.347c-.182-2.5-.388-5.327.943-6.756a5.509,5.509,0,0,1,6.645.036c1.409,1.53,1.157,4.577.95,7.067a7.244,7.244,0,0,1-1.862,3.365c-.816,1.009-1.46,1.8-.932,2.653.591.948,1.886,1.363,3.524,1.888,2.113.678,4.745,1.522,6.291,3.693a8.329,8.329,0,0,1,1.53,6.353H640.35a7.821,7.821,0,0,1-.31,1.422l-.177.5h17.3l.227-.642A10.029,10.029,0,0,0,655.763,426.834Z" transform="translate(-609.638 -406.229)" fill="#f57412"/>
          </g>
        </g>
      </g>
    </g>
    <g id="相手登録" transform="translate(-23733 -22713)">
      <g id="グループ_2505" data-name="グループ 2505" transform="translate(0 -0.228)">
        <g id="グループ_2491" data-name="グループ 2491">
          <g transform="matrix(1, 0, 0, 1, -345, -39.77)" filter="url(#ログインパネル-4)">
            <rect id="ログインパネル-8" data-name="ログインパネル" width="300" height="179" rx="10" transform="translate(345 40)" fill="#fff"/>
          </g>
          <text id="お相手登録" transform="translate(75.833 107.823)" fill="#1d1d1f" font-size="29" font-family="YuGothicUI-Regular, Yu Gothic UI"><tspan x="0" y="0">お相手登録</tspan></text>
          <text id="SETTING" transform="translate(150.196 170.196)" fill="none" stroke="#0379ae" stroke-width="1" font-size="39" font-family="Arial-BoldMT, Arial" font-weight="700" opacity="0.4"><tspan x="-84.503" y="0">SETTING</tspan></text>
          <g id="グループ_2490" data-name="グループ 2490" transform="translate(132.708 24.51)">
            <path id="パス_1083" data-name="パス 1083" d="M575.3,409.1l2.158-2.055h-19.1a1.819,1.819,0,0,0-1.817,1.817v27.658a1.819,1.819,0,0,0,1.817,1.817h25.287a1.819,1.819,0,0,0,1.817-1.817V419.174l-2.053,1.954v15.16H558.59V409.1Z" transform="translate(-556.537 -403.505)" fill="#0379ae"/>
            <path id="パス_1084" data-name="パス 1084" d="M581.953,405.068l-15.4,16.166c-.991,1.04-2.113,5.8-2.549,7.792a1.026,1.026,0,0,0,1,1.247.808.808,0,0,0,.13-.009c2.791-.356,7.624-1.111,8.625-2.162l15.4-16.166a3.4,3.4,0,0,0-.117-4.8l-2.288-2.18a3.407,3.407,0,0,0-4.8.116Zm2.463,1a1.331,1.331,0,0,1,.926.368l2.288,2.18a1.349,1.349,0,0,1,.046,1.9l-15.364,16.135c-.5.379-3.247.957-5.963,1.367a25.291,25.291,0,0,1,1.7-5.37l15.4-16.166a1.334,1.334,0,0,1,.941-.414Z" transform="translate(-555.28 -404.017)" fill="#0379ae"/>
          </g>
        </g>
      </g>
    </g>
  </g>
  <g id="非会員_pc-2" data-name="非会員 pc">
    <rect id="長方形_2633" data-name="長方形 2633" width="1680" height="484" opacity="0.56"/>
    <text id="サブスクリプション会員登録で_利用可能となります_" data-name="サブスクリプション会員登録で
利用可能となります。" transform="translate(840 179)" fill="#fff" font-size="50" font-family="SourceHanSansJP-Normal, Source Han Sans JP"><tspan x="-350" y="0">サブスクリプション会員登録で</tspan><tspan x="-246.75" y="73">利用可能となります。</tspan></text>
    <rect id="長方形_2651" data-name="長方形 2651" width="682" height="88" transform="translate(499 275)" fill="#ff0"/>
    <text id="サブスクリプション会員になる" transform="translate(508 307)" fill="#1d1d1f" font-size="24" font-family="SourceHanSansJP-Normal, Source Han Sans JP"><tspan x="173" y="28">サブスクリプション会員になる</tspan></text>
  </g>
</svg>
