<svg id="非会員_sp" data-name="非会員 sp" xmlns="http://www.w3.org/2000/svg" xmlns:xlink="http://www.w3.org/1999/xlink" width="375" height="1077" viewBox="0 0 375 1077">
  <defs>
    <filter id="ログインパネル" x="29.5" y="848.5" width="315" height="194" filterUnits="userSpaceOnUse">
      <feOffset dy="1" input="SourceAlpha"/>
      <feGaussianBlur stdDeviation="2.5" result="blur"/>
      <feFlood flood-opacity="0.2"/>
      <feComposite operator="in" in2="blur"/>
      <feComposite in="SourceGraphic"/>
    </filter>
    <filter id="ログインパネル-2" x="30" y="645.5" width="315" height="194.412" filterUnits="userSpaceOnUse">
      <feOffset dy="1" input="SourceAlpha"/>
      <feGaussianBlur stdDeviation="2.5" result="blur-2"/>
      <feFlood flood-opacity="0.2"/>
      <feComposite operator="in" in2="blur-2"/>
      <feComposite in="SourceGraphic"/>
    </filter>
    <filter id="ログインパネル-3" x="30" y="442.5" width="315" height="195" filterUnits="userSpaceOnUse">
      <feOffset dy="1" input="SourceAlpha"/>
      <feGaussianBlur stdDeviation="2.5" result="blur-3"/>
      <feFlood flood-opacity="0.2"/>
      <feComposite operator="in" in2="blur-3"/>
      <feComposite in="SourceGraphic"/>
    </filter>
    <filter id="ログインパネル-4" x="30" y="239.5" width="315" height="194" filterUnits="userSpaceOnUse">
      <feOffset dy="1" input="SourceAlpha"/>
      <feGaussianBlur stdDeviation="2.5" result="blur-4"/>
      <feFlood flood-opacity="0.2"/>
      <feComposite operator="in" in2="blur-4"/>
      <feComposite in="SourceGraphic"/>
    </filter>
    <filter id="ログインパネル-5" x="30" y="37.5" width="315" height="194" filterUnits="userSpaceOnUse">
      <feOffset dy="1" input="SourceAlpha"/>
      <feGaussianBlur stdDeviation="2.5" result="blur-5"/>
      <feFlood flood-opacity="0.2"/>
      <feComposite operator="in" in2="blur-5"/>
      <feComposite in="SourceGraphic"/>
    </filter>
  </defs>
  <g id="グループ_2560" data-name="グループ 2560" transform="translate(24026.5 21904)">
    <g id="ビジネス" transform="translate(-23989.5 -21049)">
      <g id="グループ_2501" data-name="グループ 2501" transform="translate(0 -0.012)">
        <g id="グループ_2499" data-name="グループ 2499">
          <g transform="matrix(1, 0, 0, 1, -37, -854.99)" filter="url(#ログインパネル)">
            <rect id="ログインパネル-6" data-name="ログインパネル" width="300" height="179" rx="10" transform="translate(37 855)" fill="#fff"/>
          </g>
          <path id="パス_1198" data-name="パス 1198" d="M5.636-10.238v6.2q0,2.082,1.246,2.294a23.522,23.522,0,0,0,4.234.3q2.917,0,6.429-.354V.382q-3.852.2-6.981.2A22.326,22.326,0,0,1,5.508.17Q3.427-.283,3.427-3.37V-22.217H5.636v9.955a33.694,33.694,0,0,0,9.388-6.146l1.487,1.756A39.93,39.93,0,0,1,5.636-10.238Zm7.859-13.594,1.473-.581a38.792,38.792,0,0,1,2.152,4.9l-1.572.637A30.005,30.005,0,0,0,13.495-23.832Zm3.271-.963,1.444-.524a23.958,23.958,0,0,1,2.067,4.758l-1.515.609A27.939,27.939,0,0,0,16.766-24.794Zm18.663.807,1.487-.581a29.188,29.188,0,0,1,2.138,4.9l-1.558.651A25.4,25.4,0,0,0,35.429-23.987ZM21.311-13.948l.991-1.742a59.809,59.809,0,0,1,6.811,2.959l-1.076,1.94A41.413,41.413,0,0,0,21.311-13.948Zm2.605-6.2,1.076-1.713a41.939,41.939,0,0,1,6.613,3.158l-1.161,1.912A36.329,36.329,0,0,0,23.917-20.15Zm14.911-4.7,1.444-.524a23.958,23.958,0,0,1,2.067,4.758l-1.515.609A27.938,27.938,0,0,0,38.827-24.851Zm.283,6.613,2.011,1.133a30.238,30.238,0,0,1-2.379,6.528A20.177,20.177,0,0,1,35.7-5.947,20.866,20.866,0,0,1,24.186.255L23-1.572A18.82,18.82,0,0,0,34.013-7.363Q37.5-11.215,39.11-18.238Zm17.063-1.189h6.556l.637,1.388a45.833,45.833,0,0,1-7.137,7.08V1.189H53.993V-9.3a47.579,47.579,0,0,1-8.751,4.715L44.052-6.23a39.645,39.645,0,0,0,16-11.257h-14.2v-1.94h8.085V-23.6h2.237Zm1.94,9.417,1.3-1.473a49.175,49.175,0,0,1,6.5,5.041L64.5-4.588A41.78,41.78,0,0,0,58.113-10.011ZM79.75-8.3A26.088,26.088,0,0,1,69.4.864L68.125-.807A25.46,25.46,0,0,0,77.6-8.949,29.334,29.334,0,0,0,81.846-19.4H69.668v-1.94H84.706a38.911,38.911,0,0,1-3.823,11.1A65.136,65.136,0,0,1,87.637-.5L85.5.864A52.048,52.048,0,0,0,79.75-8.3Zm35.23-8.808q0,.227-.255.227l-4.036-.057h-7.108v5.919h5.055l4.149-.057a.2.2,0,0,1,.227.227l-.057,3.4v3.214l.057,5.508q0,.241-.227.241h-1.43q-.227,0-.227-.241V-.085H95.723V1.388q0,.241-.227.241h-1.4q-.227,0-.227-.241l.057-5.565v-2.86l-.057-3.809a.2.2,0,0,1,.227-.227l4.121.057h3.568V-20.5a21.584,21.584,0,0,0-.227-3.625,17.392,17.392,0,0,1,2,.17q.382.057.382.269a.769.769,0,0,1-.057.241q-.071.184-.085.241a8.683,8.683,0,0,0-.212,2.379v2.209h7.108l4.036-.057q.255,0,.255.227ZM111.129-1.713V-9.388H95.723v7.675Zm17.6-5.976,1.77,1.274q-1.4,7-4.7,7a3.421,3.421,0,0,1-3.186-2.11,19.072,19.072,0,0,1-1.487-6.684q-.227-2.719-.227-7.335L120.928-21h2.1l-.042,4.531q0,5.48.241,8.085.552,6.669,2.521,6.669,1.005,0,1.685-1.473A24.677,24.677,0,0,0,128.73-7.689Zm4.347-11.073,1.883-.552q3.951,5.99,5.027,15.689l-2.181.354Q136.745-12.942,133.077-18.762Z" transform="translate(60.867 111.725)" fill="#1d1d1f"/>
          <path id="パス_1197" data-name="パス 1197" d="M-96.833-27.917h11.159a32.237,32.237,0,0,1,4.942.276,7.261,7.261,0,0,1,2.914,1.152,7.165,7.165,0,0,1,2.142,2.333,6.32,6.32,0,0,1,.857,3.266,6.5,6.5,0,0,1-1.057,3.6,6.55,6.55,0,0,1-2.866,2.457A7.347,7.347,0,0,1-74.82-12.3a6.723,6.723,0,0,1,1.371,4.208,8.3,8.3,0,0,1-.885,3.7,7.461,7.461,0,0,1-2.418,2.875A7.988,7.988,0,0,1-80.533-.19q-1.409.152-6.8.19h-9.5Zm5.637,4.646v6.456H-87.5q3.294,0,4.094-.1a3.726,3.726,0,0,0,2.276-1,2.948,2.948,0,0,0,.828-2.18,3.063,3.063,0,0,0-.714-2.1,3.233,3.233,0,0,0-2.123-.981q-.838-.1-4.818-.1Zm0,11.1V-4.7h5.218a25.5,25.5,0,0,0,3.866-.171,3.493,3.493,0,0,0,2.047-1.114,3.429,3.429,0,0,0,.79-2.371,3.642,3.642,0,0,0-.609-2.133,3.444,3.444,0,0,0-1.761-1.276,19.148,19.148,0,0,0-5-.4Zm22.471-15.749h5.637V-12.8a31.364,31.364,0,0,0,.209,4.666A4.521,4.521,0,0,0-61.156-5.38a6,6,0,0,0,3.723,1.038,5.68,5.68,0,0,0,3.618-.981,3.875,3.875,0,0,0,1.466-2.409,31.407,31.407,0,0,0,.248-4.742V-27.917h5.637v14.663a37.677,37.677,0,0,1-.457,7.1,7.862,7.862,0,0,1-1.685,3.5A8.515,8.515,0,0,1-51.892-.371a14.289,14.289,0,0,1-5.37.847,15.462,15.462,0,0,1-6.065-.924,8.673,8.673,0,0,1-3.266-2.4,7.691,7.691,0,0,1-1.581-3.094,33.9,33.9,0,0,1-.552-7.084ZM-41.952-9.083l5.484-.533a6.691,6.691,0,0,0,2.009,4.056,6.074,6.074,0,0,0,4.085,1.295,6.278,6.278,0,0,0,4.1-1.152,3.428,3.428,0,0,0,1.381-2.695A2.541,2.541,0,0,0-25.47-9.8,4.642,4.642,0,0,0-27.5-11.007q-.99-.343-4.513-1.219-4.532-1.124-6.36-2.761A7.264,7.264,0,0,1-40.942-20.6a7.176,7.176,0,0,1,1.209-3.99,7.571,7.571,0,0,1,3.485-2.828,13.967,13.967,0,0,1,5.494-.971q5.256,0,7.912,2.3a8.133,8.133,0,0,1,2.79,6.151l-5.637.248a4.787,4.787,0,0,0-1.552-3.094,5.682,5.682,0,0,0-3.571-.943,6.441,6.441,0,0,0-3.847,1.009,2.034,2.034,0,0,0-.9,1.733,2.144,2.144,0,0,0,.838,1.695q1.066.9,5.18,1.866a27.334,27.334,0,0,1,6.084,2.009,7.841,7.841,0,0,1,3.085,2.837,8.3,8.3,0,0,1,1.114,4.447,8.221,8.221,0,0,1-1.333,4.494A7.989,7.989,0,0,1-24.356-.524,15.812,15.812,0,0,1-30.431.5q-5.294,0-8.131-2.447A10.644,10.644,0,0,1-41.952-9.083ZM-14.682,0V-27.917h5.637V0ZM-3.618,0V-27.917H1.866L13.292-9.274V-27.917h5.237V0H12.873L1.619-18.205V0ZM24.489,0V-27.917h20.7v4.723H30.126v6.189H44.142v4.7H30.126v7.6h15.6V0ZM49.074-9.083l5.484-.533a6.691,6.691,0,0,0,2.009,4.056,6.074,6.074,0,0,0,4.085,1.295,6.278,6.278,0,0,0,4.1-1.152,3.428,3.428,0,0,0,1.381-2.695A2.541,2.541,0,0,0,65.555-9.8a4.642,4.642,0,0,0-2.028-1.209q-.99-.343-4.513-1.219-4.532-1.124-6.36-2.761A7.264,7.264,0,0,1,50.083-20.6a7.176,7.176,0,0,1,1.209-3.99,7.571,7.571,0,0,1,3.485-2.828,13.967,13.967,0,0,1,5.494-.971q5.256,0,7.912,2.3a8.133,8.133,0,0,1,2.79,6.151l-5.637.248a4.787,4.787,0,0,0-1.552-3.094,5.682,5.682,0,0,0-3.571-.943,6.441,6.441,0,0,0-3.847,1.009,2.034,2.034,0,0,0-.9,1.733,2.144,2.144,0,0,0,.838,1.695q1.066.9,5.18,1.866a27.334,27.334,0,0,1,6.084,2.009,7.841,7.841,0,0,1,3.085,2.837,8.3,8.3,0,0,1,1.114,4.447A8.221,8.221,0,0,1,70.44-3.637,7.989,7.989,0,0,1,66.669-.524,15.812,15.812,0,0,1,60.595.5Q55.3.5,52.463-1.952A10.644,10.644,0,0,1,49.074-9.083Zm26.013,0,5.484-.533A6.691,6.691,0,0,0,82.58-5.561a6.074,6.074,0,0,0,4.085,1.295,6.278,6.278,0,0,0,4.1-1.152,3.428,3.428,0,0,0,1.381-2.695A2.541,2.541,0,0,0,91.568-9.8a4.642,4.642,0,0,0-2.028-1.209q-.99-.343-4.513-1.219-4.532-1.124-6.36-2.761A7.264,7.264,0,0,1,76.1-20.6a7.176,7.176,0,0,1,1.209-3.99,7.571,7.571,0,0,1,3.485-2.828,13.967,13.967,0,0,1,5.494-.971q5.256,0,7.912,2.3a8.133,8.133,0,0,1,2.79,6.151l-5.637.248A4.787,4.787,0,0,0,89.8-22.785a5.682,5.682,0,0,0-3.571-.943,6.441,6.441,0,0,0-3.847,1.009,2.034,2.034,0,0,0-.9,1.733,2.144,2.144,0,0,0,.838,1.695q1.066.9,5.18,1.866a27.334,27.334,0,0,1,6.084,2.009,7.841,7.841,0,0,1,3.085,2.837,8.3,8.3,0,0,1,1.114,4.447,8.221,8.221,0,0,1-1.333,4.494A7.989,7.989,0,0,1,92.682-.524,15.812,15.812,0,0,1,86.607.5q-5.294,0-8.131-2.447A10.644,10.644,0,0,1,75.086-9.083Z" transform="translate(150.49 171.565)" fill="none" stroke="#707070" stroke-width="1" opacity="0.4"/>
          <g id="グループ_2205" data-name="グループ 2205" transform="translate(132.708 24.51)">
            <path id="パス_1092" data-name="パス 1092" d="M795.688,433.055V420.63a.847.847,0,0,0,0-.909v-6.745a3.333,3.333,0,0,0-3.329-3.33h-5.311v-2.46a8.692,8.692,0,0,0-17.383,0v2.46h-5.311a3.334,3.334,0,0,0-3.33,3.33v20.079a3.334,3.334,0,0,0,3.33,3.329h28.005A3.333,3.333,0,0,0,795.688,433.055Zm-23.963-25.869a6.632,6.632,0,0,1,13.263,0v2.46H771.725Zm22.061,25.869a1.428,1.428,0,0,1-1.427,1.427H764.354a1.428,1.428,0,0,1-1.427-1.427V421.126H774.3v2.022a3.333,3.333,0,0,0,3.329,3.329h.99a3.333,3.333,0,0,0,3.33-3.329v-2.022h11.836ZM776.2,423.148v-4.36a1.427,1.427,0,0,1,1.426-1.426h.99a1.427,1.427,0,0,1,1.427,1.426v4.36a1.428,1.428,0,0,1-1.427,1.426h-.99A1.428,1.428,0,0,1,776.2,423.148Zm17.583-3.924H781.95v-.436a3.333,3.333,0,0,0-3.33-3.329h-.99a3.333,3.333,0,0,0-3.329,3.329v.436H762.927v-6.248a1.428,1.428,0,0,1,1.427-1.427h28.005a1.428,1.428,0,0,1,1.427,1.427Z" transform="translate(-761.024 -398.494)"/>
          </g>
        </g>
      </g>
    </g>
    <g id="未来" transform="translate(-23989 -21252)">
      <g id="グループ_2502" data-name="グループ 2502" transform="translate(0)">
        <g id="グループ_2497" data-name="グループ 2497">
          <g transform="matrix(1, 0, 0, 1, -37.5, -652)" filter="url(#ログインパネル-2)">
            <rect id="ログインパネル-7" data-name="ログインパネル" width="300" height="179.412" rx="10" transform="translate(37.5 652)" fill="#fff"/>
          </g>
          <path id="パス_1196" data-name="パス 1196" d="M58.789,29.471a4.277,4.277,0,0,0-.892,1.119q-.212.411-.354.411a1.617,1.617,0,0,1-.439-.17,26.688,26.688,0,0,1-11.073-9.5q0,3.229.071,7.377.071,3.313.071,4.092a.2.2,0,0,1-.227.227H44.459a.2.2,0,0,1-.227-.227q0-.5.085-4.8.071-3.781.085-6.641a28.193,28.193,0,0,1-10.464,9.5,1.143,1.143,0,0,1-.439.17q-.17,0-.382-.411a3.1,3.1,0,0,0-.835-1.062,27.979,27.979,0,0,0,6.811-4.4,23.424,23.424,0,0,0,4.262-4.871h-6l-3.852.057a.2.2,0,0,1-.227-.227v-1.26a.2.2,0,0,1,.227-.227l3.852.057h6.967v-5.14H39.942l-4.121.057q-.241,0-.241-.227V12.082q0-.227.241-.227l4.121.057h4.375V10.284a20.954,20.954,0,0,0-.2-3.384,17.066,17.066,0,0,1,1.94.17q.382.042.382.227,0,.042-.184.637a10.993,10.993,0,0,0-.17,2.322v1.657h4.984l4.121-.057a.2.2,0,0,1,.227.227v1.289a.2.2,0,0,1-.227.227l-4.121-.057H46.087v5.14h7.477l3.894-.057a.2.2,0,0,1,.227.227v1.26a.2.2,0,0,1-.227.227l-3.894-.057H46.923a24.107,24.107,0,0,0,5.338,5.466A28.786,28.786,0,0,0,58.789,29.471Zm26.9.51a3.869,3.869,0,0,0-.906,1.133q-.241.439-.382.439a1.683,1.683,0,0,1-.425-.142,31.52,31.52,0,0,1-6.74-4.064A20.512,20.512,0,0,1,72.987,22.5q.014,3.087.085,7.009.057,2.988.057,3.37,0,.2-.241.2H71.471q-.227,0-.227-.2,0-.34.057-4.106.071-3.37.085-6.188a23.47,23.47,0,0,1-4.715,5.282,30.551,30.551,0,0,1-5.522,3.512,1.477,1.477,0,0,1-.467.17q-.127,0-.382-.411a3.607,3.607,0,0,0-.835-1.034Q66.7,26.922,70.225,21.7H64.193l-3.866.057q-.227,0-.227-.255v-1.2a.2.2,0,0,1,.227-.227l3.866.057H71.33V12.9H65.878l-4.036.057a.2.2,0,0,1-.227-.227v-1.26a.2.2,0,0,1,.227-.227l4.036.057H71.33V10.255a18.833,18.833,0,0,0-.212-3.328,13.219,13.219,0,0,1,1.926.142q.354.042.354.227a.94.94,0,0,1-.085.368l-.1.3a11.929,11.929,0,0,0-.142,2.294V11.3h5.976l4.021-.057q.241,0,.241.227v1.26q0,.227-.241.227L79.047,12.9H73.072v7.222h2.436a38.848,38.848,0,0,0,2.322-4.319,6.587,6.587,0,0,0,.51-1.657,13.138,13.138,0,0,1,1.742.552q.326.142.326.354a.441.441,0,0,1-.269.368,3.287,3.287,0,0,0-.835,1.218,35.336,35.336,0,0,1-2.025,3.483h3.356l3.866-.057a.2.2,0,0,1,.227.227v1.2q0,.255-.227.255L80.633,21.7H74.049Q77.815,26.95,85.688,29.98ZM68.016,18.327a.326.326,0,0,1,.028.113q0,.113-.269.241l-.949.4a1.1,1.1,0,0,1-.326.1q-.1,0-.17-.184a22.4,22.4,0,0,0-1.968-4.036.306.306,0,0,1-.071-.156q0-.1.3-.212l.906-.354a.777.777,0,0,1,.227-.071q.085,0,.17.127A23.189,23.189,0,0,1,68.016,18.327Zm43.934.666q0,.241-.354.439a4.166,4.166,0,0,0-1.034.963,24.479,24.479,0,0,1-3.752,3.6q-.3.255-.411.255a1.8,1.8,0,0,1-.481-.326,5.787,5.787,0,0,0-1.26-.694,17.781,17.781,0,0,0,4.121-3.6h-8.057v6.358l.028,3.965a2.573,2.573,0,0,1-.75,2.124q-.736.552-3.54.552H95.85q-.481,0-.566-.1a1.325,1.325,0,0,1-.184-.51,5.916,5.916,0,0,0-.581-1.43,29.239,29.239,0,0,0,3.016.184A1.531,1.531,0,0,0,98.6,30.5a1.212,1.212,0,0,0,.241-.864V19.629H91.5l-3.866.057a.2.2,0,0,1-.227-.227v-1.4a.2.2,0,0,1,.227-.227l3.866.057h9.1a30.716,30.716,0,0,0-6.117-4.4q-.156-.085-.156-.127a1.248,1.248,0,0,1,.212-.312l.581-.666q.156-.17.241-.17a.306.306,0,0,1,.156.071,32.927,32.927,0,0,1,3.7,2.28,37.164,37.164,0,0,0,6.4-4.291h-11.4l-4.078.057q-.212,0-.212-.227V8.754q0-.227.212-.227l4.078.057h12.149a2.167,2.167,0,0,0,.708-.085,2.6,2.6,0,0,1,.4-.142q.269,0,.906.637t.637.963q0,.241-.411.4a3.327,3.327,0,0,0-1.005.609,39.333,39.333,0,0,1-6.967,4.63q.524.425,1.742,1.515.1.085.1.127a1.422,1.422,0,0,1-.255.269l-.4.382h7.533a1.641,1.641,0,0,0,.736-.113.869.869,0,0,1,.34-.113,2.213,2.213,0,0,1,.935.552Q111.95,18.723,111.95,18.992Zm17.044,6.386a.2.2,0,0,1-.227.227l-2.535-.057h-2.45l-2.535.057a.2.2,0,0,1-.227-.227l.057-3.795V12.464L121.022,8.7a.2.2,0,0,1,.227-.227l2.535.057h2.45l2.535-.057a.2.2,0,0,1,.227.227l-.057,3.767v9.119Zm-1.628-1.246V20.182H122.65v3.951Zm0-10.422V9.944H122.65V13.71Zm0,5.083V15.1H122.65v3.7ZM138.538,7.707a1.729,1.729,0,0,1-.17.552,10.91,10.91,0,0,0-.156,2.535V25.166l.057,4.39a2.739,2.739,0,0,1-.864,2.322,4.89,4.89,0,0,1-2.761.524h-.552q-.453,0-.538-.1a1.125,1.125,0,0,1-.184-.481,3.239,3.239,0,0,0-.524-1.289,20.28,20.28,0,0,0,2.209.127,1.185,1.185,0,0,0,1.444-1.43V10.822a21.745,21.745,0,0,0-.2-3.512q.538.014,1.883.142Q138.538,7.508,138.538,7.707Zm-4.885,2.237a.562.562,0,0,1-.071.241,1.462,1.462,0,0,0-.1.227,19.513,19.513,0,0,0-.113,3.016v7.717l.057,3.682a.2.2,0,0,1-.227.227h-1.289a.2.2,0,0,1-.227-.227l.057-3.682V13.456a26.26,26.26,0,0,0-.2-3.908,12.608,12.608,0,0,1,1.8.142Q133.653,9.731,133.653,9.944Zm-14.684,14.5q-1.005,2.535-2.818,6.273a10.793,10.793,0,0,0-.552,1.175q-.071.354-.326.354a1.055,1.055,0,0,1-.368-.17,9.063,9.063,0,0,1-1.189-1.02,12.1,12.1,0,0,0,1.444-2.209,39.126,39.126,0,0,0,2.7-6.146,5.409,5.409,0,0,0,.835.85q.411.283.411.453A1.6,1.6,0,0,1,118.969,24.444Zm5.154,3.257q0,.127-.2.283a3.158,3.158,0,0,0-.581.666,17.724,17.724,0,0,1-2.988,3.568q-.326.326-.439.326-.142,0-.411-.354a2.3,2.3,0,0,0-.835-.637,15.213,15.213,0,0,0,3.455-3.852,3.568,3.568,0,0,0,.4-1.02,12.3,12.3,0,0,1,1.345.694Q124.123,27.531,124.123,27.7Zm-5.834-10.238q.113.1.113.156a1.965,1.965,0,0,1-.227.326l-.552.765q-.17.241-.283.241-.071,0-.17-.113a17.847,17.847,0,0,0-3.625-3q-.142-.085-.142-.156a.806.806,0,0,1,.2-.312l.552-.694q.085-.17.212-.17a.413.413,0,0,1,.212.085A18.363,18.363,0,0,1,118.289,17.463Zm12.418,13.424a2.774,2.774,0,0,0-.991.722q-.269.326-.368.326t-.411-.354a29.52,29.52,0,0,1-2.79-4.007.273.273,0,0,1-.057-.127q0-.085.326-.241l.609-.354a1.045,1.045,0,0,1,.3-.127q.071,0,.17.156A17.077,17.077,0,0,0,130.707,30.887ZM119.337,10.354a.361.361,0,0,1,.113.2.666.666,0,0,1-.2.326l-.609.75q-.184.241-.283.241a.267.267,0,0,1-.184-.113,14.934,14.934,0,0,0-3.356-3.087q-.113-.071-.113-.127a.977.977,0,0,1,.2-.312l.581-.666q.17-.184.255-.184a.377.377,0,0,1,.17.071A16.227,16.227,0,0,1,119.337,10.354ZM166.584,6.7a18.3,18.3,0,0,0-5.239,6.726,16.712,16.712,0,0,0-1.2,6.556,16.33,16.33,0,0,0,1.6,7.42,19.137,19.137,0,0,0,4.843,5.862l-.722.835a19.916,19.916,0,0,1-6.089-6.981,16.119,16.119,0,0,1-1.515-7.137,15.866,15.866,0,0,1,2-8.057,21.037,21.037,0,0,1,5.607-6.061Zm4.852,14.061v6.2q0,2.082,1.246,2.294a23.523,23.523,0,0,0,4.234.3q2.917,0,6.429-.354v2.181q-3.852.2-6.981.2a22.326,22.326,0,0,1-5.055-.411q-2.082-.453-2.082-3.54V8.783h2.209v9.955a33.694,33.694,0,0,0,9.388-6.146l1.487,1.756A39.931,39.931,0,0,1,171.436,20.762Zm7.859-13.594,1.473-.581a38.792,38.792,0,0,1,2.152,4.9l-1.572.637A30.006,30.006,0,0,0,179.295,7.168Zm3.271-.963,1.444-.524a23.958,23.958,0,0,1,2.067,4.758l-1.515.609A27.938,27.938,0,0,0,182.566,6.206Zm16.633.807,1.487-.581a29.188,29.188,0,0,1,2.138,4.9l-1.558.651A25.4,25.4,0,0,0,199.2,7.013Zm-14.118,10.04.991-1.742a59.81,59.81,0,0,1,6.811,2.959l-1.076,1.94A41.413,41.413,0,0,0,185.081,17.052Zm2.605-6.2,1.076-1.713a41.939,41.939,0,0,1,6.613,3.158l-1.161,1.912A36.329,36.329,0,0,0,187.687,10.85Zm14.911-4.7,1.444-.524a23.958,23.958,0,0,1,2.067,4.758l-1.515.609A27.938,27.938,0,0,0,202.6,6.149Zm.283,6.613,2.011,1.133a30.238,30.238,0,0,1-2.379,6.528,20.177,20.177,0,0,1-3.044,4.63,20.866,20.866,0,0,1-11.512,6.2l-1.189-1.827a18.82,18.82,0,0,0,11.017-5.792Q201.266,19.785,202.881,12.762ZM217.6,21.229V15.693H207.591V13.81h12.178V31.581H207.449V29.726H217.6V23.084H208V21.229Zm6.14-10.875a49.692,49.692,0,0,1,6.811,4.319l-1.444,1.912a42.167,42.167,0,0,0-6.669-4.517ZM238.356,11.8l2.181,1.048a23.637,23.637,0,0,1-5.4,12.022,23.069,23.069,0,0,1-11.569,6.684l-.991-1.968Q236.189,26.228,238.356,11.8Zm3-5.1.722-.835a19.916,19.916,0,0,1,6.089,6.981,16.119,16.119,0,0,1,1.515,7.137,15.866,15.866,0,0,1-2,8.057,21.037,21.037,0,0,1-5.607,6.061l-.722-.835a18.3,18.3,0,0,0,5.239-6.726,16.712,16.712,0,0,0,1.2-6.556,16.33,16.33,0,0,0-1.6-7.42A19.137,19.137,0,0,0,241.353,6.7Z" transform="translate(0.001 84.571)" fill="#1d1d1f"/>
          <path id="パス_1195" data-name="パス 1195" d="M-76.2,0V-27.917h19.138v4.723h-13.5v6.608h11.654v4.723H-70.564V0Zm23.747-27.917h5.637V-12.8a31.364,31.364,0,0,0,.209,4.666A4.521,4.521,0,0,0-44.884-5.38a6,6,0,0,0,3.723,1.038,5.68,5.68,0,0,0,3.618-.981,3.875,3.875,0,0,0,1.466-2.409,31.407,31.407,0,0,0,.248-4.742V-27.917h5.637v14.663a37.677,37.677,0,0,1-.457,7.1,7.862,7.862,0,0,1-1.685,3.5A8.515,8.515,0,0,1-35.62-.371a14.289,14.289,0,0,1-5.37.847,15.462,15.462,0,0,1-6.065-.924,8.673,8.673,0,0,1-3.266-2.4A7.691,7.691,0,0,1-51.9-5.941a33.9,33.9,0,0,1-.552-7.084ZM-17.967,0V-23.194h-8.284v-4.723H-4.066v4.723H-12.33V0Zm17.5-27.917H5.17V-12.8A31.364,31.364,0,0,0,5.38-8.131,4.521,4.521,0,0,0,7.1-5.38a6,6,0,0,0,3.723,1.038,5.68,5.68,0,0,0,3.618-.981A3.875,3.875,0,0,0,15.91-7.731a31.408,31.408,0,0,0,.248-4.742V-27.917h5.637v14.663a37.677,37.677,0,0,1-.457,7.1,7.862,7.862,0,0,1-1.685,3.5A8.515,8.515,0,0,1,16.367-.371,14.289,14.289,0,0,1,11,.476,15.462,15.462,0,0,1,4.932-.448a8.673,8.673,0,0,1-3.266-2.4A7.691,7.691,0,0,1,.086-5.941a33.9,33.9,0,0,1-.552-7.084ZM27.755,0V-27.917H39.619a20.306,20.306,0,0,1,6.5.752,6.415,6.415,0,0,1,3.247,2.676,8.042,8.042,0,0,1,1.219,4.4A7.452,7.452,0,0,1,48.74-14.9a8.871,8.871,0,0,1-5.522,2.58,13.151,13.151,0,0,1,3.018,2.342,31.817,31.817,0,0,1,3.209,4.532L52.854,0H46.113L42.037-6.075a39.4,39.4,0,0,0-2.971-4.1,4.326,4.326,0,0,0-1.695-1.162,9.291,9.291,0,0,0-2.837-.314H33.392V0Zm5.637-16.11h4.17a21.536,21.536,0,0,0,5.065-.343,3.036,3.036,0,0,0,1.581-1.181,3.635,3.635,0,0,0,.571-2.095A3.347,3.347,0,0,0,44.027-22,3.452,3.452,0,0,0,41.9-23.1q-.686-.1-4.113-.1h-4.4ZM55.9,0V-27.917H76.6v4.723H61.537v6.189H75.553v4.7H61.537v7.6h15.6V0Z" transform="translate(150.078 170.411)" fill="none" stroke="#119e8e" stroke-width="1" opacity="0.4"/>
          <g id="グループ_2204" data-name="グループ 2204" transform="translate(128.431 24.51)">
            <path id="パス_1090" data-name="パス 1090" d="M725.908,404.519v12.092h24.775l7.359-5.544-7.3-6.548Zm24.014,9.818h-21.74v-7.545h21.687l4.6,4.122Z" transform="translate(-715.434 -404.519)" fill="#119e8e"/>
            <path id="パス_1091" data-name="パス 1091" d="M735.138,427.851v10.467h2.274l0-10.468h12.071V415.759H724.709l-7.36,5.544,7.3,6.548Zm-9.668-9.818h21.74v7.545H725.524l-4.6-4.122Z" transform="translate(-717.349 -402.004)" fill="#119e8e"/>
          </g>
        </g>
      </g>
    </g>
    <g id="週間" transform="translate(-23989 -21455)">
      <g id="グループ_2503" data-name="グループ 2503" transform="translate(0 0.459)">
        <g id="グループ_2495" data-name="グループ 2495" transform="translate(0 0)">
          <g transform="matrix(1, 0, 0, 1, -37.5, -449.46)" filter="url(#ログインパネル-3)">
            <rect id="ログインパネル-8" data-name="ログインパネル" width="300" height="180" rx="10" transform="translate(37.5 449)" fill="#fff"/>
          </g>
          <path id="パス_1194" data-name="パス 1194" d="M73.563,11.629h7.448q0,10.139-3.243,14.812Q75.134,30.207,69,32.331l-1.189-1.685q5.976-1.954,8.383-5.82,2.436-3.922,2.436-11.257H66.171v7.165H63.934v-9.1h7.392V7.4h2.237Zm15.657,8.5a61.829,61.829,0,0,1-6.783,4.064l-1.218-1.657A37.1,37.1,0,0,0,94.5,12.238l1.77,1.331A32.854,32.854,0,0,1,91.343,18.5V32.189H89.219Zm7.189-1.02h15.774v2.152H96.408Zm23.36-6.457a27.191,27.191,0,0,1-5.338,8.34l-1.657-1.274A25.368,25.368,0,0,0,119.031,7.65L121.325,8q-.3,1.119-.835,2.719h10.054q-1.359,10-5.537,15.236a21.694,21.694,0,0,1-9.162,6.429l-1.274-1.558a20.083,20.083,0,0,0,9.289-6.868,26.062,26.062,0,0,0,4.078-11.314ZM136.2,8.7V22.915h-2.237V8.7Zm-.821,21.75q5.239-1.119,7.193-3.752,1.855-2.506,1.855-7.59V8.528h2.237V19.4q0,6.273-2.8,9.232-2.322,2.45-7.434,3.554Zm13.9-11.342h15.774v2.152H149.283Zm20.259,1.657v6.2q0,2.082,1.246,2.294a23.523,23.523,0,0,0,4.234.3q2.917,0,6.429-.354v2.181q-3.852.2-6.981.2a22.326,22.326,0,0,1-5.055-.411q-2.082-.453-2.082-3.54V8.783h2.209v9.955a33.694,33.694,0,0,0,9.388-6.146l1.487,1.756A39.931,39.931,0,0,1,169.541,20.762ZM177.4,7.168l1.473-.581a38.792,38.792,0,0,1,2.152,4.9l-1.572.637A30.006,30.006,0,0,0,177.4,7.168Zm3.271-.963,1.444-.524a23.958,23.958,0,0,1,2.067,4.758l-1.515.609A27.938,27.938,0,0,0,180.671,6.206Zm16.053.807,1.487-.581a29.188,29.188,0,0,1,2.138,4.9l-1.558.651A25.4,25.4,0,0,0,196.724,7.013Zm-14.118,10.04.991-1.742a59.81,59.81,0,0,1,6.811,2.959l-1.076,1.94A41.413,41.413,0,0,0,182.607,17.052Zm2.605-6.2,1.076-1.713a41.939,41.939,0,0,1,6.613,3.158l-1.161,1.912A36.329,36.329,0,0,0,185.212,10.85Zm14.911-4.7,1.444-.524a23.958,23.958,0,0,1,2.067,4.758l-1.515.609A27.938,27.938,0,0,0,200.123,6.149Zm.283,6.613,2.011,1.133a30.238,30.238,0,0,1-2.379,6.528,20.177,20.177,0,0,1-3.044,4.63,20.866,20.866,0,0,1-11.512,6.2l-1.189-1.827a18.82,18.82,0,0,0,11.017-5.792Q198.792,19.785,200.406,12.762Zm14.141,8.468V15.693H204.536V13.81h12.178V31.581H204.395V29.726h10.153V23.084h-9.6V21.229Zm5.56-10.875a49.692,49.692,0,0,1,6.811,4.319l-1.444,1.912a42.167,42.167,0,0,0-6.669-4.517ZM234.721,11.8l2.181,1.048a23.637,23.637,0,0,1-5.4,12.022,23.069,23.069,0,0,1-11.569,6.684l-.991-1.968Q232.555,26.228,234.721,11.8Z" transform="translate(0.001 81.821)" fill="#1d1d1f"/>
          <path id="パス_1193" data-name="パス 1193" d="M-74.829,0l-6.665-27.917h5.77l4.208,19.176,5.1-19.176h6.7l4.894,19.5,4.285-19.5h5.675L-51.635,0h-5.979l-5.561-20.871L-68.717,0ZM-41.98,0V-27.917h20.7v4.723H-36.344v6.189h14.016v4.7H-36.344v7.6h15.6V0Zm26.013,0V-27.917h20.7v4.723H-10.331v6.189H3.685v4.7H-10.331v7.6h15.6V0ZM10.121,0V-27.917h5.637v12.4l11.388-12.4h7.579L24.213-17.043,35.3,0H28L20.328-13.1l-4.57,4.666V0ZM38.362,0V-27.688H44V-4.7H58.014V0ZM65.784,0V-11.75L55.558-27.917h6.608l6.57,11.045,6.437-11.045h6.494L71.4-11.711V0Z" transform="translate(149.176 170.196)" fill="none" stroke="#d61111" stroke-width="1" opacity="0.4"/>
          <g id="グループ_2206" data-name="グループ 2206" transform="translate(130.713 23.529)">
            <path id="パス_1087" data-name="パス 1087" d="M688.083,423.673c-.372-.12-.811-.26-1.133-.4l.133-.165a6.034,6.034,0,0,0,1.6-3.149c.162-1.952.363-4.38-1.052-5.917a5.2,5.2,0,0,0-6.776-.031c-1.36,1.464-1.2,3.728-1.052,5.727l.017.231a6.719,6.719,0,0,0,1.635,3.256l.108.14c-.355.154-.832.323-1.205.456-1.621.578-3.641,1.3-4.721,2.771-1.738,2.376-1.3,5.94-1.283,6.091l.105.808h19.558l.219-.618a7.035,7.035,0,0,0-1.125-6.139C691.769,424.854,689.639,424.171,688.083,423.673Zm-4.5.422c.367-.663-.059-1.221-.648-1.993a5.758,5.758,0,0,1-1.26-2.263l-.016-.233c-.119-1.619-.252-3.455.559-4.326a3.443,3.443,0,0,1,4.049.023c.864.938.7,2.932.564,4.534a4.707,4.707,0,0,1-1.188,2.106c-.57.7-1.108,1.368-.647,2.109.452.725,1.365,1.018,2.523,1.39,1.38.442,3.1.993,4.082,2.375a5.327,5.327,0,0,1,1.016,3.823H676.15a6.78,6.78,0,0,1,.986-3.946c.742-1.014,2.461-1.626,3.845-2.119C682.269,425.116,683.2,424.785,683.581,424.095Z" transform="translate(-668.445 -398.02)" fill="#d61111"/>
            <path id="パス_1088" data-name="パス 1088" d="M704.82,426.738c-1.343-1.885-3.472-2.568-5.028-3.066-.372-.119-.811-.26-1.132-.4l.132-.166a6.009,6.009,0,0,0,1.6-3.148c.163-1.95.365-4.379-1.05-5.918a5.2,5.2,0,0,0-6.776-.029c-1.361,1.464-1.2,3.728-1.052,5.727l.017.231a6.715,6.715,0,0,0,1.637,3.258l.105.139c-.355.154-.831.323-1.205.456-.5.179-1.083.389-1.656.631l-.548.232.526.278a7.35,7.35,0,0,1,1.256.839l.127.106.154-.058c.261-.1.52-.191.767-.279,1.287-.458,2.216-.788,2.6-1.479.368-.663-.059-1.221-.648-1.993a5.741,5.741,0,0,1-1.258-2.263l-.017-.233c-.119-1.619-.252-3.455.559-4.326a3.444,3.444,0,0,1,4.049.023c.864.938.7,2.932.565,4.534a4.707,4.707,0,0,1-1.189,2.106c-.57.7-1.108,1.368-.647,2.109s1.366,1.018,2.526,1.39c1.378.443,3.095.994,4.078,2.375a5.328,5.328,0,0,1,1.016,3.823H693.987l-.033.244a4.9,4.9,0,0,1-.195.9l-.252.712h12.219l.218-.62A7.018,7.018,0,0,0,704.82,426.738Z" transform="translate(-666.41 -398.02)" fill="#d61111"/>
            <path id="パス_1089" data-name="パス 1089" d="M699.693,404.349h-.7v-1.608a3.144,3.144,0,0,0-6.283,0v1.608H679.667v-1.424a3.144,3.144,0,0,0-6.283,0v1.424h-.994a3.273,3.273,0,0,0-3.269,3.269v24.225a3.272,3.272,0,0,0,3.269,3.268h.867V433.2l-.867-.008a1.347,1.347,0,0,1-1.345-1.346V407.618a1.347,1.347,0,0,1,1.345-1.346h.994v1.178a3.144,3.144,0,0,0,6.283,0v-1.178h13.039v.994a3.144,3.144,0,0,0,6.283,0v-.994h.7a1.348,1.348,0,0,1,1.347,1.346v5.8h1.922v-5.8A3.273,3.273,0,0,0,699.693,404.349Zm-21.89,3.1a1.283,1.283,0,0,1-2.553,0v-4.525a1.284,1.284,0,0,1,2.553,0Zm19.323-.184a1.284,1.284,0,0,1-2.554,0v-4.525a1.284,1.284,0,0,1,2.554,0Z" transform="translate(-669.121 -399.726)" fill="#d61111"/>
          </g>
        </g>
      </g>
    </g>
    <g id="相性" transform="translate(-23989 -21658)">
      <g id="グループ_2504" data-name="グループ 2504" transform="translate(0 -0.286)">
        <g id="グループ_2493" data-name="グループ 2493" transform="translate(0 0)">
          <g transform="matrix(1, 0, 0, 1, -37.5, -245.71)" filter="url(#ログインパネル-4)">
            <rect id="ログインパネル-9" data-name="ログインパネル" width="300" height="179" rx="10" transform="translate(37.5 246)" fill="#fff"/>
          </g>
          <path id="パス_1189" data-name="パス 1189" d="M74.526,32.628a.2.2,0,0,1-.227.227H73.011a.2.2,0,0,1-.227-.227V30.915H63.736v1.827q0,.2-.227.2H62.221q-.227,0-.227-.2l.057-10.592V16.358l-.057-7.6a.2.2,0,0,1,.227-.227l3.54.057h5.027L74.3,8.528a.2.2,0,0,1,.227.227l-.057,6.783v6.556Zm-1.742-3.313V23.722H63.736v5.593Zm0-13.919V10.213H63.736V15.4Zm0,6.754V16.967H63.736V22.15ZM60.749,21.017a4.868,4.868,0,0,0-.722,1.331q-.142.382-.241.382t-.283-.312a32.731,32.731,0,0,1-3.073-6.061q.014,5.806.156,11.994.028,1.515.071,3.441.028.949.028,1.034,0,.227-.255.227h-1.4q-.255,0-.255-.227,0-.042.057-2.478.156-7.236.2-13.65a32.4,32.4,0,0,1-4.375,9.459q-.2.283-.326.283t-.255-.312a3.684,3.684,0,0,0-.75-1.161,31.788,31.788,0,0,0,3.044-4.857,42.938,42.938,0,0,0,2.195-5.324h-.92l-3.243.057q-.241,0-.241-.227V13.427q0-.227.241-.227l3.243.057h1.246V10.5a22.482,22.482,0,0,0-.2-3.54q.963.042,1.855.17.382.057.382.241a1.828,1.828,0,0,1-.17.581,8.919,8.919,0,0,0-.184,2.492v2.818h.354L60.14,13.2a.2.2,0,0,1,.227.227v1.189a.2.2,0,0,1-.227.227l-3.214-.057H56.8A23.734,23.734,0,0,0,60.749,21.017ZM105.1,31.581q0,.255-.227.255l-4.064-.057H91.15l-4.064.057q-.227,0-.227-.255V30.349a.2.2,0,0,1,.227-.227l4.064.057h4.206V23.141H93.147l-3.738.057a.2.2,0,0,1-.227-.227V21.782q0-.241.227-.241l3.738.057h2.209v-6.16H90.768a25.569,25.569,0,0,1-2.053,4.135q-.255.382-.354.382a.827.827,0,0,1-.368-.17,3.528,3.528,0,0,0-1.161-.467,20.7,20.7,0,0,0,2.379-4.446,21.96,21.96,0,0,0,1.274-4.163A9.622,9.622,0,0,0,90.6,9.165a10.091,10.091,0,0,1,1.713.467q.354.142.354.312a.691.691,0,0,1-.17.382,2.151,2.151,0,0,0-.354.835,27.011,27.011,0,0,1-.821,2.733h4.036V10.878A28,28,0,0,0,95.129,6.9a15.109,15.109,0,0,1,1.912.184q.354.042.354.227a2.484,2.484,0,0,1-.113.524,13.806,13.806,0,0,0-.212,2.988v3.073h3.073l3.71-.057q.241,0,.241.227v1.2q0,.227-.241.227l-3.71-.057H97.069V21.6H99.25l3.71-.057q.227,0,.227.241v1.189a.2.2,0,0,1-.227.227l-3.71-.057H97.069v7.038h3.738l4.064-.057a.2.2,0,0,1,.227.227ZM84.722,7.31a5.06,5.06,0,0,1-.113.524,11.783,11.783,0,0,0-.212,2.988V27.658l.057,5.112a.2.2,0,0,1-.227.227H82.853a.2.2,0,0,1-.227-.227l.057-5.069V10.878a24.323,24.323,0,0,0-.227-3.951,12.56,12.56,0,0,1,1.912.142Q84.722,7.126,84.722,7.31Zm-3.2,6.344A21,21,0,0,1,80.247,19.6q-.057.127-.156.127a.748.748,0,0,1-.255-.071l-.722-.255q-.382-.127-.382-.241a.653.653,0,0,1,.057-.227,19.072,19.072,0,0,0,1.218-5.707q.028-.184.142-.184a1.607,1.607,0,0,1,.3.057l.75.241q.326.085.326.227ZM87.7,16.613a.638.638,0,0,1,.028.127q0,.142-.312.255l-.637.255a1.368,1.368,0,0,1-.354.1q-.127,0-.142-.184a25.533,25.533,0,0,0-1.048-4.007.326.326,0,0,1-.042-.127q0-.1.368-.241l.581-.241a.653.653,0,0,1,.227-.057q.127,0,.17.156A29.867,29.867,0,0,1,87.7,16.613ZM134.211,6.7a18.3,18.3,0,0,0-5.239,6.726,16.712,16.712,0,0,0-1.2,6.556,16.33,16.33,0,0,0,1.6,7.42,19.137,19.137,0,0,0,4.843,5.862l-.722.835A19.916,19.916,0,0,1,127.4,27.12a16.119,16.119,0,0,1-1.515-7.137,15.866,15.866,0,0,1,2-8.057,21.037,21.037,0,0,1,5.607-6.061ZM139,9.023h13.141v1.94H139Zm-1.77,6.174h16.383q-.326,8.284-4.05,12.348-2.945,3.229-8.907,4.7l-1.048-1.657q5.961-1.458,8.779-5a14.323,14.323,0,0,0,2.818-8.454H137.228Zm31.322-2.379h9.19V14.73h-9.19V32.189h-2.209V14.73h-9.077V12.818h9.077V7.806h2.209Zm-5.721,5.834a35.611,35.611,0,0,1-4.206,11.328l-1.94-1.062A29.469,29.469,0,0,0,160.719,18Zm9.02.2,2.025-.75a51.3,51.3,0,0,0,4.121,10.606l-2.11,1.133A77.511,77.511,0,0,1,171.849,18.851ZM175.97,5.54A3.114,3.114,0,0,1,178.377,6.6a3.17,3.17,0,0,1,.835,2.181,3.23,3.23,0,0,1-3.243,3.257,3.1,3.1,0,0,1-2.407-1.076,3.136,3.136,0,0,1-.835-2.181A3.23,3.23,0,0,1,175.97,5.54Zm0,1.246a1.945,1.945,0,0,0-1.5.651,1.976,1.976,0,0,0-.5,1.345,1.945,1.945,0,0,0,.651,1.5,2.026,2.026,0,0,0,2.832-.142,1.962,1.962,0,0,0,.51-1.359,1.976,1.976,0,0,0-2-2Zm5.381,12.319h15.774v2.152H181.351Zm31.421,9.487q4.715-3.2,7.533-9.969l1.487,1.94a26.388,26.388,0,0,1-9.983,11.371l-1.246-.651V8.726h2.209ZM206.6,8.924q0,8.241-.283,11.895a22.252,22.252,0,0,1-.821,4.871,13.573,13.573,0,0,1-4.234,6.245l-1.685-1.317a10.752,10.752,0,0,0,3.951-5.763,27.571,27.571,0,0,0,.722-5.961q.142-3.214.142-9.969ZM223.845,6.7l.722-.835a19.916,19.916,0,0,1,6.089,6.981,16.119,16.119,0,0,1,1.515,7.137,15.866,15.866,0,0,1-2,8.057,21.037,21.037,0,0,1-5.607,6.061l-.722-.835a18.3,18.3,0,0,0,5.239-6.726,16.712,16.712,0,0,0,1.2-6.556,16.33,16.33,0,0,0-1.6-7.42A19.137,19.137,0,0,0,223.845,6.7Z" transform="translate(-0.001 75.287)" fill="#1d1d1f"/>
          <path id="パス_1190" data-name="パス 1190" d="M-93.415-10.264l5.465,1.733a12.258,12.258,0,0,1-4.18,6.789A11.923,11.923,0,0,1-99.547.476a12.008,12.008,0,0,1-9.141-3.8q-3.58-3.8-3.58-10.388,0-6.97,3.6-10.826A12.341,12.341,0,0,1-99.2-28.393a11.612,11.612,0,0,1,8.322,3.028,11.012,11.012,0,0,1,2.856,5.142l-5.58,1.333a5.918,5.918,0,0,0-2.066-3.428,5.92,5.92,0,0,0-3.818-1.257,6.352,6.352,0,0,0-5.037,2.228q-1.933,2.228-1.933,7.217,0,5.294,1.9,7.541A6.184,6.184,0,0,0-99.6-4.342,5.646,5.646,0,0,0-95.739-5.77,8.3,8.3,0,0,0-93.415-10.264ZM-83.094,0V-27.917h5.637v10.988h11.045V-27.917h5.637V0h-5.637V-12.207H-77.457V0Zm28.146,0V-27.917h20.7v4.723H-49.312v6.189H-35.3v4.7H-49.312v7.6h15.6V0Zm25.937,0V-27.917h8.436L-15.51-8.874-10.5-27.917h8.455V0H-7.284V-21.976L-12.825,0h-5.427l-5.522-21.976V0ZM3.38,0V-27.917H9.017V0Zm9.579-9.083,5.484-.533a6.691,6.691,0,0,0,2.009,4.056,6.074,6.074,0,0,0,4.085,1.295,6.278,6.278,0,0,0,4.1-1.152,3.428,3.428,0,0,0,1.381-2.695A2.541,2.541,0,0,0,29.44-9.8a4.642,4.642,0,0,0-2.028-1.209q-.99-.343-4.513-1.219-4.532-1.124-6.36-2.761A7.264,7.264,0,0,1,13.968-20.6a7.176,7.176,0,0,1,1.209-3.99,7.571,7.571,0,0,1,3.485-2.828,13.967,13.967,0,0,1,5.494-.971q5.256,0,7.912,2.3a8.133,8.133,0,0,1,2.79,6.151l-5.637.248a4.787,4.787,0,0,0-1.552-3.094,5.682,5.682,0,0,0-3.571-.943,6.441,6.441,0,0,0-3.847,1.009,2.034,2.034,0,0,0-.9,1.733,2.144,2.144,0,0,0,.838,1.695q1.066.9,5.18,1.866a27.334,27.334,0,0,1,6.084,2.009,7.841,7.841,0,0,1,3.085,2.837,8.3,8.3,0,0,1,1.114,4.447,8.221,8.221,0,0,1-1.333,4.494A7.989,7.989,0,0,1,30.554-.524,15.812,15.812,0,0,1,24.48.5q-5.294,0-8.131-2.447A10.644,10.644,0,0,1,12.959-9.083ZM46.684,0V-23.194H38.4v-4.723H60.585v4.723H52.321V0ZM64.241,0V-27.917H76.105a20.306,20.306,0,0,1,6.5.752,6.415,6.415,0,0,1,3.247,2.676,8.042,8.042,0,0,1,1.219,4.4A7.452,7.452,0,0,1,85.227-14.9a8.871,8.871,0,0,1-5.522,2.58,13.151,13.151,0,0,1,3.018,2.342,31.817,31.817,0,0,1,3.209,4.532L89.34,0H82.6L78.524-6.075a39.4,39.4,0,0,0-2.971-4.1,4.326,4.326,0,0,0-1.695-1.162,9.291,9.291,0,0,0-2.837-.314H69.878V0Zm5.637-16.11h4.17a21.536,21.536,0,0,0,5.065-.343,3.036,3.036,0,0,0,1.581-1.181,3.635,3.635,0,0,0,.571-2.095A3.347,3.347,0,0,0,80.514-22,3.452,3.452,0,0,0,78.39-23.1q-.686-.1-4.113-.1h-4.4ZM98.271,0V-11.75L88.045-27.917h6.608l6.57,11.045,6.437-11.045h6.494L103.889-11.711V0Z" transform="translate(149.804 170.196)" fill="none" stroke="#f57412" stroke-width="1" opacity="0.4"/>
          <g id="グループ_2203" data-name="グループ 2203" transform="translate(125.724 26.471)">
            <path id="パス_1085" data-name="パス 1085" d="M614.472,426.627c-2.493,3.409-1.859,8.546-1.831,8.763l.109.838h28.443l.227-.641a10.031,10.031,0,0,0-1.622-8.752c-1.918-2.691-5.011-3.683-7.269-4.406a12.964,12.964,0,0,1-2.2-.841c.147-.2.353-.455.519-.661a8.649,8.649,0,0,0,2.287-4.455c.234-2.823.525-6.338-1.455-8.488a7.334,7.334,0,0,0-9.467-.043c-1.9,2.043-1.663,5.317-1.454,8.206l.025.344c.122,1.7,1.409,3.389,2.35,4.621.148.194.326.427.466.624a19.658,19.658,0,0,1-2.293.916C618.941,423.49,616,424.536,614.472,426.627Zm11.116-4.175c.413-.746-.093-1.409-.93-2.508-.749-.981-1.879-2.465-1.96-3.592l-.025-.346c-.182-2.5-.387-5.327.943-6.757a5.509,5.509,0,0,1,6.645.036c1.409,1.53,1.157,4.577.95,7.067a7.244,7.244,0,0,1-1.862,3.365c-.816,1.009-1.46,1.806-.932,2.653.591.948,1.886,1.363,3.524,1.888,2.114.678,4.744,1.522,6.291,3.693a8.329,8.329,0,0,1,1.53,6.353H614.486c-.06-1.451.026-4.473,1.539-6.541,1.18-1.615,3.809-2.55,5.921-3.3C623.776,423.81,625.1,423.341,625.588,422.452Z" transform="translate(-612.549 -406.229)" fill="#f57412"/>
            <path id="パス_1086" data-name="パス 1086" d="M655.763,426.834c-1.917-2.69-5.01-3.681-7.268-4.406a12.882,12.882,0,0,1-2.2-.84c.147-.2.353-.455.518-.661a8.641,8.641,0,0,0,2.288-4.456c.234-2.822.525-6.336-1.455-8.487a7.334,7.334,0,0,0-9.467-.043c-1.9,2.043-1.663,5.317-1.454,8.206l.025.343c.122,1.7,1.409,3.39,2.35,4.622.148.194.325.427.466.624a19.661,19.661,0,0,1-2.293.916c-.777.276-1.615.58-2.445.931a11.345,11.345,0,0,1,1.944,1.3c.39-.145.777-.285,1.145-.416,1.829-.651,3.15-1.121,3.642-2.009.413-.746-.093-1.409-.931-2.508-.749-.981-1.879-2.465-1.96-3.592l-.025-.347c-.182-2.5-.388-5.327.943-6.756a5.509,5.509,0,0,1,6.645.036c1.409,1.53,1.157,4.577.95,7.067a7.244,7.244,0,0,1-1.862,3.365c-.816,1.009-1.46,1.8-.932,2.653.591.948,1.886,1.363,3.524,1.888,2.113.678,4.745,1.522,6.291,3.693a8.329,8.329,0,0,1,1.53,6.353H640.35a7.821,7.821,0,0,1-.31,1.422l-.177.5h17.3l.227-.642A10.029,10.029,0,0,0,655.763,426.834Z" transform="translate(-609.638 -406.229)" fill="#f57412"/>
          </g>
        </g>
      </g>
    </g>
    <g id="相手登録" transform="translate(-23989 -21860)">
      <g id="グループ_2505" data-name="グループ 2505" transform="translate(0 -0.228)">
        <g id="グループ_2491" data-name="グループ 2491">
          <g transform="matrix(1, 0, 0, 1, -37.5, -43.77)" filter="url(#ログインパネル-5)">
            <rect id="ログインパネル-10" data-name="ログインパネル" width="300" height="179" rx="10" transform="translate(37.5 44)" fill="#fff"/>
          </g>
          <path id="パス_1192" data-name="パス 1192" d="M7.363-18.451v-4.687h2v4.574q3.129-.2,5.367-.453v1.883q-2.535.255-5.367.425V-11.1a18,18,0,0,1,5.48-.991q3.682,0,5.338,2.421a6.779,6.779,0,0,1,1.1,3.922q0,3.951-2.69,5.367a12.567,12.567,0,0,1-5.607.963V-1.274a8.19,8.19,0,0,0,4.489-.92,4.243,4.243,0,0,0,1.6-3.781,4.37,4.37,0,0,0-1.246-3.158,3.571,3.571,0,0,0-2.662-1.161A15.85,15.85,0,0,0,9.36-9.19v7.477A2.976,2.976,0,0,1,8.793.354,2.184,2.184,0,0,1,7.165.892,4.679,4.679,0,0,1,4.7.113q-2.79-1.77-2.79-4.206,0-3.6,5.452-6.315v-6.216q-1.685.1-5.041.156v-1.855Q5.041-18.323,7.363-18.451Zm0,10.153a10.6,10.6,0,0,0-2.7,2.11,3.129,3.129,0,0,0-.807,2.039,2.232,2.232,0,0,0,.694,1.572,3.911,3.911,0,0,0,1.43.949,1.872,1.872,0,0,0,.807.212q.581,0,.581-.963ZM15.449-19.98,16.695-21.5a26.579,26.579,0,0,1,5.834,4.616l-1.416,1.6A22.785,22.785,0,0,0,15.449-19.98Zm34,21.608a.2.2,0,0,1-.227.227H47.932a.2.2,0,0,1-.227-.227V-.085H38.657V1.742q0,.2-.227.2H37.142q-.227,0-.227-.2L36.972-8.85v-5.792l-.057-7.6a.2.2,0,0,1,.227-.227l3.54.057h5.027l3.512-.057a.2.2,0,0,1,.227.227l-.057,6.783v6.556ZM47.706-1.685V-7.278H38.657v5.593Zm0-13.919v-5.183H38.657V-15.6Zm0,6.754v-5.183H38.657V-8.85ZM35.669-9.983a4.868,4.868,0,0,0-.722,1.331q-.142.382-.241.382t-.283-.312a32.731,32.731,0,0,1-3.073-6.061q.014,5.806.156,11.994.028,1.515.071,3.441.028.949.028,1.034,0,.227-.255.227h-1.4q-.255,0-.255-.227,0-.042.057-2.478.156-7.236.2-13.65a32.4,32.4,0,0,1-4.375,9.459q-.2.283-.326.283t-.255-.312a3.684,3.684,0,0,0-.75-1.161,31.788,31.788,0,0,0,3.044-4.857,42.938,42.938,0,0,0,2.195-5.324h-.92l-3.243.057q-.241,0-.241-.227v-1.189q0-.227.241-.227l3.243.057h1.246V-20.5a22.482,22.482,0,0,0-.2-3.54q.963.042,1.855.17.382.057.382.241a1.828,1.828,0,0,1-.17.581,8.919,8.919,0,0,0-.184,2.492v2.818h.354l3.214-.057a.2.2,0,0,1,.227.227v1.189a.2.2,0,0,1-.227.227l-3.214-.057h-.127A23.734,23.734,0,0,0,35.669-9.983ZM79.283-7.208q0,.227-.241.227l-3.823-.057H67.884V-5.1l.057,3.682A2.54,2.54,0,0,1,67.19.666q-.75.637-4.021.637h-.623a.864.864,0,0,1-.552-.113,1.1,1.1,0,0,1-.2-.5,4.6,4.6,0,0,0-.524-1.416,29.152,29.152,0,0,0,3.243.17,1.777,1.777,0,0,0,1.3-.354,1.469,1.469,0,0,0,.241-.949V-7.038H58.4l-3.823.057a.2.2,0,0,1-.227-.227V-8.553a.2.2,0,0,1,.227-.227l3.823.057h7.661v-4.616H61.016l-4.092.057q-.241,0-.241-.227v-1.345q0-.227.241-.227l4.092.057h5.041v-4.659q-4.6.68-8.326,1.005a2.308,2.308,0,0,1-.3.028.331.331,0,0,1-.3-.127,2.684,2.684,0,0,1-.184-.439,3.531,3.531,0,0,0-.609-1.1,91.114,91.114,0,0,0,9.629-1.048,57.236,57.236,0,0,0,6.2-1.388,10.075,10.075,0,0,0,2.237-.935,14.24,14.24,0,0,1,1.416,1.246.561.561,0,0,1,.2.382q0,.255-.382.255a3.606,3.606,0,0,0-1.119.212,58.2,58.2,0,0,1-6.641,1.586v4.984h5.14l4.05-.057q.241,0,.241.227v1.345q0,.227-.241.227l-4.05-.057h-5.14v4.616h7.335l3.823-.057q.241,0,.241.227ZM103.27-5.367a.2.2,0,0,1-.227.227L99.206-5.2H92.522l-3.809.057a.2.2,0,0,1-.227-.227l.057-2.025V-9.232l-.057-2.025a.2.2,0,0,1,.227-.227l3.809.057h6.684l3.837-.057a.2.2,0,0,1,.227.227l-.057,2.025v1.841ZM101.5-6.613v-3.37H90.257v3.37Zm7.689-5.806a4.086,4.086,0,0,0-.75,1.034q-.241.439-.382.439a1.474,1.474,0,0,1-.425-.142,31.377,31.377,0,0,1-7.434-4.475,18.653,18.653,0,0,1-4.46-5.494,24.619,24.619,0,0,1-4.984,5.9,32.8,32.8,0,0,1-6.641,4.22,1.6,1.6,0,0,1-.439.142q-.142,0-.411-.467a3.007,3.007,0,0,0-.75-.878A29.705,29.705,0,0,0,89.1-15.93a21.108,21.108,0,0,0-3.313-2.9q-.127-.085-.127-.142t.156-.227l.708-.637q.156-.156.227-.156a.312.312,0,0,1,.17.071,26.356,26.356,0,0,1,3.455,2.945,21.94,21.94,0,0,0,3.71-4.432H89.9l-2.988.057q-.255,0-.255-.227v-1.133q0-.227.255-.227l2.988.057H93.91l2.351-.057q.227,0,.368.326a13.75,13.75,0,0,0,1.076,1.982,16.744,16.744,0,0,0,1.246,1.685A18.731,18.731,0,0,0,101.3-21.41,5.867,5.867,0,0,0,102-22.529a9.029,9.029,0,0,1,1.43.892.49.49,0,0,1,.227.34q0,.184-.283.326a2.542,2.542,0,0,0-.906.722,29.671,29.671,0,0,1-2.492,2.379,26,26,0,0,0,2.167,1.827,30.53,30.53,0,0,0,2.79-2.7,6.926,6.926,0,0,0,.779-1.119,10.991,10.991,0,0,1,1.388.892q.269.227.269.34v.042a.523.523,0,0,1-.382.34,2.435,2.435,0,0,0-.864.637,30.516,30.516,0,0,1-2.719,2.407A29.847,29.847,0,0,0,109.189-12.418ZM108.5.906a.2.2,0,0,1-.227.227l-3.809-.057H87.354l-3.795.057q-.241,0-.241-.227V-.326q0-.227.241-.227L87.354-.5H97.79q.75-1.232,1.4-2.521a7.217,7.217,0,0,0,.552-1.628,13.943,13.943,0,0,1,1.685.666.357.357,0,0,1,.255.326q0,.142-.255.34a2.2,2.2,0,0,0-.595.793Q99.8-.765,99.617-.5h4.843l3.809-.057a.2.2,0,0,1,.227.227Zm-8.142-14.684q0,.227-.212.227l-2.9-.057H94.25l-2.86.057q-.241,0-.241-.227v-1.133q0-.227.241-.227l2.86.057h2.988l2.9-.057q.212,0,.212.227ZM93.415-1.685a.7.7,0,0,1,.042.17q0,.1-.326.269l-.765.382a1.235,1.235,0,0,1-.354.113q-.1,0-.17-.184a12.362,12.362,0,0,0-1.388-2.747.39.39,0,0,1-.071-.156q0-.085.312-.227l.75-.34a.793.793,0,0,1,.3-.113q.071,0,.2.17A15.459,15.459,0,0,1,93.415-1.685Zm45.242.581a4.1,4.1,0,0,0-.85,1.076q-.2.382-.312.382a.9.9,0,0,1-.382-.227,18.787,18.787,0,0,1-6.457-9.955v1.968q0,2.365.057,5.041.057,1.812.057,2.45a4.307,4.307,0,0,1-.156,1.345,1.506,1.506,0,0,1-.595.736,5.881,5.881,0,0,1-2.846.5,1.05,1.05,0,0,1-.552-.085,1.593,1.593,0,0,1-.17-.5A3.309,3.309,0,0,0,125.87.382,15.873,15.873,0,0,0,127.753.5a1.764,1.764,0,0,0,1.161-.255,1.174,1.174,0,0,0,.227-.85V-4.616a37.574,37.574,0,0,1-4.616,3.285,2.9,2.9,0,0,0-.92.694.359.359,0,0,1-.3.2A.355.355,0,0,1,123-.609a12.88,12.88,0,0,1-.878-1.416,11.392,11.392,0,0,0,1.572-.708A36.49,36.49,0,0,0,129.141-6.5V-12.56h-2.492l-3.922.057a.2.2,0,0,1-.227-.227v-1.161a.2.2,0,0,1,.227-.227l3.922.057h6.061l.2-2.79h-4.871l-3.016.057a.2.2,0,0,1-.227-.227v-1.133a.2.2,0,0,1,.227-.227l3.016.057h4.956l.212-2.62H127.4l-3.214.057q-.241,0-.241-.227v-1.161q0-.227.241-.227l3.214.057h4.092l3.229-.057a.225.225,0,0,1,.255.255q-.057.453-.1,1.09-.071.779-.085.906l-.453,6.188,3.6-.057q.255,0,.255.227v1.161q0,.227-.255.227l-3.922-.057h-3.186a24.631,24.631,0,0,0,2,5.282,22.143,22.143,0,0,0,2.492-2.959,5.221,5.221,0,0,0,.637-1.133,8.393,8.393,0,0,1,1.26.864.669.669,0,0,1,.227.411q0,.142-.326.354a3.9,3.9,0,0,0-.864.835,21.33,21.33,0,0,1-2.7,2.875A16.458,16.458,0,0,0,138.656-1.1Zm-16-9.133q0,.227-.241.227l-3.016-.057h-.666v8.015A35.3,35.3,0,0,0,122.216-3.4a4.562,4.562,0,0,0-.142,1.076.852.852,0,0,1-.127.566,1.181,1.181,0,0,1-.425.212Q118.563-.4,114.641.722a3.63,3.63,0,0,0-1.076.439.691.691,0,0,1-.382.17.316.316,0,0,1-.34-.227q-.212-.51-.552-1.6A17.392,17.392,0,0,0,114.5-.864q2.025-.5,2.634-.68v-8.524H116l-3.016.057a.2.2,0,0,1-.227-.227v-1.1a.2.2,0,0,1,.227-.227l3.016.057h1.133V-14.67h-.2l-2.464.057q-.241,0-.241-.269v-1.034a.213.213,0,0,1,.241-.241l2.464.057h2.237l2.436-.057q.227,0,.227.241v1.034q0,.269-.227.269l-2.436-.057h-.439v3.158h.666l3.016-.057q.241,0,.241.227Zm.481-8.255a2.061,2.061,0,0,0-.75.92q-.212.382-.3.382a2.4,2.4,0,0,1-.439-.3,22.4,22.4,0,0,1-3.384-3.852,25.734,25.734,0,0,1-5.112,5.777,1.131,1.131,0,0,1-.425.227q-.17,0-.3-.382a2.57,2.57,0,0,0-.666-1.005,17.932,17.932,0,0,0,5.126-5.607,4.252,4.252,0,0,0,.623-1.558,9.37,9.37,0,0,1,1.671.467q.3.085.3.255a.448.448,0,0,1-.269.382l-.227.17A20.427,20.427,0,0,0,123.137-18.493ZM115.745-3.767q.014.113.014.142,0,.127-.312.255l-.694.3a.991.991,0,0,1-.283.071q-.127,0-.156-.2a21.607,21.607,0,0,0-.977-4.489.43.43,0,0,1-.042-.156q0-.113.354-.241l.609-.241a1.159,1.159,0,0,1,.283-.071q.085,0,.156.156A24.627,24.627,0,0,1,115.745-3.767Zm6.981-4.177a.49.49,0,0,1-.227.34,2.028,2.028,0,0,0-.439.821q-.481,1.487-.935,2.549-.142.411-.255.411a.966.966,0,0,1-.312-.127,5.045,5.045,0,0,0-.906-.283,19.7,19.7,0,0,0,1.133-3.427,4.161,4.161,0,0,0,.142-1.09,12.864,12.864,0,0,1,1.543.51Q122.726-8.1,122.726-7.944Zm4.588.255a.43.43,0,0,1,.042.156q0,.085-.255.283l-.581.467a1.516,1.516,0,0,1-.34.2q-.071,0-.17-.2a12.6,12.6,0,0,0-2.181-3.455.232.232,0,0,1-.085-.142q0-.085.255-.269l.609-.4a.577.577,0,0,1,.255-.142q.085,0,.212.142A17.012,17.012,0,0,1,127.314-7.689Z" transform="translate(75.833 107.823)" fill="#1d1d1f"/>
          <path id="パス_1191" data-name="パス 1191" d="M-83.094-9.083l5.484-.533A6.691,6.691,0,0,0-75.6-5.561a6.074,6.074,0,0,0,4.085,1.295,6.278,6.278,0,0,0,4.1-1.152,3.428,3.428,0,0,0,1.381-2.695A2.541,2.541,0,0,0-66.612-9.8a4.642,4.642,0,0,0-2.028-1.209q-.99-.343-4.513-1.219-4.532-1.124-6.36-2.761A7.264,7.264,0,0,1-82.085-20.6a7.176,7.176,0,0,1,1.209-3.99,7.571,7.571,0,0,1,3.485-2.828,13.967,13.967,0,0,1,5.494-.971q5.256,0,7.912,2.3a8.133,8.133,0,0,1,2.79,6.151l-5.637.248a4.787,4.787,0,0,0-1.552-3.094,5.682,5.682,0,0,0-3.571-.943A6.441,6.441,0,0,0-75.8-22.718a2.034,2.034,0,0,0-.9,1.733,2.144,2.144,0,0,0,.838,1.695q1.066.9,5.18,1.866a27.334,27.334,0,0,1,6.084,2.009,7.841,7.841,0,0,1,3.085,2.837,8.3,8.3,0,0,1,1.114,4.447,8.221,8.221,0,0,1-1.333,4.494A7.989,7.989,0,0,1-65.5-.524,15.812,15.812,0,0,1-71.573.5Q-76.867.5-79.7-1.952A10.644,10.644,0,0,1-83.094-9.083ZM-55.653,0V-27.917h20.7v4.723H-50.016v6.189H-36v4.7H-50.016v7.6h15.6V0Zm32.3,0V-23.194H-31.64v-4.723H-9.455v4.723h-8.265V0ZM.467,0V-23.194H-7.817v-4.723H14.368v4.723H6.1V0ZM17.834,0V-27.917H23.47V0ZM28.9,0V-27.917h5.484L45.808-9.274V-27.917h5.237V0H45.389L34.135-18.205V0ZM69.992-10.264v-4.7H82.142V-3.847A15.294,15.294,0,0,1,77.01-.828,18.679,18.679,0,0,1,70.2.476a15.28,15.28,0,0,1-7.636-1.838,11.684,11.684,0,0,1-4.894-5.256,16.985,16.985,0,0,1-1.638-7.436,16.069,16.069,0,0,1,1.828-7.75A12.312,12.312,0,0,1,63.213-27a14.438,14.438,0,0,1,6.684-1.39q5.2,0,8.122,2.18a9.846,9.846,0,0,1,3.761,6.027l-5.6,1.047a5.912,5.912,0,0,0-2.219-3.247,6.706,6.706,0,0,0-4.066-1.19,7.639,7.639,0,0,0-5.875,2.342q-2.18,2.342-2.18,6.951,0,4.97,2.209,7.455A7.376,7.376,0,0,0,69.84-4.342a9.707,9.707,0,0,0,3.552-.7,12.17,12.17,0,0,0,3.056-1.685v-3.542Z" transform="translate(150.196 170.196)" fill="none" stroke="#0379ae" stroke-width="1" opacity="0.4"/>
          <g id="グループ_2490" data-name="グループ 2490" transform="translate(132.708 24.51)">
            <path id="パス_1083" data-name="パス 1083" d="M575.3,409.1l2.158-2.055h-19.1a1.819,1.819,0,0,0-1.817,1.817v27.658a1.819,1.819,0,0,0,1.817,1.817h25.287a1.819,1.819,0,0,0,1.817-1.817V419.174l-2.053,1.954v15.16H558.59V409.1Z" transform="translate(-556.537 -403.505)" fill="#0379ae"/>
            <path id="パス_1084" data-name="パス 1084" d="M581.953,405.068l-15.4,16.166c-.991,1.04-2.113,5.8-2.549,7.792a1.026,1.026,0,0,0,1,1.247.808.808,0,0,0,.13-.009c2.791-.356,7.624-1.111,8.625-2.162l15.4-16.166a3.4,3.4,0,0,0-.117-4.8l-2.288-2.18a3.407,3.407,0,0,0-4.8.116Zm2.463,1a1.331,1.331,0,0,1,.926.368l2.288,2.18a1.349,1.349,0,0,1,.046,1.9l-15.364,16.135c-.5.379-3.247.957-5.963,1.367a25.291,25.291,0,0,1,1.7-5.37l15.4-16.166a1.334,1.334,0,0,1,.941-.414Z" transform="translate(-555.28 -404.017)" fill="#0379ae"/>
          </g>
        </g>
      </g>
    </g>
  </g>
  <g id="グループ_2559" data-name="グループ 2559" transform="translate(23342 20081)">
    <rect id="長方形_2718" data-name="長方形 2718" width="375" height="1077" transform="translate(-23342 -20081)" opacity="0.56"/>
    <path id="パス_1188" data-name="パス 1188" d="M-121.12-14.816v-1.12h3.744c1.344,0,2.528.064,2.816.1v-2.432a21.187,21.187,0,0,1-2.848.16h-3.712V-22.24a22.038,22.038,0,0,1,.16-2.56h-2.592a21.444,21.444,0,0,1,.16,2.56v4.128h-9.376V-22.4a19.335,19.335,0,0,1,.128-2.208h-2.528c.064.7.128,1.6.128,2.24v4.256h-3.584c-1.312,0-2.944-.16-3.168-.192v2.464c.288,0,1.792-.1,3.168-.1h3.584v5.344c0,1.152-.128,2.528-.16,2.784h2.528c0-.256-.1-1.664-.1-2.784v-5.344h9.376v1.344c0,9.184-2.944,11.9-8.7,14.144l1.92,1.824C-122.944-1.856-121.12-6.176-121.12-14.816Zm33.28-11.712-1.6.672a42.708,42.708,0,0,1,2.432,4,10.129,10.129,0,0,1-1.312.1h-16.288a21.936,21.936,0,0,1-3.072-.224v2.528c.8-.032,1.824-.1,3.072-.1H-88A25.292,25.292,0,0,1-92.256-8.864c-2.688,3.456-6.3,6.176-12.48,7.744l1.952,2.144A24.189,24.189,0,0,0-90.24-7.488c2.528-3.232,4.1-8.448,4.768-11.84a7.66,7.66,0,0,1,.448-1.5L-86.5-21.76l1.216-.544C-85.92-23.52-87.1-25.44-87.84-26.528Zm4.064-.832-1.6.672a41.835,41.835,0,0,1,2.624,4.256l1.6-.7A49.682,49.682,0,0,0-83.776-27.36Zm29.184,6.016-1.44-1.12a9.449,9.449,0,0,1-2.24.224H-70.816a31.236,31.236,0,0,1-3.136-.192v2.592c.288,0,2.016-.128,3.136-.128h12.768a29.2,29.2,0,0,1-5.408,9.088A36.656,36.656,0,0,1-76.672-1.312L-74.848.576A40.409,40.409,0,0,0-62.272-8.832a75.691,75.691,0,0,1,8.928,9.6L-51.36-.96a89.936,89.936,0,0,0-9.408-9.6,40.252,40.252,0,0,0,5.44-9.5A6.754,6.754,0,0,1-54.592-21.344Zm23.552-3.488-2.624-.864a12.957,12.957,0,0,1-.928,2.4,26.4,26.4,0,0,1-10.08,10.88l1.984,1.472a30.969,30.969,0,0,0,8.128-7.9h11.136A27.313,27.313,0,0,1-28.64-8.608,25.808,25.808,0,0,1-41.408-.576l2.048,1.888A28.267,28.267,0,0,0-26.624-7.36,31.161,31.161,0,0,0-20.96-18.432a10.127,10.127,0,0,1,.7-1.6l-1.92-1.152a5.417,5.417,0,0,1-1.984.288h-9.056c.32-.544.608-1.056.864-1.568C-32.032-23.04-31.52-24.064-31.04-24.832Zm39.712.672H5.984a20.907,20.907,0,0,1,.16,2.688v4.864c0,6.24-.384,8.864-2.656,11.552A14.58,14.58,0,0,1-4.16-.736L-2.3,1.216C.032.416,3.232-.928,5.28-3.456c2.3-2.752,3.3-5.216,3.3-13.056v-4.96Q8.576-23.056,8.672-24.16Zm-14.848.224H-8.768c.064.576.128,1.7.128,2.272v10.656a20.217,20.217,0,0,1-.16,2.4h2.624c-.064-.544-.128-1.568-.128-2.4V-21.664C-6.3-22.368-6.24-23.36-6.176-23.936ZM41.792-22.88a2.151,2.151,0,0,1,2.144-2.176,2.178,2.178,0,0,1,2.176,2.176,2.172,2.172,0,0,1-2.176,2.144A2.144,2.144,0,0,1,41.792-22.88Zm-1.376,0a4.064,4.064,0,0,0,.16,1.088c-.32.032-.64.032-.9.032H23.424a22.8,22.8,0,0,1-3.1-.224v2.528c.8-.032,1.824-.1,3.072-.1H40A24.487,24.487,0,0,1,35.744-8.864C33.056-5.408,29.472-2.688,23.3-1.12l1.92,2.144A24.189,24.189,0,0,0,37.76-7.488c2.528-3.232,4.1-8.448,4.768-11.84.032-.1.032-.192.064-.288a3.719,3.719,0,0,0,1.344.256,3.537,3.537,0,0,0,3.552-3.52,3.571,3.571,0,0,0-3.552-3.584A3.544,3.544,0,0,0,40.416-22.88Zm17.152-1.568-1.248,1.92c1.824,1.056,5.312,3.392,6.816,4.544l1.344-1.952C63.136-20.928,59.424-23.424,57.568-24.448ZM52.992-1.536,54.3.768A39.651,39.651,0,0,0,64.9-3.2,37.32,37.32,0,0,0,77.12-14.624L75.744-16.96A32.608,32.608,0,0,1,63.68-5.28,34.628,34.628,0,0,1,52.992-1.536ZM52.8-17.28l-1.28,1.952a68.9,68.9,0,0,1,6.912,4.352l1.312-2.016C58.4-13.952,54.624-16.256,52.8-17.28Zm34.4-.192v2.24c.544-.032,2.368-.1,3.136-.1h12.1v5.6H90.624c-1.088,0-2.176-.064-2.752-.128v2.24c.608-.032,1.664-.064,2.752-.064h11.808v5.952H89.408a23.667,23.667,0,0,1-2.592-.128v2.3c.512,0,1.6-.064,2.624-.064h12.992c0,.544,0,1.024-.032,1.312h2.272c-.032-.448-.064-1.12-.064-1.632V-15.872c0-.608,0-1.216.032-1.536-.416.032-1.152.064-1.888.064H90.336C89.568-17.344,87.744-17.408,87.2-17.472Zm32-5.824-1.632,1.728a66.834,66.834,0,0,1,7.968,6.656L127.3-16.7A67.113,67.113,0,0,0,119.2-23.3ZM116.672-1.824,118.144.512A35.324,35.324,0,0,0,130.88-4.544a32.167,32.167,0,0,0,10.56-11.3l-1.376-2.432a29.676,29.676,0,0,1-10.528,11.68A32.718,32.718,0,0,1,116.672-1.824ZM-77.056,31.264h8.608a61.065,61.065,0,0,1-3.68,7.744c-1.7.064-3.264.1-4.64.128l.288,2.112c5.472-.192,13.824-.544,21.728-.928A25.94,25.94,0,0,1-53.216,42.5l1.888-1.184a44.181,44.181,0,0,0-7.584-8.384l-1.792.992a45.334,45.334,0,0,1,4.416,4.512c-4.672.192-9.408.384-13.5.512,1.312-2.3,2.752-5.216,3.9-7.68H-50.72V29.28H-77.056ZM-71.68,23.2v1.952h15.232V23.2Zm6.336-9.888c-2.5,4.128-7.84,8.736-13.344,11.424a7.168,7.168,0,0,1,1.28,1.7C-72,23.68-66.72,19.232-64.128,15.36c3.008,4.192,8.672,8.512,13.632,10.912a11.151,11.151,0,0,1,1.376-1.856,35.312,35.312,0,0,1-14.08-11.1Zm25.664,2.976h15.52v3.52H-39.68Zm-2.112-1.76v7.04h19.84v-7.04Zm.768,14.56h18.176V31.52H-41.024Zm0,3.968h18.176v2.5H-41.024Zm0-7.936h18.176v2.432H-41.024Zm-2.112-1.6V37.152h22.464V23.52Zm6.016,13.7c-1.952,1.344-6.144,2.848-9.5,3.648a14.052,14.052,0,0,1,1.536,1.568A39.869,39.869,0,0,0-35.1,38.5Zm7.9,1.472a79.773,79.773,0,0,1,10.048,3.776l1.792-1.536a103.43,103.43,0,0,0-9.984-3.616ZM4.992,34.816a32.464,32.464,0,0,1-2.4,4.7l1.056.32H-4.384l1.536-.48a19.468,19.468,0,0,0-2.08-4.544Zm-11.648-6.24H6.624v4.448H-6.656ZM5.5,34.816H8.736V26.784H-8.7v8.032h3.616l-1.792.512A19.256,19.256,0,0,1-4.928,39.84h-8.9v1.824H13.888V39.84H4.544a39.7,39.7,0,0,0,2.528-4.576ZM12.16,17.28a41.052,41.052,0,0,1-4.544,3.936A24.842,24.842,0,0,1,5.28,18.688a41.448,41.448,0,0,0,4.928-4l-1.6-1.152a40.391,40.391,0,0,1-4.32,3.872,24.67,24.67,0,0,1-2.336-4.064L.16,13.92a28.887,28.887,0,0,0,5.664,8.288H-5.6A22.2,22.2,0,0,0-.96,15.1l-1.376-.736-.384.128h-9.216v1.792h8.192a19.471,19.471,0,0,1-3.36,4.64,23.825,23.825,0,0,0-4.416-3.36l-1.152,1.184a22.384,22.384,0,0,1,4.288,3.424,24.1,24.1,0,0,1-6.624,4.288,9.806,9.806,0,0,1,1.28,1.568A27.462,27.462,0,0,0-5.888,22.5v1.536H5.888v-1.76a25.231,25.231,0,0,0,7.52,5.376A8.425,8.425,0,0,1,14.88,25.92,22.468,22.468,0,0,1,8.864,22.3a43.341,43.341,0,0,0,4.9-3.872Zm23.36,16.8c-2.176,1.536-4.416,3.04-6.048,4.064l-.128-1.056-4.48.9V28.416H29.5V26.56h-4.64V22.976h3.712V21.152H19.9A29.007,29.007,0,0,0,24.128,15.2a35.049,35.049,0,0,1,4.608,5.44l1.44-1.568a37.854,37.854,0,0,0-5.344-5.792H22.88a22.952,22.952,0,0,1-6.08,8.288,7.411,7.411,0,0,1,1.344,1.312,19.645,19.645,0,0,0,1.44-1.376v1.472h3.392V26.56h-5.12v1.856h5.12v9.952c-2.048.416-3.9.768-5.408,1.024l.448,1.984c3.1-.7,7.232-1.6,11.264-2.432l.736,1.248c1.888-1.28,4.1-2.88,6.144-4.48ZM18.656,30.592a25.96,25.96,0,0,1,1.216,6.176l1.6-.448a27.791,27.791,0,0,0-1.312-6.08Zm8.9,5.6c.512-1.5,1.12-3.84,1.632-5.824l-1.7-.416a55.829,55.829,0,0,1-1.376,5.856ZM35.424,32a21.043,21.043,0,0,0-3.584-4.288l-1.44.928a22.436,22.436,0,0,1,3.488,4.384Zm3.456-6.08h7.744V24.064H43.968v-9.5H31.3v1.856h10.72v2.912H31.936v1.728h10.08v3.008H29.632V25.92H36.9V40.1c0,.352-.1.416-.48.448-.352,0-1.472,0-2.72-.032a7.888,7.888,0,0,1,.576,1.888,10.481,10.481,0,0,0,3.648-.32c.768-.32.96-.9.96-1.952V31.776a18.057,18.057,0,0,0,6.912,8.672,9.579,9.579,0,0,1,1.376-1.76c-4.832-2.56-7.264-7.808-8.288-12.064Zm3.3,6.784a43.605,43.605,0,0,0,4.128-4.48l-1.7-1.088a32.111,32.111,0,0,1-3.776,4.608ZM50.56,19.1l.288,2.5c3.424-.7,11.84-1.5,15.36-1.888A13.072,13.072,0,0,0,60,30.688c0,7.168,6.816,10.24,12.608,10.432l.832-2.3c-5.184-.192-11.168-2.208-11.168-8.64A11.5,11.5,0,0,1,69.728,19.84,24.936,24.936,0,0,1,76,19.328l-.032-2.272c-2.112.064-5.024.256-8.544.544-5.888.48-12.064,1.12-14.048,1.344C52.768,19.008,51.776,19.072,50.56,19.1Zm20.8,4.288-1.472.64a28.946,28.946,0,0,1,2.624,4.544l1.5-.7A40.44,40.44,0,0,0,71.36,23.392Zm3.488-1.344-1.44.7a31.506,31.506,0,0,1,2.72,4.48l1.5-.736A39.725,39.725,0,0,0,74.848,22.048ZM-147.36,56.768a34.96,34.96,0,0,0,5.856-1.7l-1.6-1.6c-2.944,1.28-8.608,2.368-13.312,3.04a5.527,5.527,0,0,1,.672,1.7c2.016-.256,4.224-.608,6.336-.992V62.88h-6.784v1.984h6.3A32.545,32.545,0,0,1-156.9,75.936a11.07,11.07,0,0,1,1.152,1.984,35.6,35.6,0,0,0,6.336-9.888v14.3h2.048V69.472c1.664,1.536,3.9,3.68,4.864,4.768l1.28-1.76c-.992-.864-4.736-4.16-6.144-5.248V64.864h6.272V62.88h-6.272Zm8.512,17.76h2.08v-17.5h-2.08Zm7.872-20.64V79.52c0,.608-.256.8-.832.832-.608,0-2.592.032-4.9-.032a10.129,10.129,0,0,1,.8,2.112c2.912.032,4.64-.032,5.664-.384.928-.352,1.376-1.024,1.376-2.528V53.888Zm22.24,16.672v-5.6h8.928v5.6Zm-10.176,0c.1-1.216.128-2.368.128-3.488V64.96h7.936v5.6Zm8.064-12.992v5.408h-7.936V57.568Zm11.04,5.408h-8.928V57.568h8.928Zm2.112-7.424h-23.168v11.52c0,4.512-.352,10.144-3.872,14.112a6.176,6.176,0,0,1,1.6,1.408c2.5-2.784,3.552-6.432,4.032-10.016h8.256v9.568h2.112V72.576h8.928v6.816c0,.608-.224.8-.832.832-.64.032-2.816.064-5.12-.032a6.893,6.893,0,0,1,.736,2.048c3.008.032,4.864.032,5.92-.352.992-.352,1.408-1.024,1.408-2.5Zm19.872,9.024V72.32h-8.8V64.576Zm2.08,9.76V62.56H-88.672V76.9h2.048v-2.56Zm12.032-18.784H-92V57.7h22.144V79.232c0,.64-.224.864-.9.9-.768.032-3.328.064-5.952-.064a13.88,13.88,0,0,1,.928,2.3c3.1,0,5.28,0,6.528-.384,1.152-.384,1.568-1.12,1.568-2.72V57.7h3.968ZM-34.88,67.168c2.464,0,3.1-1.024,3.392-4.864a6.311,6.311,0,0,1-1.952-.832c-.128,3.232-.352,3.744-1.632,3.744h-5.344c-1.5,0-1.728-.192-1.728-1.184v-3.52a67.284,67.284,0,0,0,9.12-3.232L-34.5,55.712a54.014,54.014,0,0,1-7.648,3.072V53.312h-2.112V64.064c0,2.432.768,3.1,3.712,3.1Zm-21.7,6.944v-3.1h7.136v3.1ZM-49.44,66.4v2.912h-7.136V66.4Zm2.08-1.824h-11.2V82.368h1.984V75.84h7.136v4c0,.416-.128.544-.512.544-.48.032-1.824.032-3.424-.032A8.1,8.1,0,0,1-52.64,82.3a13.961,13.961,0,0,0,4.224-.352c.832-.32,1.056-.96,1.056-2.08Zm-3.808-8.384A39.71,39.71,0,0,1-48.9,59.616c-2.432.1-4.832.224-6.976.32,1.024-1.856,2.08-4.16,2.976-6.144l-2.144-.512A49.9,49.9,0,0,1-58.112,60l-2.4.1.192,2.048c3.3-.192,7.936-.384,12.48-.672a18.324,18.324,0,0,1,.864,1.92l1.824-.832a32.6,32.6,0,0,0-4.288-7.072ZM-40.32,80.224c-1.568,0-1.856-.192-1.856-1.248v-3.9a46.351,46.351,0,0,0,9.5-3.584l-1.408-1.6a37.573,37.573,0,0,1-8.1,3.392V68.1h-2.08v10.88c0,2.5.8,3.1,3.776,3.1h5.856c2.624,0,3.264-1.088,3.52-5.312a6.849,6.849,0,0,1-1.92-.832c-.128,3.648-.352,4.288-1.76,4.288ZM-20.192,55.2l-2.272.96c1.5,3.52,3.2,7.3,4.672,9.92-3.52,2.4-5.568,5.024-5.568,8.256,0,4.672,4.256,6.464,10.208,6.464A61.9,61.9,0,0,0-3.072,80l.032-2.528a47,47,0,0,1-10.208,1.056c-5.184,0-7.776-1.728-7.776-4.448,0-2.464,1.792-4.608,4.832-6.592,3.168-2.08,7.68-4.224,9.856-5.376.928-.48,1.664-.864,2.336-1.28l-1.216-2.048a17.106,17.106,0,0,1-2.176,1.44c-1.792,1.024-5.408,2.72-8.48,4.608A67.165,67.165,0,0,1-20.192,55.2Zm35.648-.544-2.528-.224A23.367,23.367,0,0,1,11.872,60c-1.28.128-2.528.16-3.712.16a35.594,35.594,0,0,1-3.872-.192l.16,2.144c1.184.064,2.528.1,3.712.1.992,0,2.016-.032,3.008-.128a44.641,44.641,0,0,1-6.88,12.128L6.5,75.36a57.4,57.4,0,0,0,6.976-13.536,41.739,41.739,0,0,0,5.888-1.152L19.3,58.528a30.047,30.047,0,0,1-5.152,1.216C14.688,57.856,15.136,55.84,15.456,54.656ZM13.664,76.9c0-1.536,1.664-2.688,4.1-2.688a11.8,11.8,0,0,1,3.424.512c.032.608.032,1.152.032,1.6,0,1.728-.928,3.168-3.68,3.168C14.912,79.488,13.664,78.432,13.664,76.9Zm9.344-12.352h-2.24c.064,2.3.224,5.536.352,8.192a15.763,15.763,0,0,0-3.3-.352c-3.456,0-6.272,1.76-6.272,4.672,0,3.136,2.816,4.48,6.272,4.48,3.84,0,5.472-2.016,5.472-4.512,0-.416,0-.928-.032-1.536a22.514,22.514,0,0,1,5.344,3.744l1.248-1.952A21.955,21.955,0,0,0,23.2,73.312c-.1-2.016-.224-4.192-.256-5.44A29.683,29.683,0,0,1,23.008,64.544Zm6.56.672,1.28-1.856a42.527,42.527,0,0,0-7.392-4.224L22.3,60.864A39.353,39.353,0,0,1,29.568,65.216Zm14.272-10.4-2.528-.064c-.064.864-.128,1.728-.256,2.656a88.282,88.282,0,0,0-1.024,10.336,38.412,38.412,0,0,0,.352,5.056l2.208-.16a14.334,14.334,0,0,1-.064-4.032c.448-4.224,4.224-10.048,8.256-10.048,3.488,0,5.216,3.808,5.216,8.9,0,8.064-5.5,10.976-12.416,12L44.928,81.5c7.808-1.408,13.408-5.248,13.408-14.112,0-6.656-2.976-10.912-7.168-10.912-4.16,0-7.584,4.224-8.864,7.68A58.585,58.585,0,0,1,43.84,54.816ZM73.152,76.672c0-1.536,1.728-2.784,4.928-2.784a17.15,17.15,0,0,1,3.168.32c.032.9.032,1.7.032,2.3,0,2.3-1.632,2.88-3.488,2.88C74.464,79.392,73.152,78.208,73.152,76.672ZM83.3,54.688H80.9a16.484,16.484,0,0,1,.1,1.888v2.368h-1.5a57.379,57.379,0,0,1-8.224-.7l.032,2.144c1.984.224,5.952.544,8.224.544.48,0,.992,0,1.472-.032v4.7c-.608.032-1.184.032-1.792.032a58.911,58.911,0,0,1-8.1-.608l.032,2.144c2.3.256,5.824.448,8.064.448h1.824c.064,1.44.1,3.072.16,4.608A16.563,16.563,0,0,0,78.336,72c-4.544,0-7.3,1.92-7.3,4.768,0,3.04,2.464,4.608,7.008,4.608,4.16,0,5.5-2.272,5.5-4.416,0-.512-.032-1.248-.064-2.144a24.183,24.183,0,0,1,7.968,4.9L92.768,77.7A26.261,26.261,0,0,0,83.36,72.7c-.064-1.6-.16-3.392-.224-5.152a85.231,85.231,0,0,0,8.96-.736V64.672a83.061,83.061,0,0,1-8.992.864v-4.7c3.072-.128,6.112-.448,8.736-.736l.032-2.112a72.662,72.662,0,0,1-8.768.9c0-.928.032-1.664.032-2.08C83.168,55.84,83.232,55.232,83.3,54.688Zm33.728.032h-2.592c.032.256.16,1.12.192,1.92.032.48.032,1.312.064,2.3-4.9.064-10.944.256-14.464.32l.064,2.24c4.032-.32,9.536-.544,14.432-.576,0,1.216.032,2.5.032,3.488a5.8,5.8,0,0,0-2.3-.448,5.476,5.476,0,0,0-5.5,5.472,5.029,5.029,0,0,0,5.184,5.28,4.4,4.4,0,0,0,2.976-1.056c-1.184,3.1-4.128,5.024-8.544,6.08l1.92,1.856c7.392-2.208,9.44-6.944,9.44-11.3a7.716,7.716,0,0,0-.992-4c-.032-1.5-.064-3.52-.064-5.408h.64c4.672,0,7.52.064,9.28.16V58.944c-1.44,0-5.248-.032-9.248-.032h-.672c0-.96,0-1.76.032-2.3C116.9,56.224,116.992,55.072,117.024,54.72Zm-7.936,14.688a3.406,3.406,0,0,1,3.36-3.552,2.99,2.99,0,0,1,3.008,2.272c.224,3.008-.992,4.608-2.976,4.608A3.206,3.206,0,0,1,109.088,69.408Zm23.04,2.816a4.816,4.816,0,1,0,4.832,4.8A4.814,4.814,0,0,0,132.128,72.224Zm0,8.128a3.312,3.312,0,1,1,3.328-3.328A3.319,3.319,0,0,1,132.128,80.352Z" transform="translate(-23147.104 -19982)" fill="#fff"/>
    <g id="グループ_2561" data-name="グループ 2561" transform="translate(-23305 -19905.713)">
      <g id="グループ_2562" data-name="グループ 2562" transform="translate(0 13)">
        <rect id="長方形_2719" data-name="長方形 2719" width="301" height="88" transform="translate(0 31.713)" fill="#ff0"/>
        <text id="サブスクリプション会員になる" transform="translate(0 59.713)" fill="#1d1d1f" font-size="18" font-family="SourceHanSansJP-Normal, Source Han Sans JP"><tspan x="24.5" y="21">サブスクリプション会員になる</tspan></text>
      </g>
    </g>
  </g>
</svg>
