<svg xmlns="http://www.w3.org/2000/svg" width="150" height="54.839" viewBox="0 0 150 54.839">
  <g id="グループ_2091" data-name="グループ 2091" transform="translate(-360 -13.162)">
    <text id="細密占星術" transform="translate(360 45.162)" fill="#222" font-size="30" font-family="YuGothicUI-Regular, Yu Gothic UI"><tspan x="0" y="0">細密占星術</tspan></text>
    <g id="グループ_2090" data-name="グループ 2090" transform="translate(3564.628 17064.701)">
      <g id="グループ_1830" data-name="グループ 1830" transform="translate(-3204.628 -17008)">
        <path id="パス_806" data-name="パス 806" d="M397.088,463.393h.808v8.16h-.808Zm.774,7.408h1.846a2.4,2.4,0,0,0,1.7-.53,2.092,2.092,0,0,0,.564-1.6v-2.4a2.091,2.091,0,0,0-.564-1.6,2.4,2.4,0,0,0-1.7-.53h-1.846v-.752h1.813a4.082,4.082,0,0,1,1.729.323,2.17,2.17,0,0,1,1.033.974,3.476,3.476,0,0,1,.342,1.628v2.312a3.433,3.433,0,0,1-.345,1.625,2.2,2.2,0,0,1-1.036.974,4.049,4.049,0,0,1-1.728.325h-1.807Z" transform="translate(-397.088 -463.393)"/>
        <path id="パス_807" data-name="パス 807" d="M430.995,475.959a2.044,2.044,0,0,1-.873-.892,3.064,3.064,0,0,1-.3-1.411V473a3.427,3.427,0,0,1,.289-1.476,2.067,2.067,0,0,1,.839-.932,2.593,2.593,0,0,1,1.324-.32,2.353,2.353,0,0,1,1.246.314,2.006,2.006,0,0,1,.789.918,3.508,3.508,0,0,1,.272,1.451v.668h-4.209v-.73h3.457v-.056a1.994,1.994,0,0,0-.407-1.338,1.43,1.43,0,0,0-1.148-.474,1.593,1.593,0,0,0-1.257.5,2.061,2.061,0,0,0-.443,1.414v.741a1.854,1.854,0,0,0,.471,1.356,1.781,1.781,0,0,0,1.33.48,2.026,2.026,0,0,0,.8-.168,2.213,2.213,0,0,0,.7-.477l.55.527a3.1,3.1,0,0,1-.965.643,2.783,2.783,0,0,1-1.089.227A2.9,2.9,0,0,1,430.995,475.959Z" transform="translate(-419.112 -468.021)"/>
        <path id="パス_808" data-name="パス 808" d="M458.337,467.044h2.627v.7h-2.627Zm.929,5.464a1.751,1.751,0,0,1-.329-1.153v-6h.808v6.016a.88.88,0,0,0,.168.578.613.613,0,0,0,.5.2h.55v.752H460.3A1.279,1.279,0,0,1,459.266,472.507Z" transform="translate(-438.297 -464.709)"/>
        <path id="パス_809" data-name="パス 809" d="M481.409,475.794a1.642,1.642,0,0,1-.561-1.33,1.609,1.609,0,0,1,.514-1.276,2.124,2.124,0,0,1,1.451-.452h1.936l.079.752h-2.009a1.317,1.317,0,0,0-.867.255.977.977,0,0,0,.079,1.487,1.858,1.858,0,0,0,1.086.272,3.536,3.536,0,0,0,1.168-.152q.415-.152.415-.427l.118.763a1.561,1.561,0,0,1-.446.311,2.5,2.5,0,0,1-.623.2,4.005,4.005,0,0,1-.755.067A2.393,2.393,0,0,1,481.409,475.794Zm3.289-3.306a1.51,1.51,0,0,0-.379-1.1,1.43,1.43,0,0,0-1.075-.39,2.526,2.526,0,0,0-.813.135,2.3,2.3,0,0,0-.708.382l-.589-.4a2.188,2.188,0,0,1,.873-.62,3.154,3.154,0,0,1,1.2-.222,2.772,2.772,0,0,1,1.24.256,1.773,1.773,0,0,1,.786.741,2.378,2.378,0,0,1,.269,1.17v3.743H484.7Z" transform="translate(-453.442 -468.021)"/>
        <path id="パス_810" data-name="パス 810" d="M511.456,463.393h.808v.808h-.808Zm0,2.335h.808v5.825h-.808Z" transform="translate(-474.036 -463.393)"/>
        <path id="パス_811" data-name="パス 811" d="M531.105,470.021a.837.837,0,0,0,.182.575.644.644,0,0,0,.508.2h.539v.752h-.673a1.272,1.272,0,0,1-1.008-.4,1.667,1.667,0,0,1-.356-1.14v-6.617h.808Z" transform="translate(-486.712 -463.393)"/>
        <path id="パス_812" data-name="パス 812" d="M551.665,475.959a2.04,2.04,0,0,1-.873-.892,3.067,3.067,0,0,1-.3-1.411V473a3.432,3.432,0,0,1,.289-1.476,2.068,2.068,0,0,1,.839-.932,2.593,2.593,0,0,1,1.324-.32,2.355,2.355,0,0,1,1.246.314,2.009,2.009,0,0,1,.788.918,3.508,3.508,0,0,1,.272,1.451v.668h-4.209v-.73H554.5v-.056a1.994,1.994,0,0,0-.407-1.338,1.43,1.43,0,0,0-1.148-.474,1.592,1.592,0,0,0-1.257.5,2.059,2.059,0,0,0-.443,1.414v.741a1.852,1.852,0,0,0,.471,1.356,1.78,1.78,0,0,0,1.33.48,2.024,2.024,0,0,0,.8-.168,2.218,2.218,0,0,0,.7-.477l.55.527a3.1,3.1,0,0,1-.965.643,2.78,2.78,0,0,1-1.089.227A2.894,2.894,0,0,1,551.665,475.959Z" transform="translate(-500.299 -468.021)"/>
        <path id="パス_813" data-name="パス 813" d="M580.791,471.36a1.753,1.753,0,0,1-.69-.806,3.09,3.09,0,0,1-.236-1.268v-1.268a3.244,3.244,0,0,1,.23-1.285,1.746,1.746,0,0,1,.671-.811,1.944,1.944,0,0,1,1.058-.278,2.6,2.6,0,0,1,1.17.25,1.847,1.847,0,0,1,.805.817l-.118,1.122a1.549,1.549,0,0,0-.177-.724,1.42,1.42,0,0,0-.513-.556,1.628,1.628,0,0,0-1.92.227,1.787,1.787,0,0,0-.4,1.243v1.263a1.738,1.738,0,0,0,.4,1.22,1.452,1.452,0,0,0,1.128.435,1.409,1.409,0,0,0,.786-.219,1.467,1.467,0,0,0,.516-.57,1.588,1.588,0,0,0,.18-.733l.079,1.218a1.413,1.413,0,0,1-.7.766,2.688,2.688,0,0,1-1.184.233A2.047,2.047,0,0,1,580.791,471.36Zm2.89-7.967h.808v8.16h-.808Z" transform="translate(-520.062 -463.393)"/>
      </g>
      <g id="グループ_1829" data-name="グループ 1829" transform="translate(-3131.646 -17007.291)">
        <path id="パス_814" data-name="パス 814" d="M397.579,502.978h.977l3.064,8.16h-1.442l-2.11-6.078-2.11,6.078h-1.442Zm-1.622,5.326h4.293v1.285h-4.293Z" transform="translate(-394.515 -502.978)"/>
        <path id="パス_815" data-name="パス 815" d="M430.026,515.752a4.085,4.085,0,0,1-.884-.289A3.373,3.373,0,0,1,428.4,515l.814-1.01a3.669,3.669,0,0,0,.906.477,2.7,2.7,0,0,0,.9.163,2.06,2.06,0,0,0,.929-.166.52.52,0,0,0,.317-.48.427.427,0,0,0-.157-.362.919.919,0,0,0-.4-.166q-.239-.045-.671-.084l-.151-.011c-.052,0-.1-.01-.152-.017l-.045,0-.045,0a5.557,5.557,0,0,1-1-.188,1.31,1.31,0,0,1-.66-.463,1.57,1.57,0,0,1-.266-.982,1.83,1.83,0,0,1,.266-1.013,1.633,1.633,0,0,1,.783-.623,3.364,3.364,0,0,1,1.268-.211,4.385,4.385,0,0,1,.876.087,4.279,4.279,0,0,1,.816.253,3.91,3.91,0,0,1,.738.412l-.8.977a3.747,3.747,0,0,0-.828-.376,2.738,2.738,0,0,0-.811-.129,1.7,1.7,0,0,0-.8.152.484.484,0,0,0-.275.449.329.329,0,0,0,.151.292.949.949,0,0,0,.379.137q.227.036.659.076c.03,0,.059.007.087.008l.087.009h.039a.2.2,0,0,1,.045.006,6.013,6.013,0,0,1,1.072.185,1.43,1.43,0,0,1,.724.491,1.668,1.668,0,0,1,.3,1.069,1.845,1.845,0,0,1-.28,1.041,1.708,1.708,0,0,1-.833.64,3.74,3.74,0,0,1-1.355.216A4.863,4.863,0,0,1,430.026,515.752Z" transform="translate(-417.312 -507.605)"/>
        <path id="パス_816" data-name="パス 816" d="M457.239,506.628h2.739V507.8h-2.739Zm.943,5.464a1.7,1.7,0,0,1-.343-1.153v-6.005h1.341v5.82a.548.548,0,0,0,.084.328.287.287,0,0,0,.247.115h.466v1.285h-.718A1.362,1.362,0,0,1,458.182,512.092Z" transform="translate(-436.716 -504.293)"/>
        <path id="パス_817" data-name="パス 817" d="M480.607,509.94H482v5.826h-1.4Zm2.913,1.277a1.256,1.256,0,0,0-.454-.076,1.013,1.013,0,0,0-.783.3,1.179,1.179,0,0,0-.278.833l-.117-1.319a2.074,2.074,0,0,1,.659-.811,1.512,1.512,0,0,1,.9-.289,1.96,1.96,0,0,1,.69.115,1.52,1.52,0,0,1,.539.34l-.82,1.128A.868.868,0,0,0,483.52,511.217Z" transform="translate(-452.438 -507.605)"/>
        <path id="パス_818" data-name="パス 818" d="M506.754,515.552a1.971,1.971,0,0,1-.841-.867,3,3,0,0,1-.29-1.372v-.948a2.935,2.935,0,0,1,.29-1.355,1.961,1.961,0,0,1,.841-.859,3.137,3.137,0,0,1,2.655,0,1.962,1.962,0,0,1,.842.859,2.94,2.94,0,0,1,.289,1.355v.966a2.952,2.952,0,0,1-.289,1.361,1.979,1.979,0,0,1-.842.862,3.11,3.11,0,0,1-2.655,0Zm2.152-1.31a1.313,1.313,0,0,0,.292-.912v-.966a1.294,1.294,0,0,0-.292-.9,1.223,1.223,0,0,0-1.65,0,1.293,1.293,0,0,0-.292.9v.966a1.321,1.321,0,0,0,.289.912,1.22,1.22,0,0,0,1.653,0Z" transform="translate(-469.269 -507.605)"/>
        <path id="パス_819" data-name="パス 819" d="M537.161,509.427a.464.464,0,0,0,.107.328.392.392,0,0,0,.3.115h.4v1.285h-.729a1.353,1.353,0,0,1-1.047-.4,1.616,1.616,0,0,1-.373-1.139v-6.634h1.341Z" transform="translate(-489.586 -502.978)"/>
        <path id="パス_820" data-name="パス 820" d="M557.147,515.552a1.975,1.975,0,0,1-.842-.867,3.006,3.006,0,0,1-.289-1.372v-.948a2.943,2.943,0,0,1,.289-1.355,1.965,1.965,0,0,1,.842-.859,3.137,3.137,0,0,1,2.655,0,1.965,1.965,0,0,1,.841.859,2.94,2.94,0,0,1,.289,1.355v.966a2.952,2.952,0,0,1-.289,1.361,1.981,1.981,0,0,1-.841.862,3.11,3.11,0,0,1-2.655,0Zm2.152-1.31a1.312,1.312,0,0,0,.292-.912v-.966a1.293,1.293,0,0,0-.292-.9,1.223,1.223,0,0,0-1.65,0,1.29,1.29,0,0,0-.292.9v.966a1.322,1.322,0,0,0,.289.912,1.22,1.22,0,0,0,1.653,0Z" transform="translate(-503.174 -507.605)"/>
        <path id="パス_821" data-name="パス 821" d="M586.609,515.549a1.808,1.808,0,0,1-.679-.836,3.375,3.375,0,0,1-.233-1.322V512.28a3.452,3.452,0,0,1,.23-1.327,1.8,1.8,0,0,1,.671-.842,1.887,1.887,0,0,1,1.058-.289,1.577,1.577,0,0,1,.9.275,1.959,1.959,0,0,1,.654.775l-.118,1.24a1.272,1.272,0,0,0-.117-.573.816.816,0,0,0-.343-.359,1.114,1.114,0,0,0-.545-.124.958.958,0,0,0-.774.326,1.367,1.367,0,0,0-.275.909v1.1a1.323,1.323,0,0,0,.275.9.97.97,0,0,0,.774.317,1.1,1.1,0,0,0,.545-.126.834.834,0,0,0,.343-.362,1.258,1.258,0,0,0,.117-.567l.079,1.28a1.577,1.577,0,0,1-.559.732,1.539,1.539,0,0,1-.928.278A1.931,1.931,0,0,1,586.609,515.549Zm.059,2.318a1.949,1.949,0,0,1-.83-.687l.9-.825a1.392,1.392,0,0,0,.5.4,1.411,1.411,0,0,0,.614.141,1.267,1.267,0,0,0,.9-.312,1.148,1.148,0,0,0,.331-.878v-5.792h1.342v5.652a2.926,2.926,0,0,1-.3,1.375,2.006,2.006,0,0,1-.876.87,2.978,2.978,0,0,1-1.383.3A2.862,2.862,0,0,1,586.668,517.867Z" transform="translate(-523.144 -507.582)"/>
        <path id="パス_822" data-name="パス 822" d="M613.8,510.113h1.307l1.874,5.062-.8,1.24Zm5.269,0-2.536,7.189a1.794,1.794,0,0,1-.357.631,1.214,1.214,0,0,1-.536.334,2.645,2.645,0,0,1-.786.1h-.286v-1.3h.286a.82.82,0,0,0,.463-.118.83.83,0,0,0,.289-.4l2.155-6.443Z" transform="translate(-542.052 -507.778)"/>
      </g>
    </g>
  </g>
</svg>
