<svg xmlns="http://www.w3.org/2000/svg" width="722.109" height="281.49" viewBox="0 0 722.109 281.49">
  <circle id="楕円形_343" data-name="楕円形 343" cx="71.666" cy="71.666" r="71.666" fill="#fff"/>
  <circle id="楕円形_345" data-name="楕円形 345" cx="71.666" cy="71.666" r="71.666" transform="translate(148.434 138.158)" fill="#fff"/>
  <g id="楕円形_337" data-name="楕円形 337" transform="translate(428.281 138.158)">
    <circle id="楕円形_337-2" data-name="楕円形 337" cx="71.188" cy="71.188" r="71.188" transform="translate(0.478 0.478)" fill="#ff0"/>
    <circle id="楕円形_338" data-name="楕円形 338" cx="71.666" cy="71.666" r="71.666" fill="#ff0"/>
  </g>
  <g id="楕円形_338-2" data-name="楕円形 338" transform="translate(578.777)">
    <circle id="楕円形_339" data-name="楕円形 339" cx="71.188" cy="71.188" r="71.188" transform="translate(0.478 0.478)" fill="#ff0"/>
    <circle id="楕円形_340" data-name="楕円形 340" cx="71.666" cy="71.666" r="71.666" fill="#ff0"/>
  </g>
  <line id="線_486" data-name="線 486" x2="50.002" y2="50.002" transform="translate(111.811 120.07)" fill="none" stroke="#ff0" stroke-width="3"/>
  <line id="線_488" data-name="線 488" x2="153.966" transform="translate(291.287 209.824)" fill="none" stroke="#ff0" stroke-width="3"/>
  <line id="線_489" data-name="線 489" x1="49.116" y2="49.116" transform="translate(554.799 125.963)" fill="none" stroke="#ff0" stroke-width="3"/>
  <circle id="楕円形_344" data-name="楕円形 344" cx="71.188" cy="71.188" r="71.188" transform="translate(0.477 0.479)" fill="#ff0"/>
  <circle id="楕円形_346" data-name="楕円形 346" cx="71.188" cy="71.188" r="71.188" transform="translate(148.91 138.637)" fill="#ff0"/>
  <g id="グループ_2296" data-name="グループ 2296" transform="translate(22.57 57.902)" style="isolation: isolate">
    <path id="パス_1127" data-name="パス 1127" d="M326.29,402.973c1.839,4.449.82,7.431-.522,8.822a1.818,1.818,0,0,1-2.908.1,1.723,1.723,0,0,1,.522-2.286c1.367-.969,2.685-3.579,2.585-6.611Zm6.735-1.715c-.05.324-.273.573-.869.672v12.129c0,.571.273.745,1.292.745h2.809c1.018,0,1.863,0,2.286-.05a.871.871,0,0,0,.8-.422,22.879,22.879,0,0,0,1.318-3.828h.273l.074,4c.9.348,1.144.7,1.144,1.268,0,1.367-1.242,1.988-6.164,1.988h-3.032c-2.809,0-3.7-.522-3.7-2.833V400.885Zm2.237.324a13.3,13.3,0,0,0-5.667-5.542l.1-.3C341.028,396.412,338.369,403.4,335.262,401.581Zm7.53,9.618a12.135,12.135,0,0,0-2.783-8.251l.2-.2C349.876,407.048,345.278,414.53,342.792,411.2Z" transform="translate(-322.609 -395.244)" fill="#1d1d1f"/>
    <path id="パス_1128" data-name="パス 1128" d="M352.484,415.747c6.288-1.491,8.649-4.946,8.649-9.246,0-4.573-2.932-7.506-6.959-7.506a6.678,6.678,0,0,0-.994.075,5.154,5.154,0,0,1,1.64,3.156,13.122,13.122,0,0,1-.82,4.425c-1.119,3.156-3.9,7.68-6.935,7.68-1.987,0-3.826-3.057-3.826-6.288a10.045,10.045,0,0,1,3.653-7.381A11.16,11.16,0,0,1,354.447,398c5.717,0,9.769,3.977,9.769,9.146,0,4.7-3.282,8.723-11.632,9.071Zm-.422-16.454a9.615,9.615,0,0,0-4.374,2.635,7.662,7.662,0,0,0-2.237,5.319c0,1.963.844,3.8,1.889,3.8,1.392,0,3.579-3.43,4.374-5.145a11.951,11.951,0,0,0,1.119-4.473A3.662,3.662,0,0,0,352.061,399.293Z" transform="translate(-316.926 -394.621)" fill="#1d1d1f"/>
    <path id="パス_1129" data-name="パス 1129" d="M382.073,403.3s1.789,1.417,2.858,2.386c-.05.273-.324.4-.7.4h-4.473a16.674,16.674,0,0,1-2.635,6.462c8.525,2.534,6.835,7.108,4.027,5.916a25.7,25.7,0,0,0-5.766-4.027c-2.684,2.286-6.86,3.579-13.544,4.224l-.1-.372c5.293-1.119,8.9-2.634,11.283-5.02-1.168-.522-2.411-1.019-3.7-1.467-.3.621-.571,1.194-.82,1.69a4.354,4.354,0,0,1-3.133-.173c.921-1.716,2.213-4.548,3.306-7.232h-6.536l-.2-.7h7.01a44.716,44.716,0,0,0,1.69-4.747l3.826.7c-.074.348-.348.6-1.043.621-.3.846-.77,2.063-1.342,3.43h8.425Zm-16.155-3.281a3.715,3.715,0,0,1-1.242,3.455,1.591,1.591,0,0,1-2.436-.573,1.635,1.635,0,0,1,.971-2.062,3.825,3.825,0,0,0,1.689-3.38h.324a10.493,10.493,0,0,1,.6,1.839h6.039v-3.951l3.927.3c-.05.347-.249.6-.92.721V399.3h5.965l1.515-1.515,2.634,2.51a1.359,1.359,0,0,1-.968.3,21.785,21.785,0,0,1-4,2.858l-.223-.149a33.367,33.367,0,0,0,1.144-3.281Zm5.89,6.065c-.7,1.69-1.491,3.553-2.212,5.12,1.716.173,3.256.372,4.622.647a14.049,14.049,0,0,0,2.263-5.766Z" transform="translate(-311.828 -395.351)" fill="#1d1d1f"/>
    <path id="パス_1130" data-name="パス 1130" d="M394.34,415.178c1.143.1,2.411.149,3.852.149s4.772,0,6.388-.024v.3c-1.019.224-1.515,1.318-1.541,2.536h-4.995c-5.742,0-8.923-1.069-10.763-5.641a13.265,13.265,0,0,1-5.94,6.189l-.2-.223c3.231-3.107,4.349-7.8,4.624-11.533l3.876.647c-.1.347-.372.6-.969.621a20.063,20.063,0,0,1-1.043,3.5,6.867,6.867,0,0,0,3.778,2.908V404.392H384.7l-.2-.7h12.973l1.541-1.863s.348.247.82.621c.249-.8.473-1.74.647-2.51H385.344a3.841,3.841,0,0,1-1.443,3.6,1.6,1.6,0,0,1-2.385-.671,1.582,1.582,0,0,1,1.018-1.963,3.8,3.8,0,0,0,1.964-3.181h.348a8,8,0,0,1,.4,1.515h6.115v-3.876l3.926.3c-.05.348-.247.6-.918.721v2.858h5.99l1.491-1.515,2.634,2.509c-.2.2-.472.249-.969.3a23.11,23.11,0,0,1-3.082,2.361c.472.348.969.746,1.367,1.094-.05.273-.323.4-.671.4H394.34v4.747h3.38l1.517-1.964s1.714,1.342,2.759,2.261c-.075.274-.348.4-.7.4H394.34Z" transform="translate(-306.484 -395.346)" fill="#1d1d1f"/>
  </g>
  <g id="未来への_備え" data-name="未来への 備え" transform="translate(170.746 185.857)" style="isolation: isolate">
    <g id="グループ_2267" data-name="グループ 2267" style="isolation: isolate">
      <path id="パス_1131" data-name="パス 1131" d="M452.5,506.357a17.678,17.678,0,0,0,9.916,7.555l-.05.274a3.462,3.462,0,0,0-2.46,2.658c-3.778-2.087-6.362-5.542-7.9-10.487h-.026v11.581c0,.323-1.292,1.043-2.411,1.043H449v-9.444a24.464,24.464,0,0,1-9.991,7.678l-.223-.3a25.3,25.3,0,0,0,8.5-10.562h-7.954l-.223-.7H449v-4.547h-7.654l-.175-.7H449V495.67l3.9.372c-.048.347-.249.6-.92.7v3.678h3.579l1.666-2.088s1.889,1.392,3.008,2.385a.627.627,0,0,1-.672.4h-7.58v4.547H457.2l1.74-2.162s1.939,1.441,3.133,2.459c-.075.274-.348.4-.721.4Z" transform="translate(-438.782 -495.67)" fill="#1d1d1f"/>
      <path id="パス_1132" data-name="パス 1132" d="M471.884,507.9c2.113,3.156,6.19,5.516,9.992,6.462l-.05.3a3.192,3.192,0,0,0-2.337,2.584,15.607,15.607,0,0,1-8.028-9.121v9.817c0,.323-1.292,1.043-2.411,1.043h-.571v-8.227a24.4,24.4,0,0,1-10.015,7.009l-.224-.3a24.094,24.094,0,0,0,8.55-9.569h-8l-.223-.672h9.916v-6.635h-8.624l-.2-.7h8.823V495.67l3.9.372c-.048.347-.249.6-.92.7v3.156h4.5l1.69-2.112s1.889,1.441,3.057,2.411c-.05.274-.348.4-.7.4h-8.551v6.635h5.295l1.764-2.162s1.914,1.441,3.107,2.435c-.074.274-.323.4-.7.4Zm-9.294-6.909c6.81,2.237,3.927,7.356,1.392,5.069a12.34,12.34,0,0,0-1.615-4.969Zm10.066,5.566a43.841,43.841,0,0,0,2.136-5.641l3.728,1.467c-.124.3-.472.5-1.019.446a20.652,20.652,0,0,1-4.548,3.927Z" transform="translate(-433.422 -495.67)" fill="#1d1d1f"/>
      <path id="パス_1133" data-name="パス 1133" d="M478.127,505.963l.3-.224a2.91,2.91,0,0,0,1.491.8,2.27,2.27,0,0,0,1.367-.746c1.242-1.143,3.6-3.6,4.4-4.473a2.554,2.554,0,0,1,1.963-.968,3.552,3.552,0,0,1,2.685,1.316c2.883,2.957,4.9,5.666,9.294,8.177a2.75,2.75,0,0,1,1.591,2.51,1.337,1.337,0,0,1-1.441,1.416c-1.366,0-3.454-1.788-5.567-4.075-2.087-2.312-3.951-5.022-5.367-6.513a1.708,1.708,0,0,0-1.119-.645c-.3,0-.6.2-.994.671-.82,1.069-2.585,3.678-3.356,4.921-.547.87-.944,1.59-1.865,1.59a4.006,4.006,0,0,1-2.883-1.74A3.954,3.954,0,0,1,478.127,505.963Z" transform="translate(-427.943 -494.382)" fill="#1d1d1f"/>
      <path id="パス_1134" data-name="パス 1134" d="M508,516.025c6.288-1.491,8.649-4.946,8.649-9.246,0-4.573-2.934-7.5-6.959-7.5a6.705,6.705,0,0,0-.995.074,5.148,5.148,0,0,1,1.64,3.157,13.091,13.091,0,0,1-.82,4.423c-1.119,3.155-3.9,7.68-6.934,7.68-1.988,0-3.828-3.057-3.828-6.288a10.046,10.046,0,0,1,3.654-7.383,11.166,11.166,0,0,1,7.555-2.658c5.717,0,9.768,3.976,9.768,9.145,0,4.7-3.28,8.724-11.631,9.071Zm-.423-16.452a9.612,9.612,0,0,0-4.374,2.634,7.67,7.67,0,0,0-2.237,5.319c0,1.963.846,3.8,1.889,3.8,1.393,0,3.579-3.431,4.375-5.144a11.988,11.988,0,0,0,1.119-4.474A3.654,3.654,0,0,0,507.577,499.573Z" transform="translate(-422.261 -494.951)" fill="#1d1d1f"/>
    </g>
    <g id="グループ_2268" data-name="グループ 2268" transform="translate(24.645 28.642)" style="isolation: isolate">
      <path id="パス_1135" data-name="パス 1135" d="M464.094,525.632a.915.915,0,0,1-.77.472v14.613a3.465,3.465,0,0,1-2.187.746h-.446V528.638a19.307,19.307,0,0,1-2.263,2.61l-.323-.175a45.955,45.955,0,0,0,3.953-12.947l3.852,1.119a.9.9,0,0,1-.995.522,32.978,32.978,0,0,1-2.136,5.394ZM479.2,523.32s1.69,1.293,2.709,2.188c-.074.273-.323.4-.671.4H467.822v3.082c0,3.455-.223,8.873-3.828,12.4l-.3-.249c1.666-3.777,1.715-8.4,1.715-12.153v-4.846l2.809,1.068h9.493Zm-14.042-1.987h3.877v-3.157l3.4.323c-.024.324-.223.571-.82.671v2.163h2.884v-3.157l3.43.323c-.025.3-.249.571-.846.671v2.163h1.143l1.244-1.691s1.466,1.168,2.311,1.988c-.05.274-.3.4-.647.4h-4.051v1.74c0,.149-.621.547-2.138.547h-.446v-2.287h-2.884v1.863c0,.15-.645.523-2.112.523h-.472v-2.386h-3.7Zm13.47,5.069,2.709,2.062a1.811,1.811,0,0,1-1.019.523v9.2c0,1.865-.348,2.883-3.032,3.131a4.594,4.594,0,0,0-.323-1.913,1.506,1.506,0,0,0-1.268-.8v-.372s1.193.1,1.541.1c.323,0,.4-.149.4-.422V535.9H475.4v4.574a2.346,2.346,0,0,1-1.939.694h-.372V535.9h-2.162v4.6c0,.273-.995.844-2.062.844h-.374V526.725l2.584,1.069h6.339Zm-7.7,2.113v2.932h2.162v-2.932Zm2.162,6.686v-3.059h-2.162V535.2Zm4.548-6.686H475.4v2.932h2.237Zm0,6.686v-3.059H475.4V535.2Z" transform="translate(-458.104 -518.126)" fill="#1d1d1f"/>
      <path id="パス_1136" data-name="パス 1136" d="M481.339,525.395c.422.671.945,1.268,1.616,1.268a41.885,41.885,0,0,0,6.661-1.417c.571-.174.77-.621,1.242-.621.87,0,3.032,1.218,3.032,2.311,0,.621-1.069.969-1.939,1.491a32.882,32.882,0,0,0-4.821,3.927,6.969,6.969,0,0,1,1.616-.2,2.144,2.144,0,0,1,2.162,1.666c.224.819.473,1.913.621,2.435a1.343,1.343,0,0,0,1.417,1.143c2.386,0,2.858-.571,3.8-.571,1.218,0,2.237.647,2.237,1.616,0,1.342-2.709,1.664-5.319,1.664-2.908,0-3.977-.819-4.275-2.709-.124-.994-.223-1.963-.4-2.857-.125-.846-.571-1.244-1.218-1.244a3.3,3.3,0,0,0-2.261,1.293,40.054,40.054,0,0,0-3.381,4.15c-.546.719-1.043,1.168-1.714,1.168a1.239,1.239,0,0,1-1.316-1.268c0-1.194.472-1.566,1.292-2.337,1.043-.944,3.082-2.758,4.25-3.852,1.863-1.74,4.025-3.9,4.995-5,.5-.6.224-.894-.5-.671a19.39,19.39,0,0,0-3.6,1.64c-.844.522-1.168,1.043-1.838,1.043a3.216,3.216,0,0,1-2.735-2.112,3.4,3.4,0,0,1,.024-1.863Zm2.287-6.561.323-.3a7.758,7.758,0,0,0,4.324,1.441,14.551,14.551,0,0,0,2.039-.323,2.47,2.47,0,0,1,2.411,2.212c0,.473-.348.92-1.144.92-.844,0-1.541-.124-2.162-.1a26.182,26.182,0,0,0-4.25.894l-.173-.422a30.152,30.152,0,0,0,2.733-1.416A6.513,6.513,0,0,1,483.626,518.833Z" transform="translate(-452.319 -518.013)" fill="#1d1d1f"/>
    </g>
  </g>
  <g id="近い_未来への_予測" data-name="近い 未来への 予測" transform="translate(450.594 171.449)" style="isolation: isolate">
    <g id="グループ_2269" data-name="グループ 2269" transform="translate(24.895)" style="isolation: isolate">
      <path id="パス_1137" data-name="パス 1137" d="M690.107,493.222c-.075,3.38-.645,7.58-4.9,10.339,1.392.795,3.156.92,6.585.92,2.759,0,6.511,0,9.569-.1v.3a2.542,2.542,0,0,0-1.913,2.51h-7.631c-4.7,0-6.561-.746-8.226-4.25a55.48,55.48,0,0,1-3.877,4.224.653.653,0,0,1-.422.621l-1.59-3.3c.894-.273,2.112-.746,3.379-1.218v-7.282h-3.155l-.148-.7h2.907l1.441-1.913,3.057,2.485a2.185,2.185,0,0,1-1.292.5v6.189a6.711,6.711,0,0,0,1.168.944l-.151-.173c2.163-3.181,2.362-7.208,2.362-10.835v-6.041l2.685.821a45.91,45.91,0,0,0,6.982-2.884l2.908,2.957c-.323.25-.894.224-1.64-.073a80.7,80.7,0,0,1-8.1.745v4.5h6.586l1.565-2.04s1.791,1.393,2.86,2.362c-.051.273-.324.4-.672.4h-3.629v9.991c0,.149-.9.645-2.361.645h-.522V493.222Zm-11.432-8.028c7.654,1.193,5.243,6.834,2.36,4.821a10.578,10.578,0,0,0-2.584-4.672Z" transform="translate(-677.705 -484.374)" fill="#1d1d1f"/>
      <path id="パス_1138" data-name="パス 1138" d="M700.615,491.217a4.264,4.264,0,0,0-1.913-3.529l.125-.273a6.062,6.062,0,0,1,2.335.323c1.268.522,2.759,1.939,2.759,3.082,0,1.218-1.316,2.584-1.316,5.715a4.128,4.128,0,0,0,1.937,3.828.778.778,0,0,0,.995-.222,44.72,44.72,0,0,0,2.584-4.425l.522.224a27.73,27.73,0,0,0-1.143,4.9c-.05,1.515.348,1.467.348,2.236,0,1.144-1.168,1.716-2.735,1.069a7.913,7.913,0,0,1-4.573-7.083C700.368,495.095,700.615,492.907,700.615,491.217Zm11.631-1.069.125-.422a8.044,8.044,0,0,1,5.567,2.386,7.448,7.448,0,0,1,2.188,5.393c0,1.566-.522,2.411-1.74,2.411a1.272,1.272,0,0,1-1.268-.944,27.093,27.093,0,0,0-.945-4.524A7.243,7.243,0,0,0,712.246,490.148Z" transform="translate(-671.921 -483.538)" fill="#1d1d1f"/>
    </g>
    <g id="グループ_2270" data-name="グループ 2270" transform="translate(0 28.742)" style="isolation: isolate">
      <path id="パス_1139" data-name="パス 1139" d="M671.906,517.6a17.681,17.681,0,0,0,9.917,7.555l-.05.274a3.46,3.46,0,0,0-2.46,2.659c-3.778-2.088-6.362-5.543-7.9-10.488h-.026v11.581c0,.323-1.292,1.044-2.411,1.044H668.4v-9.445a24.481,24.481,0,0,1-9.992,7.68l-.223-.3a25.28,25.28,0,0,0,8.5-10.562h-7.954l-.225-.7H668.4v-4.547h-7.655l-.173-.7H668.4v-4.747l3.9.372c-.05.348-.247.6-.92.7v3.678h3.579l1.666-2.088s1.888,1.392,3.006,2.385a.625.625,0,0,1-.67.4h-7.581V516.9H676.6l1.74-2.162s1.939,1.441,3.131,2.46c-.074.273-.347.4-.721.4Z" transform="translate(-658.187 -506.908)" fill="#1d1d1f"/>
      <path id="パス_1140" data-name="パス 1140" d="M691.291,519.136c2.112,3.157,6.187,5.516,9.991,6.463l-.05.3a3.191,3.191,0,0,0-2.335,2.584,15.6,15.6,0,0,1-8.028-9.121v9.817c0,.323-1.293,1.044-2.412,1.044h-.57v-8.228A24.383,24.383,0,0,1,677.869,529l-.223-.3a24.1,24.1,0,0,0,8.551-9.569h-8l-.225-.671h9.918V511.83h-8.625l-.2-.7h8.824v-4.226l3.9.372c-.05.348-.247.6-.918.7v3.157h4.5l1.69-2.113s1.89,1.441,3.057,2.411c-.048.274-.348.4-.7.4h-8.55v6.635h5.293l1.765-2.163s1.913,1.441,3.106,2.436c-.074.273-.323.4-.7.4ZM682,512.227c6.81,2.237,3.926,7.357,1.39,5.07a12.327,12.327,0,0,0-1.615-4.971Zm10.065,5.566a43.8,43.8,0,0,0,2.138-5.64l3.728,1.466a.918.918,0,0,1-1.019.448,20.775,20.775,0,0,1-4.548,3.927Z" transform="translate(-652.826 -506.908)" fill="#1d1d1f"/>
      <path id="パス_1141" data-name="パス 1141" d="M697.532,517.2l.3-.223a2.915,2.915,0,0,0,1.491.8,2.273,2.273,0,0,0,1.367-.746c1.241-1.144,3.6-3.6,4.4-4.473a2.554,2.554,0,0,1,1.964-.969,3.551,3.551,0,0,1,2.684,1.316c2.883,2.958,4.9,5.667,9.3,8.177a2.754,2.754,0,0,1,1.591,2.51A1.337,1.337,0,0,1,719.181,525c-1.367,0-3.455-1.788-5.567-4.075-2.088-2.311-3.951-5.02-5.369-6.511a1.709,1.709,0,0,0-1.119-.647c-.3,0-.6.2-.995.671-.819,1.069-2.584,3.678-3.353,4.922-.547.869-.946,1.591-1.865,1.591a4,4,0,0,1-2.883-1.741A3.94,3.94,0,0,1,697.532,517.2Z" transform="translate(-647.348 -505.62)" fill="#1d1d1f"/>
      <path id="パス_1142" data-name="パス 1142" d="M727.407,527.265c6.288-1.491,8.649-4.946,8.649-9.246,0-4.572-2.932-7.5-6.959-7.5a6.666,6.666,0,0,0-.994.074,5.154,5.154,0,0,1,1.64,3.157,13.121,13.121,0,0,1-.82,4.423c-1.119,3.156-3.9,7.68-6.935,7.68-1.987,0-3.828-3.057-3.828-6.287a10.049,10.049,0,0,1,3.654-7.383,11.159,11.159,0,0,1,7.555-2.658c5.717,0,9.768,3.976,9.768,9.144,0,4.7-3.281,8.724-11.631,9.072Zm-.422-16.454a9.618,9.618,0,0,0-4.375,2.635,7.672,7.672,0,0,0-2.236,5.319c0,1.963.846,3.8,1.889,3.8,1.392,0,3.579-3.43,4.374-5.144a11.989,11.989,0,0,0,1.119-4.474A3.661,3.661,0,0,0,726.985,510.811Z" transform="translate(-641.665 -506.188)" fill="#1d1d1f"/>
    </g>
    <g id="グループ_2271" data-name="グループ 2271" transform="translate(25.019 57.557)" style="isolation: isolate">
      <path id="パス_1143" data-name="パス 1143" d="M701.239,540.135a1.4,1.4,0,0,1-1.045.324,31.53,31.53,0,0,1-6.187,4.672l-.2-.174a33.764,33.764,0,0,0,2.883-5.169h-5.765v9.147c0,2.013-.571,3.4-4.275,3.653a3.045,3.045,0,0,0-.77-2.112A5.132,5.132,0,0,0,683,549.432v-.324s3.6.2,4.3.2c.448,0,.6-.149.6-.472v-9.047h-9.866l-.225-.721h11.905a16.047,16.047,0,0,0-5.468-4.945l.124-.3a13.794,13.794,0,0,1,5.841,1.369,29.851,29.851,0,0,0,3.555-3.157H681.007l-.222-.7h13.3l1.715-1.566,2.733,2.61c-.223.2-.5.249-1.069.273a40.309,40.309,0,0,1-6.635,2.934c1.74,1.268,1.615,2.834.769,3.48h5.1l1.716-1.666Z" transform="translate(-677.802 -529.425)" fill="#1d1d1f"/>
      <path id="パス_1144" data-name="パス 1144" d="M697.348,535.191c6.039,1.093,3.728,5.566,1.467,3.8a7.226,7.226,0,0,0-1.69-3.629Zm6.611-.92c-.819,2.883-2.261,8.226-2.509,9.495a9.961,9.961,0,0,0-.3,2.286c.05,1.292.995,2.287.921,4.548a1.9,1.9,0,0,1-1.94,2.013c-.522,0-1.043-.347-1.193-1.293.424-2.634.324-4.969-.223-5.368a2.261,2.261,0,0,0-1.268-.372v-.5h1.069c.348,0,.446,0,.721-.522.448-.92.448-.92,4.3-10.389Zm-5.144-4.772c6.413,1.193,4.1,5.791,1.689,4.025a9.723,9.723,0,0,0-1.888-3.877Zm7.779,16.378c0,.148-.3.4-.722.571l2.659,1.093c-.122.3-.446.473-.994.423a12.047,12.047,0,0,1-5.194,4.6l-.273-.273a15.528,15.528,0,0,0,3.23-5.643,3.363,3.363,0,0,1-.719.075h-.4v-16.6l2.51,1.069h2.038l1.218-1.291,2.36,1.888a1.384,1.384,0,0,1-.819.448v13.446a3.457,3.457,0,0,1-2.113.746h-.4V545.5h-2.386Zm0-13.968v3.778h2.386v-3.778Zm2.386,8.275v-3.778h-2.386v3.778Zm0,4.624v-3.9h-2.386v3.9Zm-.621,1.666c6.263,2.21,3.876,6.958,1.64,4.969a10.575,10.575,0,0,0-1.89-4.847Zm6.934.1c0,.249-1.069.721-1.889.721h-.5V531.661l3.057.3c-.026.273-.174.472-.671.546Zm5.194-16.626c-.074.347-.324.6-.918.7v18.714c0,1.865-.4,2.934-3.406,3.207a3.138,3.138,0,0,0-.571-1.864,3.266,3.266,0,0,0-2.088-.9v-.348s2.435.175,2.957.175c.423,0,.547-.124.547-.473V529.6Z" transform="translate(-672.479 -529.5)" fill="#1d1d1f"/>
    </g>
  </g>
  <g id="心の準備" transform="translate(601.348 57.854)" style="isolation: isolate">
    <g id="グループ_2272" data-name="グループ 2272" style="isolation: isolate">
      <path id="パス_1145" data-name="パス 1145" d="M780.063,402.973c1.838,4.448.819,7.431-.523,8.822a1.818,1.818,0,0,1-2.908.1,1.726,1.726,0,0,1,.522-2.287c1.369-.969,2.685-3.579,2.585-6.611Zm6.734-1.715c-.05.323-.273.571-.87.671v12.129c0,.571.273.746,1.292.746h2.809c1.019,0,1.865,0,2.287-.051a.865.865,0,0,0,.795-.422,22.6,22.6,0,0,0,1.318-3.828h.273l.075,4c.894.348,1.143.7,1.143,1.267,0,1.367-1.242,1.988-6.163,1.988h-3.033c-2.807,0-3.7-.522-3.7-2.833V400.884Zm2.237.323a13.31,13.31,0,0,0-5.667-5.542l.1-.3C794.8,396.411,792.141,403.4,789.035,401.58Zm7.53,9.618a12.132,12.132,0,0,0-2.784-8.251l.2-.2C803.648,407.048,799.05,414.529,796.565,411.2Z" transform="translate(-776.381 -395.194)" fill="#1d1d1f"/>
      <path id="パス_1146" data-name="パス 1146" d="M806.257,415.746c6.287-1.491,8.649-4.945,8.649-9.245,0-4.574-2.934-7.506-6.959-7.506a6.672,6.672,0,0,0-.994.074,5.154,5.154,0,0,1,1.64,3.157,13.112,13.112,0,0,1-.821,4.423c-1.119,3.157-3.9,7.68-6.933,7.68-1.989,0-3.828-3.056-3.828-6.287a10.049,10.049,0,0,1,3.653-7.382A11.172,11.172,0,0,1,808.22,398c5.715,0,9.768,3.977,9.768,9.146,0,4.7-3.281,8.724-11.631,9.071Zm-.422-16.452a9.6,9.6,0,0,0-4.375,2.634,7.667,7.667,0,0,0-2.237,5.319c0,1.964.846,3.8,1.89,3.8,1.39,0,3.578-3.428,4.372-5.144a11.958,11.958,0,0,0,1.119-4.474A3.656,3.656,0,0,0,805.835,399.293Z" transform="translate(-770.698 -394.572)" fill="#1d1d1f"/>
      <path id="パス_1147" data-name="パス 1147" d="M815.636,399.064c5.914.075,3.951,4.523,1.615,3.056a5.856,5.856,0,0,0-1.814-2.883Zm20.23,11.183s1.839,1.417,2.983,2.386c-.075.273-.348.4-.721.4H828.66v5.02c0,.223-1.369.7-2.462.7h-.547v-5.717h-9.816l-.2-.7h10.015v-2.212a5.262,5.262,0,0,1-.968.1h-.523V402.17a15.95,15.95,0,0,1-2.459,1.691l-.3-.249a21.3,21.3,0,0,0,4.1-8.3l3.653,1.366c-.1.3-.446.5-1.018.448a12.538,12.538,0,0,1-.995,1.666l.2.074H829.8c.223-1.045.448-2.385.547-3.38l3.777.944c-.1.3-.373.523-.92.5a25.672,25.672,0,0,1-2.485,1.939h3.356l1.491-1.889s1.69,1.292,2.733,2.212c-.05.273-.324.4-.671.4h-5.194v2.337h1.515l1.366-1.716s1.516,1.168,2.437,2.038c-.051.273-.3.4-.647.4h-4.672v2.385H834l1.316-1.789s1.516,1.242,2.412,2.088c-.075.273-.324.4-.671.4h-4.622v2.46h2.31l1.468-1.889s1.615,1.293,2.608,2.212c-.074.274-.323.4-.671.4H826.994v.472c0,.1-.224.3-.6.5l2.958.273c-.049.249-.2.472-.7.547v1.64H834.2Zm-18.738-4.871c.422,0,.5,0,.794-.422.6-.7.6-.7,5.02-6.76l.348.124c-.844,1.765-2.784,5.369-3.107,6.139a4.491,4.491,0,0,0-.446,1.74c.024.87.918,1.467.844,2.983-.05.944-.722,1.565-2.013,1.565a1.179,1.179,0,0,1-1.144-.994c.3-1.915.2-3.281-.347-3.579a2.587,2.587,0,0,0-1.144-.324v-.472Zm.522-9.792c5.914.223,3.9,4.672,1.541,3.156a6.422,6.422,0,0,0-1.74-3.006Zm9.344,4v2.337H829.7v-2.337Zm2.709,3.057h-2.709v2.385H829.7Zm0,3.082h-2.709v2.46H829.7Z" transform="translate(-765.622 -395.312)" fill="#1d1d1f"/>
      <path id="パス_1148" data-name="パス 1148" d="M840.711,402.875a.914.914,0,0,1-.772.473v14.613a3.46,3.46,0,0,1-2.186.746h-.448V405.883a19.353,19.353,0,0,1-2.26,2.61l-.324-.173a45.99,45.99,0,0,0,3.951-12.949l3.852,1.119a.9.9,0,0,1-.994.522,32.921,32.921,0,0,1-2.138,5.393Zm15.111-2.311s1.69,1.293,2.709,2.187c-.075.274-.323.4-.671.4H844.439v3.082c0,3.455-.224,8.872-3.828,12.4l-.3-.247c1.666-3.778,1.714-8.4,1.714-12.154v-4.847l2.809,1.069h9.495Zm-14.042-1.987h3.878V395.42l3.4.323c-.026.324-.223.571-.82.671v2.163h2.883V395.42l3.431.323c-.025.3-.25.571-.847.671v2.163h1.144l1.243-1.69s1.466,1.168,2.311,1.987c-.05.274-.3.4-.647.4h-4.052v1.74c0,.149-.62.547-2.136.547h-.448v-2.287h-2.883v1.865c0,.148-.647.522-2.112.522h-.472v-2.386h-3.7Zm13.469,5.069,2.709,2.064a1.815,1.815,0,0,1-1.018.522v9.2c0,1.863-.348,2.883-3.032,3.131a4.6,4.6,0,0,0-.323-1.914,1.51,1.51,0,0,0-1.268-.795v-.372s1.193.1,1.541.1c.324,0,.4-.148.4-.422V413.14h-2.236v4.573a2.343,2.343,0,0,1-1.939.7h-.372V413.14h-2.163v4.6c0,.273-.994.844-2.062.844h-.372V403.969l2.585,1.069h6.337Zm-7.7,2.113v2.932h2.163v-2.932Zm2.163,6.685v-3.056h-2.163v3.056Zm4.547-6.685h-2.236v2.932h2.236Zm0,6.685v-3.056h-2.236v3.056Z" transform="translate(-760.31 -395.296)" fill="#1d1d1f"/>
    </g>
  </g>
</svg>
