<svg xmlns="http://www.w3.org/2000/svg" width="258.542" height="243.712" viewBox="0 0 258.542 243.712">
  <g id="グループ_2441" data-name="グループ 2441" transform="translate(-58 -6955)">
    <g id="グループ_2372" data-name="グループ 2372" transform="translate(199 6955)">
      <ellipse id="楕円形_348" data-name="楕円形 348" cx="58.379" cy="58.379" rx="58.379" ry="58.379" transform="translate(0 0)" fill="#ff0"/>
      <g id="未来への_備え" data-name="未来への 備え" transform="translate(17.907 38.724)" style="isolation: isolate">
        <g id="グループ_2267" data-name="グループ 2267" style="isolation: isolate">
          <path id="パス_1131" data-name="パス 1131" d="M450.033,504.434a14.5,14.5,0,0,0,8.131,6.2l-.041.225a2.839,2.839,0,0,0-2.018,2.18c-3.1-1.711-5.217-4.545-6.481-8.6H449.6v9.5c0,.265-1.06.856-1.977.856h-.469v-7.744a20.062,20.062,0,0,1-8.193,6.3l-.183-.244a20.744,20.744,0,0,0,6.97-8.662H439.23l-.183-.571h8.112v-3.729h-6.277l-.143-.571h6.42V495.67l3.2.305c-.04.285-.2.49-.754.571v3.017h2.935l1.366-1.712s1.549,1.141,2.466,1.956a.514.514,0,0,1-.551.327H449.6v3.729h4.28l1.427-1.773s1.59,1.182,2.569,2.017c-.062.225-.286.327-.591.327Z" transform="translate(-438.782 -495.67)" fill="#1d1d1f"/>
          <path id="パス_1132" data-name="パス 1132" d="M469.429,505.7a14.381,14.381,0,0,0,8.194,5.3l-.041.245a2.618,2.618,0,0,0-1.916,2.119,12.8,12.8,0,0,1-6.583-7.48v8.051c0,.265-1.06.856-1.977.856h-.469v-6.747a20.005,20.005,0,0,1-8.213,5.748l-.184-.244a19.758,19.758,0,0,0,7.011-7.847h-6.562l-.183-.551h8.132v-5.441h-7.072l-.163-.571h7.235V495.67l3.2.305c-.04.285-.2.49-.754.571v2.588h3.689l1.386-1.732s1.549,1.182,2.507,1.977c-.041.225-.286.326-.57.326h-7.012v5.441h4.342l1.447-1.773s1.57,1.182,2.548,2c-.061.225-.265.327-.571.327Zm-7.622-5.666c5.584,1.835,3.221,6.032,1.141,4.157a10.119,10.119,0,0,0-1.324-4.075Zm8.255,4.565a35.952,35.952,0,0,0,1.752-4.626l3.057,1.2c-.1.245-.387.407-.836.366a16.936,16.936,0,0,1-3.73,3.221Z" transform="translate(-437.887 -495.67)" fill="#1d1d1f"/>
          <path id="パス_1133" data-name="パス 1133" d="M478.127,504.952l.245-.184a2.387,2.387,0,0,0,1.223.653,1.862,1.862,0,0,0,1.121-.612c1.019-.937,2.955-2.955,3.608-3.668a2.1,2.1,0,0,1,1.61-.794,2.913,2.913,0,0,1,2.2,1.079c2.364,2.425,4.016,4.646,7.622,6.706a2.255,2.255,0,0,1,1.3,2.059,1.1,1.1,0,0,1-1.182,1.161c-1.12,0-2.833-1.467-4.566-3.342-1.711-1.9-3.24-4.118-4.4-5.341a1.4,1.4,0,0,0-.917-.529c-.245,0-.49.163-.815.55-.673.877-2.12,3.017-2.752,4.035-.449.713-.774,1.3-1.529,1.3a3.285,3.285,0,0,1-2.364-1.427A3.243,3.243,0,0,1,478.127,504.952Z" transform="translate(-436.973 -495.455)" fill="#1d1d1f"/>
          <path id="パス_1134" data-name="パス 1134" d="M506.337,512.833c5.157-1.223,7.093-4.056,7.093-7.582,0-3.75-2.406-6.154-5.707-6.154a5.493,5.493,0,0,0-.816.061,4.221,4.221,0,0,1,1.345,2.589,10.736,10.736,0,0,1-.673,3.628c-.917,2.588-3.2,6.3-5.686,6.3-1.631,0-3.139-2.507-3.139-5.157a8.239,8.239,0,0,1,3-6.054,9.157,9.157,0,0,1,6.2-2.18c4.688,0,8.01,3.26,8.01,7.5,0,3.852-2.69,7.155-9.538,7.439Zm-.347-13.492a7.883,7.883,0,0,0-3.587,2.16,6.29,6.29,0,0,0-1.835,4.362c0,1.61.693,3.119,1.549,3.119,1.142,0,2.935-2.814,3.588-4.218a9.832,9.832,0,0,0,.917-3.669A3,3,0,0,0,505.99,499.341Z" transform="translate(-436.024 -495.55)" fill="#1d1d1f"/>
        </g>
        <g id="グループ_2268" data-name="グループ 2268" transform="translate(20.21 23.489)" style="isolation: isolate">
          <path id="パス_1135" data-name="パス 1135" d="M463.016,524.282a.75.75,0,0,1-.632.387v11.984a2.842,2.842,0,0,1-1.794.612h-.366V526.747a15.833,15.833,0,0,1-1.856,2.14l-.265-.143a37.686,37.686,0,0,0,3.241-10.618l3.159.917a.735.735,0,0,1-.816.428,27.047,27.047,0,0,1-1.752,4.424Zm12.392-1.9s1.386,1.061,2.222,1.794c-.061.224-.265.326-.55.326H466.073v2.527c0,2.833-.183,7.277-3.139,10.17l-.245-.2c1.366-3.1,1.407-6.889,1.407-9.966v-3.974l2.3.876h7.785Zm-11.515-1.63h3.18v-2.589l2.792.265c-.02.266-.183.469-.673.55v1.774h2.365v-2.589l2.813.265c-.021.245-.2.469-.693.55v1.774h.937l1.02-1.387s1.2.958,1.9,1.631c-.041.225-.245.326-.53.326h-3.322v1.427c0,.122-.509.449-1.753.449h-.366v-1.875h-2.365v1.528c0,.123-.529.429-1.732.429h-.387v-1.957h-3.038Zm11.047,4.157,2.222,1.691a1.485,1.485,0,0,1-.836.429v7.542c0,1.529-.286,2.364-2.486,2.568a3.767,3.767,0,0,0-.265-1.569,1.235,1.235,0,0,0-1.04-.653v-.305s.978.082,1.264.082c.265,0,.326-.122.326-.346V532.7H472.29v3.751a1.924,1.924,0,0,1-1.59.569h-.305V532.7h-1.773v3.771c0,.224-.816.692-1.691.692h-.306V525.178l2.119.877h5.2Zm-6.318,1.733v2.4h1.773v-2.4Zm1.773,5.483V529.62h-1.773v2.508Zm3.73-5.483H472.29v2.4h1.835Zm0,5.483V529.62H472.29v2.508Z" transform="translate(-458.104 -518.126)" fill="#1d1d1f"/>
          <path id="パス_1136" data-name="パス 1136" d="M480.937,524.16c.346.55.775,1.04,1.325,1.04a34.348,34.348,0,0,0,5.462-1.162c.469-.142.632-.509,1.019-.509.713,0,2.486,1,2.486,1.9,0,.509-.877.795-1.59,1.223a26.966,26.966,0,0,0-3.954,3.221,5.716,5.716,0,0,1,1.325-.163,1.758,1.758,0,0,1,1.773,1.366c.184.672.388,1.569.509,2a1.1,1.1,0,0,0,1.162.937c1.957,0,2.344-.469,3.118-.469,1,0,1.835.53,1.835,1.325,0,1.1-2.222,1.365-4.362,1.365-2.385,0-3.261-.672-3.506-2.222-.1-.815-.183-1.61-.325-2.343-.1-.693-.469-1.02-1-1.02a2.709,2.709,0,0,0-1.855,1.061,32.852,32.852,0,0,0-2.773,3.4c-.448.59-.856.958-1.406.958a1.016,1.016,0,0,1-1.079-1.04c0-.979.387-1.284,1.06-1.916.856-.774,2.527-2.261,3.485-3.159,1.528-1.427,3.3-3.2,4.1-4.1.408-.489.184-.733-.407-.55a15.9,15.9,0,0,0-2.956,1.345c-.692.428-.958.856-1.507.856a2.638,2.638,0,0,1-2.243-1.732,2.784,2.784,0,0,1,.02-1.528Zm1.875-5.381.265-.245a6.361,6.361,0,0,0,3.546,1.182,11.934,11.934,0,0,0,1.673-.265,2.026,2.026,0,0,1,1.977,1.814c0,.388-.286.754-.938.754-.693,0-1.264-.1-1.773-.082a21.474,21.474,0,0,0-3.485.733l-.142-.346a24.74,24.74,0,0,0,2.242-1.161A5.342,5.342,0,0,1,482.812,518.78Z" transform="translate(-457.138 -518.107)" fill="#1d1d1f"/>
        </g>
      </g>
    </g>
    <g id="グループ_2370" data-name="グループ 2370" transform="translate(58 7081.169)">
      <g id="楕円形_338" data-name="楕円形 338" transform="translate(0 0)">
        <ellipse id="楕円形_339" data-name="楕円形 339" cx="58.379" cy="58.379" rx="58.379" ry="58.379" transform="translate(0.392 0.392)" fill="#ff0"/>
        <ellipse id="楕円形_340" data-name="楕円形 340" cx="58.771" cy="58.771" rx="58.771" ry="58.771" fill="#ff0"/>
      </g>
      <g id="心の準備" transform="translate(18.509 47.444)" style="isolation: isolate">
        <g id="グループ_2272" data-name="グループ 2272" style="isolation: isolate">
          <path id="パス_1145" data-name="パス 1145" d="M779.4,401.672c1.507,3.647.672,6.094-.429,7.235a1.491,1.491,0,0,1-2.385.082,1.415,1.415,0,0,1,.428-1.875,6.7,6.7,0,0,0,2.12-5.421Zm5.523-1.407c-.041.265-.224.469-.713.55v9.946c0,.469.224.612,1.06.612h2.3c.836,0,1.529,0,1.875-.042a.709.709,0,0,0,.652-.346,18.528,18.528,0,0,0,1.081-3.139h.224l.062,3.282c.733.286.937.57.937,1.039,0,1.121-1.019,1.631-5.054,1.631h-2.487c-2.3,0-3.037-.428-3.037-2.323V399.958Zm1.835.265a10.915,10.915,0,0,0-4.647-4.545l.082-.245C791.486,396.29,789.305,402.018,786.758,400.53Zm6.175,7.888a9.949,9.949,0,0,0-2.283-6.767l.164-.163C798.742,405.014,794.971,411.148,792.934,408.417Z" transform="translate(-776.381 -395.292)" fill="#1d1d1f"/>
          <path id="パス_1146" data-name="パス 1146" d="M804.593,412.553c5.156-1.223,7.093-4.055,7.093-7.581,0-3.751-2.406-6.156-5.707-6.156a5.471,5.471,0,0,0-.815.061,4.226,4.226,0,0,1,1.345,2.589,10.753,10.753,0,0,1-.674,3.628c-.917,2.589-3.2,6.3-5.686,6.3-1.631,0-3.139-2.506-3.139-5.156a8.241,8.241,0,0,1,3-6.054A9.161,9.161,0,0,1,806.2,398c4.687,0,8.01,3.261,8.01,7.5,0,3.852-2.69,7.155-9.538,7.439Zm-.346-13.492a7.876,7.876,0,0,0-3.588,2.16,6.287,6.287,0,0,0-1.835,4.362c0,1.611.694,3.118,1.55,3.118,1.14,0,2.934-2.812,3.586-4.218a9.807,9.807,0,0,0,.917-3.669A3,3,0,0,0,804.247,399.061Z" transform="translate(-775.432 -395.188)" fill="#1d1d1f"/>
          <path id="パス_1147" data-name="パス 1147" d="M815.6,398.389c4.85.062,3.24,3.709,1.324,2.506a4.8,4.8,0,0,0-1.487-2.364Zm16.59,9.171s1.508,1.162,2.447,1.957c-.062.224-.286.326-.591.326h-7.765v4.117c0,.183-1.122.571-2.019.571h-.449v-4.688h-8.05l-.163-.571h8.213v-1.814a4.318,4.318,0,0,1-.794.081h-.429v-6.6a13.072,13.072,0,0,1-2.017,1.387l-.246-.2a17.464,17.464,0,0,0,3.364-6.807l3,1.12c-.082.245-.366.408-.835.367a10.293,10.293,0,0,1-.816,1.366l.163.061h2.018c.183-.857.367-1.956.449-2.772l3.1.774c-.081.245-.305.429-.754.408a21.038,21.038,0,0,1-2.038,1.59h2.752l1.223-1.549s1.386,1.06,2.242,1.814c-.041.224-.266.326-.55.326h-4.259v1.916h1.243l1.12-1.407s1.244.958,2,1.672c-.042.224-.246.326-.53.326h-3.831v1.956h1.284l1.079-1.467s1.244,1.019,1.978,1.712c-.062.224-.266.326-.55.326h-3.791v2.018h1.894l1.2-1.549s1.324,1.061,2.139,1.814c-.061.225-.265.326-.55.326h-9.151v.387c0,.082-.184.245-.489.408l2.426.224c-.04.2-.163.387-.57.449v1.345h4.544Zm-15.366-3.995c.346,0,.407,0,.651-.346.49-.571.49-.571,4.117-5.544l.285.1c-.692,1.448-2.283,4.4-2.548,5.034a3.683,3.683,0,0,0-.366,1.427c.02.713.753,1.2.693,2.447-.041.774-.592,1.283-1.651,1.283a.966.966,0,0,1-.938-.815c.244-1.57.163-2.69-.284-2.935a2.121,2.121,0,0,0-.938-.266v-.387Zm.428-8.03c4.85.183,3.2,3.831,1.264,2.588a5.266,5.266,0,0,0-1.427-2.465Zm7.663,3.281v1.916h2.222v-1.916Zm2.222,2.507h-2.222v1.956h2.222Zm0,2.527h-2.222v2.018h2.222Z" transform="translate(-774.585 -395.312)" fill="#1d1d1f"/>
          <path id="パス_1148" data-name="パス 1148" d="M839.633,401.525a.749.749,0,0,1-.633.388V413.9a2.838,2.838,0,0,1-1.793.612h-.367V403.991a15.877,15.877,0,0,1-1.854,2.14l-.266-.142a37.709,37.709,0,0,0,3.24-10.619l3.159.917a.734.734,0,0,1-.815.428,27,27,0,0,1-1.753,4.422Zm12.392-1.9s1.386,1.061,2.222,1.794c-.062.225-.265.326-.55.326H842.69v2.527c0,2.834-.184,7.276-3.139,10.17l-.245-.2c1.366-3.1,1.406-6.889,1.406-9.967V400.3l2.3.877H850.8ZM840.51,398h3.18v-2.589l2.792.265c-.021.266-.183.469-.673.55V398h2.364v-2.589l2.814.265c-.021.245-.2.469-.694.55V398h.938l1.02-1.386s1.2.958,1.9,1.63c-.041.225-.245.326-.53.326h-3.323V400c0,.122-.508.449-1.752.449h-.367V398.57h-2.364V400.1c0,.121-.53.428-1.732.428h-.387V398.57h-3.036Zm11.045,4.157,2.222,1.692a1.488,1.488,0,0,1-.835.428v7.542c0,1.528-.286,2.364-2.486,2.568a3.77,3.77,0,0,0-.265-1.57,1.238,1.238,0,0,0-1.04-.652v-.305s.978.081,1.264.081c.266,0,.325-.121.325-.346v-1.651h-1.833v3.75a1.921,1.921,0,0,1-1.59.571h-.305v-4.321h-1.774v3.771c0,.224-.815.692-1.691.692h-.305V402.422l2.12.877h5.2Zm-6.318,1.733v2.4h1.774v-2.4Zm1.774,5.482v-2.506h-1.774v2.506Zm3.729-5.482h-1.833v2.4h1.833Zm0,5.482v-2.506h-1.833v2.506Z" transform="translate(-773.699 -395.309)" fill="#1d1d1f"/>
        </g>
      </g>
    </g>
    <g id="グループ_2371" data-name="グループ 2371" transform="translate(59 6955)">
      <ellipse id="楕円形_350" data-name="楕円形 350" cx="58.379" cy="58.379" rx="58.379" ry="58.379" transform="translate(0 0)" fill="#ff0"/>
      <g id="グループ_2369" data-name="グループ 2369" transform="translate(18.118 47.092)" style="isolation: isolate">
        <path id="パス_1127" data-name="パス 1127" d="M325.628,401.672c1.508,3.648.673,6.094-.428,7.235a1.491,1.491,0,0,1-2.385.082,1.413,1.413,0,0,1,.428-1.874,6.7,6.7,0,0,0,2.12-5.421Zm5.523-1.407c-.041.266-.224.47-.712.551v9.946c0,.469.224.611,1.06.611h2.3c.835,0,1.528,0,1.874-.041a.714.714,0,0,0,.653-.346,18.76,18.76,0,0,0,1.081-3.139h.224l.061,3.281c.734.286.938.571.938,1.04,0,1.121-1.019,1.631-5.055,1.631H331.09c-2.3,0-3.036-.428-3.036-2.323V399.959Zm1.835.266a10.9,10.9,0,0,0-4.647-4.545l.083-.245C337.714,396.291,335.533,402.018,332.985,400.531Zm6.175,7.888a9.952,9.952,0,0,0-2.282-6.766l.163-.164C344.97,405.014,341.2,411.149,339.161,408.418Z" transform="translate(-322.609 -395.333)" fill="#1d1d1f"/>
        <path id="パス_1128" data-name="パス 1128" d="M350.82,412.554c5.157-1.223,7.093-4.056,7.093-7.582,0-3.75-2.4-6.156-5.707-6.156a5.475,5.475,0,0,0-.815.062,4.227,4.227,0,0,1,1.345,2.588,10.761,10.761,0,0,1-.673,3.629c-.917,2.588-3.2,6.3-5.687,6.3-1.63,0-3.138-2.507-3.138-5.157a8.237,8.237,0,0,1,3-6.053,9.152,9.152,0,0,1,6.2-2.181c4.688,0,8.011,3.261,8.011,7.5,0,3.851-2.691,7.154-9.539,7.439Zm-.346-13.493a7.885,7.885,0,0,0-3.587,2.161,6.283,6.283,0,0,0-1.835,4.362c0,1.61.692,3.118,1.549,3.118,1.141,0,2.935-2.813,3.587-4.22a9.8,9.8,0,0,0,.917-3.668A3,3,0,0,0,350.474,399.061Z" transform="translate(-321.66 -395.229)" fill="#1d1d1f"/>
        <path id="パス_1129" data-name="パス 1129" d="M378.415,401.873s1.467,1.162,2.344,1.957c-.041.224-.266.326-.571.326H376.52a13.674,13.674,0,0,1-2.161,5.3c6.991,2.078,5.605,5.829,3.3,4.851a21.071,21.071,0,0,0-4.729-3.3c-2.2,1.874-5.625,2.935-11.107,3.464l-.082-.305c4.341-.917,7.3-2.16,9.253-4.117-.958-.428-1.977-.836-3.036-1.2-.245.509-.469.979-.673,1.386a3.571,3.571,0,0,1-2.569-.142c.755-1.407,1.815-3.73,2.711-5.931h-5.36l-.164-.571h5.749a36.669,36.669,0,0,0,1.386-3.893l3.138.571c-.061.286-.286.49-.856.509-.245.693-.632,1.691-1.1,2.813h6.909Zm-13.248-2.69a3.046,3.046,0,0,1-1.019,2.834,1.305,1.305,0,0,1-2-.47,1.341,1.341,0,0,1,.8-1.691,3.137,3.137,0,0,0,1.385-2.772h.266a8.6,8.6,0,0,1,.488,1.508h4.953v-3.24l3.221.245c-.041.285-.2.488-.754.591v2.4H377.4l1.243-1.243,2.16,2.059a1.115,1.115,0,0,1-.794.244A17.863,17.863,0,0,1,376.723,402l-.183-.122a27.366,27.366,0,0,0,.938-2.69Zm4.83,4.974c-.57,1.386-1.223,2.914-1.814,4.2,1.407.142,2.67.305,3.791.53a11.521,11.521,0,0,0,1.856-4.729Z" transform="translate(-320.809 -395.351)" fill="#1d1d1f"/>
        <path id="パス_1130" data-name="パス 1130" d="M391.966,411.614c.937.083,1.977.122,3.159.122s3.913,0,5.238-.02v.244c-.836.184-1.243,1.081-1.264,2.079H395c-4.709,0-7.318-.877-8.826-4.626a10.878,10.878,0,0,1-4.871,5.075l-.163-.183c2.649-2.548,3.567-6.4,3.792-9.458l3.179.53c-.082.284-.305.488-.795.509a16.456,16.456,0,0,1-.856,2.873,5.631,5.631,0,0,0,3.1,2.385v-8.376h-5.5l-.163-.571h10.639l1.264-1.528s.286.2.673.509c.2-.653.388-1.427.53-2.059H384.588a3.15,3.15,0,0,1-1.183,2.955,1.314,1.314,0,0,1-1.956-.55,1.3,1.3,0,0,1,.835-1.61,3.116,3.116,0,0,0,1.611-2.609h.286a6.563,6.563,0,0,1,.325,1.243h5.014v-3.179l3.22.244c-.041.286-.2.489-.753.591v2.344H396.9l1.223-1.243,2.16,2.057c-.163.164-.387.2-.795.245a18.955,18.955,0,0,1-2.527,1.936c.387.286.795.612,1.121.9-.041.224-.265.326-.55.326h-5.565v3.893h2.772l1.244-1.611s1.406,1.1,2.262,1.855c-.062.225-.286.326-.571.326h-5.707Z" transform="translate(-319.917 -395.35)" fill="#1d1d1f"/>
      </g>
    </g>
    <g id="グループ_2373" data-name="グループ 2373" transform="translate(199 7081.169)">
      <g id="楕円形_337" data-name="楕円形 337" transform="translate(0)">
        <ellipse id="楕円形_337-2" data-name="楕円形 337" cx="58.379" cy="58.379" rx="58.379" ry="58.379" transform="translate(0.392 0.392)" fill="#ff0"/>
        <ellipse id="楕円形_338-2" data-name="楕円形 338" cx="58.771" cy="58.771" rx="58.771" ry="58.771" fill="#ff0"/>
      </g>
      <g id="近い_未来への_予測" data-name="近い 未来への 予測" transform="translate(18.298 27.301)" style="isolation: isolate">
        <g id="グループ_2269" data-name="グループ 2269" transform="translate(20.415)" style="isolation: isolate">
          <path id="パス_1137" data-name="パス 1137" d="M687.875,491.63c-.062,2.772-.529,6.216-4.014,8.479,1.141.652,2.588.754,5.4.754,2.262,0,5.34,0,7.847-.082v.245a2.085,2.085,0,0,0-1.569,2.059h-6.258c-3.851,0-5.38-.612-6.746-3.485a45.509,45.509,0,0,1-3.18,3.464.536.536,0,0,1-.346.509l-1.3-2.71c.733-.224,1.732-.612,2.771-1v-5.972h-2.588l-.121-.571h2.384l1.182-1.569,2.507,2.038a1.792,1.792,0,0,1-1.06.408v5.075a5.5,5.5,0,0,0,.958.774l-.124-.142c1.774-2.609,1.937-5.911,1.937-8.886v-4.954l2.2.674a37.646,37.646,0,0,0,5.726-2.365l2.385,2.425c-.265.205-.733.184-1.345-.06a66.181,66.181,0,0,1-6.644.611v3.689h5.4l1.283-1.673s1.469,1.142,2.345,1.937c-.042.224-.266.326-.551.326h-2.976v8.193c0,.122-.734.529-1.936.529h-.428V491.63Zm-9.375-6.583c6.277.978,4.3,5.6,1.935,3.954a8.676,8.676,0,0,0-2.119-3.831Z" transform="translate(-677.705 -484.374)" fill="#1d1d1f"/>
          <path id="パス_1138" data-name="パス 1138" d="M700.271,490.532a3.5,3.5,0,0,0-1.569-2.894l.1-.224a4.971,4.971,0,0,1,1.915.265c1.04.428,2.263,1.59,2.263,2.527,0,1-1.079,2.119-1.079,4.687a3.385,3.385,0,0,0,1.589,3.139.638.638,0,0,0,.816-.182,36.685,36.685,0,0,0,2.119-3.629l.428.184a22.742,22.742,0,0,0-.937,4.015c-.041,1.243.286,1.2.286,1.834,0,.938-.958,1.407-2.243.877a6.489,6.489,0,0,1-3.75-5.808C700.068,493.712,700.271,491.918,700.271,490.532Zm9.538-.877.1-.346a6.6,6.6,0,0,1,4.566,1.957,6.108,6.108,0,0,1,1.794,4.422c0,1.284-.428,1.977-1.427,1.977a1.043,1.043,0,0,1-1.04-.774,22.213,22.213,0,0,0-.775-3.71A5.94,5.94,0,0,0,709.809,489.656Z" transform="translate(-676.74 -484.234)" fill="#1d1d1f"/>
        </g>
        <g id="グループ_2270" data-name="グループ 2270" transform="translate(0 23.57)" style="isolation: isolate">
          <path id="パス_1139" data-name="パス 1139" d="M669.438,515.672a14.5,14.5,0,0,0,8.133,6.2l-.041.225a2.837,2.837,0,0,0-2.018,2.181c-3.1-1.712-5.217-4.546-6.481-8.6h-.021v9.5c0,.265-1.059.857-1.977.857h-.469v-7.745a20.075,20.075,0,0,1-8.194,6.3l-.183-.245a20.731,20.731,0,0,0,6.971-8.662h-6.523l-.184-.571h8.112v-3.729h-6.278l-.142-.571h6.42v-3.893l3.2.305c-.041.286-.2.489-.754.571V510.8h2.935l1.366-1.712s1.548,1.141,2.465,1.956a.513.513,0,0,1-.549.327H669.01V515.1h4.28l1.427-1.773s1.59,1.182,2.568,2.018c-.061.224-.285.326-.591.326Z" transform="translate(-658.187 -506.908)" fill="#1d1d1f"/>
          <path id="パス_1140" data-name="パス 1140" d="M688.836,516.936a14.374,14.374,0,0,0,8.193,5.3l-.041.244a2.617,2.617,0,0,0-1.915,2.119,12.792,12.792,0,0,1-6.583-7.48v8.051c0,.265-1.061.857-1.978.857h-.468v-6.748a20,20,0,0,1-8.215,5.748l-.183-.244a19.763,19.763,0,0,0,7.012-7.847h-6.563l-.184-.55h8.134v-5.441h-7.073l-.163-.571h7.236v-3.465l3.2.305c-.041.286-.2.489-.753.571v2.589h3.688l1.386-1.733s1.55,1.182,2.507,1.977c-.04.225-.286.327-.57.327H688.49v5.441h4.341l1.448-1.774s1.569,1.182,2.547,2c-.061.224-.265.326-.57.326Zm-7.622-5.666c5.584,1.835,3.219,6.033,1.14,4.158a10.109,10.109,0,0,0-1.324-4.076Zm8.254,4.565a35.914,35.914,0,0,0,1.753-4.625l3.057,1.2a.753.753,0,0,1-.836.367,17.037,17.037,0,0,1-3.73,3.221Z" transform="translate(-657.292 -506.908)" fill="#1d1d1f"/>
          <path id="パス_1141" data-name="パス 1141" d="M697.532,516.19l.246-.183a2.391,2.391,0,0,0,1.223.653,1.864,1.864,0,0,0,1.121-.612c1.018-.938,2.955-2.956,3.607-3.668a2.094,2.094,0,0,1,1.611-.795,2.912,2.912,0,0,1,2.2,1.08c2.364,2.426,4.014,4.647,7.623,6.706a2.258,2.258,0,0,1,1.3,2.058,1.1,1.1,0,0,1-1.182,1.161c-1.121,0-2.833-1.466-4.566-3.342-1.712-1.9-3.241-4.117-4.4-5.34a1.4,1.4,0,0,0-.917-.53c-.245,0-.489.163-.816.55-.672.877-2.119,3.017-2.75,4.036-.449.712-.776,1.3-1.529,1.3a3.28,3.28,0,0,1-2.364-1.428A3.231,3.231,0,0,1,697.532,516.19Z" transform="translate(-656.378 -506.693)" fill="#1d1d1f"/>
          <path id="パス_1142" data-name="パス 1142" d="M725.743,524.072c5.157-1.223,7.093-4.056,7.093-7.582,0-3.75-2.4-6.155-5.707-6.155a5.466,5.466,0,0,0-.815.061,4.227,4.227,0,0,1,1.345,2.589,10.76,10.76,0,0,1-.673,3.627c-.917,2.588-3.2,6.3-5.687,6.3-1.63,0-3.139-2.507-3.139-5.155a8.241,8.241,0,0,1,3-6.054,9.151,9.151,0,0,1,6.2-2.18c4.688,0,8.01,3.26,8.01,7.5,0,3.852-2.69,7.154-9.538,7.44Zm-.346-13.493a7.887,7.887,0,0,0-3.588,2.161,6.291,6.291,0,0,0-1.834,4.362c0,1.61.693,3.118,1.549,3.118,1.141,0,2.935-2.813,3.587-4.219a9.832,9.832,0,0,0,.917-3.669A3,3,0,0,0,725.4,510.579Z" transform="translate(-655.429 -506.788)" fill="#1d1d1f"/>
        </g>
        <g id="グループ_2271" data-name="グループ 2271" transform="translate(20.517 47.201)" style="isolation: isolate">
          <path id="パス_1143" data-name="パス 1143" d="M697.022,538.271a1.152,1.152,0,0,1-.857.266,25.859,25.859,0,0,1-5.074,3.831l-.163-.142a27.7,27.7,0,0,0,2.364-4.239h-4.728v7.5c0,1.651-.469,2.792-3.506,3a2.5,2.5,0,0,0-.632-1.732,4.209,4.209,0,0,0-2.364-.856v-.266s2.955.163,3.526.163c.367,0,.488-.122.488-.387v-7.419h-8.091l-.184-.591h9.763a13.16,13.16,0,0,0-4.484-4.055l.1-.246a11.311,11.311,0,0,1,4.79,1.122,24.482,24.482,0,0,0,2.915-2.589H680.431l-.182-.571h10.9l1.407-1.285,2.242,2.14c-.183.164-.408.2-.876.224a33.054,33.054,0,0,1-5.441,2.406c1.427,1.04,1.324,2.324.631,2.853h4.179l1.407-1.366Z" transform="translate(-677.802 -529.487)" fill="#1d1d1f"/>
          <path id="パス_1144" data-name="パス 1144" d="M697.308,534.167c4.953.9,3.057,4.565,1.2,3.118a5.927,5.927,0,0,0-1.386-2.976Zm5.421-.754c-.671,2.364-1.854,6.746-2.057,7.786a8.173,8.173,0,0,0-.246,1.874c.041,1.06.816,1.876.755,3.73a1.559,1.559,0,0,1-1.591,1.651c-.428,0-.856-.284-.978-1.061.347-2.16.266-4.075-.183-4.4a1.854,1.854,0,0,0-1.04-.305v-.407h.877c.286,0,.366,0,.591-.428.367-.754.367-.754,3.526-8.52Zm-4.218-3.913c5.259.978,3.363,4.749,1.385,3.3a7.973,7.973,0,0,0-1.548-3.18Zm6.379,13.432c0,.121-.245.325-.592.469l2.181.9c-.1.245-.366.388-.815.347a9.879,9.879,0,0,1-4.259,3.77l-.224-.224a12.734,12.734,0,0,0,2.648-4.627,2.759,2.759,0,0,1-.59.062h-.326V530.008l2.058.876h1.672l1-1.058,1.935,1.548a1.135,1.135,0,0,1-.672.367v11.027a2.835,2.835,0,0,1-1.733.612h-.325v-.755H704.89Zm0-11.455v3.1h1.957v-3.1Zm1.957,6.786v-3.1H704.89v3.1Zm0,3.792v-3.2H704.89v3.2Zm-.509,1.366c5.136,1.813,3.179,5.706,1.345,4.075a8.673,8.673,0,0,0-1.55-3.975Zm5.686.08c0,.2-.876.591-1.549.591h-.408V531.272l2.507.246c-.021.224-.142.387-.55.448Zm4.259-13.634c-.061.284-.266.488-.753.57v15.347c0,1.529-.327,2.406-2.793,2.63a2.574,2.574,0,0,0-.469-1.528,2.679,2.679,0,0,0-1.712-.734v-.286s2,.143,2.425.143c.347,0,.449-.1.449-.388v-16.04Z" transform="translate(-676.914 -529.5)" fill="#1d1d1f"/>
        </g>
      </g>
    </g>
  </g>
</svg>
